<svg width="955" height="551" viewBox="0 0 955 551" fill="none" xmlns="http://www.w3.org/2000/svg">
<rect x="4.5" y="348.5" width="198" height="198" rx="28.5" stroke="#854D0F" stroke-width="9"/>
<rect x="378.5" y="348.5" width="198" height="198" rx="28.5" stroke="#854D0F" stroke-width="9"/>
<rect x="752.5" y="348.5" width="198" height="198" rx="28.5" stroke="#854D0F" stroke-width="9"/>
<path d="M193.172 353.172C191.609 354.734 191.609 357.266 193.172 358.828C194.734 360.391 197.266 360.391 198.828 358.828L193.172 353.172ZM348 208C348 205.791 346.209 204 344 204H308C305.791 204 304 205.791 304 208C304 210.209 305.791 212 308 212L340 212L340 244C340 246.209 341.791 248 344 248C346.209 248 348 246.209 348 244V208ZM198.828 358.828L346.828 210.828L341.172 205.172L193.172 353.172L198.828 358.828Z" fill="#854D0F"/>
<path d="M752.172 358.828C753.734 360.391 756.266 360.391 757.828 358.828C759.391 357.266 759.391 354.734 757.828 353.172L752.172 358.828ZM607 204C604.791 204 603 205.791 603 208V244C603 246.209 604.791 248 607 248C609.209 248 611 246.209 611 244V212L643 212C645.209 212 647 210.209 647 208C647 205.791 645.209 204 643 204H607ZM757.828 353.172L609.828 205.172L604.172 210.828L752.172 358.828L757.828 353.172Z" fill="#854D0F"/>
<path d="M477.48 165.508C470.957 165.508 464.668 164.434 458.613 162.285C452.598 160.176 447.051 157.207 441.973 153.379C436.895 149.551 432.461 145.059 428.672 139.902C424.883 134.746 421.934 129.121 419.824 123.027C417.754 116.934 416.719 110.566 416.719 103.926C416.719 97.2852 417.754 90.918 419.824 84.8242C421.934 78.7305 424.863 73.125 428.613 68.0078C432.402 62.8516 436.836 58.3594 441.914 54.5312C447.031 50.7031 452.598 47.7344 458.613 45.625C464.629 43.5156 470.918 42.4609 477.48 42.4609C484.043 42.4609 490.332 43.5156 496.348 45.625C502.363 47.7344 507.91 50.7031 512.988 54.5312C518.105 58.3594 522.539 62.8516 526.289 68.0078C530.078 73.125 533.008 78.7305 535.078 84.8242C537.188 90.918 538.242 97.2852 538.242 103.926C538.242 110.566 537.188 116.934 535.078 123.027C533.008 129.121 530.078 134.746 526.289 139.902C522.5 145.059 518.066 149.551 512.988 153.379C507.91 157.207 502.344 160.176 496.289 162.285C490.273 164.434 484.004 165.508 477.48 165.508ZM477.48 158.477C483.262 158.477 488.809 157.52 494.121 155.605C499.434 153.73 504.336 151.094 508.828 147.695C513.32 144.336 517.246 140.371 520.605 135.801C523.965 131.23 526.562 126.25 528.398 120.859C530.273 115.43 531.211 109.785 531.211 103.926C531.211 98.0664 530.273 92.4414 528.398 87.0508C526.562 81.6602 523.965 76.6797 520.605 72.1094C517.285 67.5391 513.359 63.5742 508.828 60.2148C504.336 56.8164 499.434 54.1797 494.121 52.3047C488.809 50.4297 483.262 49.4922 477.48 49.4922C471.699 49.4922 466.152 50.4297 460.84 52.3047C455.527 54.1797 450.605 56.8164 446.074 60.2148C441.582 63.5742 437.656 67.5391 434.297 72.1094C430.977 76.6797 428.379 81.6602 426.504 87.0508C424.668 92.4414 423.75 98.0664 423.75 103.926C423.75 109.785 424.668 115.43 426.504 120.859C428.379 126.25 430.996 131.23 434.355 135.801C437.715 140.332 441.641 144.297 446.133 147.695C450.625 151.094 455.527 153.73 460.84 155.605C466.152 157.52 471.699 158.477 477.48 158.477ZM477.48 149.512C471.348 149.512 465.547 148.32 460.078 145.938C454.609 143.555 449.785 140.273 445.605 136.094C441.426 131.914 438.145 127.09 435.762 121.621C433.379 116.113 432.188 110.254 432.188 104.043C432.188 97.832 433.379 91.9922 435.762 86.5234C438.184 81.0156 441.484 76.1719 445.664 71.9922C449.883 67.7734 454.707 64.4727 460.137 62.0898C465.605 59.668 471.387 58.457 477.48 58.457C483.574 58.457 489.336 59.668 494.766 62.0898C500.234 64.4727 505.059 67.7734 509.238 71.9922C513.457 76.1719 516.758 81.0156 519.141 86.5234C521.562 91.9922 522.773 97.832 522.773 104.043C522.773 110.254 521.582 116.113 519.199 121.621C516.816 127.09 513.535 131.914 509.355 136.094C505.176 140.273 500.352 143.555 494.883 145.938C489.453 148.32 483.652 149.512 477.48 149.512ZM477.48 142.48C482.637 142.48 487.52 141.484 492.129 139.492C496.738 137.461 500.82 134.688 504.375 131.172C507.93 127.617 510.703 123.516 512.695 118.867C514.727 114.219 515.742 109.277 515.742 104.043C515.742 98.8086 514.727 93.8867 512.695 89.2773C510.664 84.6289 507.871 80.5273 504.316 76.9727C500.762 73.3789 496.68 70.5664 492.07 68.5352C487.5 66.5039 482.637 65.4883 477.48 65.4883C472.324 65.4883 467.441 66.5039 462.832 68.5352C458.262 70.5664 454.199 73.3789 450.645 76.9727C447.09 80.5273 444.297 84.6289 442.266 89.2773C440.234 93.8867 439.219 98.8086 439.219 104.043C439.219 109.277 440.215 114.219 442.207 118.867C444.238 123.516 447.031 127.617 450.586 131.172C454.141 134.688 458.223 137.461 462.832 139.492C467.441 141.484 472.324 142.48 477.48 142.48ZM477.48 133.574C471.855 133.574 466.777 132.285 462.246 129.707C457.754 127.09 454.199 123.535 451.582 119.043C448.965 114.551 447.656 109.512 447.656 103.926C447.656 98.3789 448.984 93.3984 451.641 88.9844C454.297 84.5312 457.871 80.9961 462.363 78.3789C466.895 75.7617 471.934 74.4531 477.48 74.4531C483.066 74.4531 488.105 75.7617 492.598 78.3789C497.09 80.9961 500.664 84.5312 503.32 88.9844C505.977 93.3984 507.305 98.3789 507.305 103.926C507.305 109.512 505.996 114.551 503.379 119.043C500.762 123.535 497.207 127.09 492.715 129.707C488.223 132.285 483.145 133.574 477.48 133.574ZM477.48 126.543C481.855 126.543 485.742 125.566 489.141 123.613C492.578 121.621 495.293 118.926 497.285 115.527C499.277 112.09 500.273 108.223 500.273 103.926C500.273 99.707 499.258 95.8984 497.227 92.5C495.234 89.1016 492.52 86.4258 489.082 84.4727C485.645 82.4805 481.777 81.4844 477.48 81.4844C473.184 81.4844 469.316 82.4805 465.879 84.4727C462.441 86.4258 459.707 89.1016 457.676 92.5C455.684 95.8984 454.688 99.707 454.688 103.926C454.688 108.223 455.684 112.09 457.676 115.527C459.668 118.926 462.383 121.621 465.82 123.613C469.258 125.566 473.145 126.543 477.48 126.543ZM477.48 114.238C474.629 114.238 472.246 113.301 470.332 111.426C468.418 109.512 467.461 107.012 467.461 103.926C467.461 100.801 468.418 98.3008 470.332 96.4258C472.246 94.5508 474.629 93.6133 477.48 93.6133C480.371 93.6133 482.754 94.5508 484.629 96.4258C486.543 98.3008 487.5 100.801 487.5 103.926C487.5 107.012 486.543 109.512 484.629 111.426C482.754 113.301 480.371 114.238 477.48 114.238ZM479.648 107.031L476.719 100.703L542.695 69.7656L545.625 76.0938L479.648 107.031ZM530.215 95.0781C528.027 95.0781 525.684 94.8242 523.184 94.3164C520.723 93.7695 518.398 93.0859 516.211 92.2656C514.023 91.4453 512.246 90.6055 510.879 89.7461L509.648 86.875C510.039 84.5703 510.781 82.1094 511.875 79.4922C513.008 76.875 514.414 74.4141 516.094 72.1094C517.812 69.8047 519.727 67.9297 521.836 66.4844C523.945 65 526.172 64.2578 528.516 64.2578C530.742 64.2578 532.656 64.707 534.258 65.6055C535.898 66.5039 537.012 67.3047 537.598 68.0078L536.543 73.8086L538.711 78.6719L543.691 81.8359C543.691 85.5078 542.402 88.6328 539.824 91.2109C537.246 93.7891 534.043 95.0781 530.215 95.0781Z" fill="#854D0F"/>
<rect x="378.5" y="4.5" width="198" height="198" rx="28.5" stroke="#854D0F" stroke-width="9"/>
<path d="M851.172 505.508C842.266 505.508 834.023 503.965 826.445 500.879C818.906 497.832 812.344 493.535 806.758 487.988C801.172 482.441 796.816 475.938 793.691 468.477C790.605 460.977 789.062 452.812 789.062 443.984C789.062 435.156 790.605 427.012 793.691 419.551C796.816 412.051 801.172 405.527 806.758 399.98C812.344 394.434 818.906 390.137 826.445 387.09C834.023 384.004 842.266 382.461 851.172 382.461C860.078 382.461 868.301 384.004 875.84 387.09C883.418 390.137 890 394.434 895.586 399.98C901.172 405.527 905.508 412.051 908.594 419.551C911.719 427.012 913.281 435.156 913.281 443.984C913.281 452.812 911.719 460.977 908.594 468.477C905.508 475.938 901.172 482.441 895.586 487.988C890 493.535 883.418 497.832 875.84 500.879C868.301 503.965 860.078 505.508 851.172 505.508ZM851.172 475.215C841.875 475.215 832.832 472.285 824.043 466.426L827.676 461.094C835.254 466.211 843.086 468.77 851.172 468.77C859.258 468.77 867.09 466.211 874.668 461.094L878.301 466.426C869.512 472.285 860.469 475.215 851.172 475.215ZM829.961 440.176C827.734 440.176 825.82 439.297 824.219 437.539C822.656 435.781 821.875 433.438 821.875 430.508C821.875 427.578 822.656 425.234 824.219 423.477C825.82 421.719 827.734 420.84 829.961 420.84C832.188 420.84 834.082 421.719 835.645 423.477C837.246 425.234 838.047 427.578 838.047 430.508C838.047 433.438 837.246 435.781 835.645 437.539C834.082 439.297 832.188 440.176 829.961 440.176ZM851.23 499.062C859.121 499.062 866.406 497.676 873.086 494.902C879.805 492.168 885.625 488.34 890.547 483.418C895.508 478.457 899.355 472.617 902.09 465.898C904.863 459.18 906.25 451.855 906.25 443.926C906.25 436.035 904.863 428.75 902.09 422.07C899.355 415.352 895.508 409.531 890.547 404.609C885.625 399.648 879.805 395.801 873.086 393.066C866.406 390.293 859.121 388.906 851.23 388.906C843.301 388.906 835.977 390.293 829.258 393.066C822.578 395.801 816.758 399.648 811.797 404.609C806.836 409.531 802.969 415.352 800.195 422.07C797.461 428.75 796.094 436.035 796.094 443.926C796.094 451.855 797.461 459.18 800.195 465.898C802.969 472.617 806.816 478.457 811.738 483.418C816.699 488.34 822.539 492.168 829.258 494.902C835.977 497.676 843.301 499.062 851.23 499.062ZM872.383 440.176C870.156 440.176 868.242 439.297 866.641 437.539C865.078 435.781 864.297 433.438 864.297 430.508C864.297 427.578 865.078 425.234 866.641 423.477C868.242 421.719 870.156 420.84 872.383 420.84C874.609 420.84 876.504 421.719 878.066 423.477C879.668 425.234 880.469 427.578 880.469 430.508C880.469 433.438 879.668 435.781 878.066 437.539C876.504 439.297 874.609 440.176 872.383 440.176Z" fill="#854D0F"/>
<path d="M80.4648 505.508C68.707 505.508 59.3906 503.711 52.5156 500.117C45.6797 496.523 41.9297 491.484 41.2656 485C40.9141 481.211 40.6211 477.129 40.3867 472.754C40.1523 468.34 39.9766 463.398 39.8594 457.93C39.7812 452.461 39.7422 446.25 39.7422 439.297L46.7734 440.234C46.7734 446.953 46.8125 452.988 46.8906 458.34C46.9688 463.652 47.125 468.438 47.3594 472.695C47.5938 476.953 47.9062 480.859 48.2969 484.414C48.7656 488.516 51.793 491.875 57.3789 494.492C62.9648 497.148 70.6602 498.477 80.4648 498.477C88.2383 498.477 94.8398 497.852 100.27 496.602C105.699 495.352 109.84 493.672 112.691 491.562C115.543 489.453 116.969 487.148 116.969 484.648C116.969 483.75 116.812 482.832 116.5 481.895C116.227 480.918 115.836 479.922 115.328 478.906C114.703 477.656 114.156 476.309 113.688 474.863C113.258 473.418 113.043 471.855 113.043 470.176V440.879L120.074 439.062V470.176C120.074 471.934 120.289 473.457 120.719 474.746C121.148 475.996 121.637 477.188 122.184 478.32C122.691 479.297 123.121 480.293 123.473 481.309C123.824 482.285 124 483.398 124 484.648C124 488.828 122.281 492.48 118.844 495.605C115.406 498.73 110.445 501.152 103.961 502.871C97.4766 504.629 89.6445 505.508 80.4648 505.508ZM80.1719 480.547C76.8516 480.547 73.7461 479.902 70.8555 478.613C67.9648 477.285 65.4062 475.273 63.1797 472.578L67.3398 468.945C69.1367 471.094 71.0703 472.637 73.1406 473.574C75.2109 474.512 77.5547 474.98 80.1719 474.98C82.8281 474.98 85.1914 474.512 87.2617 473.574C89.332 472.637 91.2461 471.094 93.0039 468.945L97.1641 472.578C94.9375 475.273 92.3789 477.285 89.4883 478.613C86.6367 479.902 83.5312 480.547 80.1719 480.547ZM63.8828 462.441C62.2422 462.441 60.875 461.836 59.7812 460.625C58.7266 459.375 58.1992 457.91 58.1992 456.23C58.1992 454.512 58.7266 453.047 59.7812 451.836C60.875 450.625 62.2422 450.02 63.8828 450.02C65.5234 450.02 66.8711 450.625 67.9258 451.836C69.0195 453.047 69.5664 454.512 69.5664 456.23C69.5664 457.91 69.0195 459.375 67.9258 460.625C66.8711 461.836 65.5234 462.441 63.8828 462.441ZM94.9375 462.441C93.2969 462.441 91.9297 461.836 90.8359 460.625C89.7812 459.375 89.2539 457.91 89.2539 456.23C89.2539 454.512 89.7812 453.047 90.8359 451.836C91.9297 450.625 93.2969 450.02 94.9375 450.02C96.5781 450.02 97.9258 450.625 98.9805 451.836C100.074 453.047 100.621 454.512 100.621 456.23C100.621 457.91 100.074 459.375 98.9805 460.625C97.9258 461.836 96.5781 462.441 94.9375 462.441ZM80.1719 443.691C70.9141 443.691 63.1797 443.477 56.9688 443.047C50.7969 442.617 45.8945 441.895 42.2617 440.879C38.6289 439.863 36.0312 438.516 34.4688 436.836C32.9062 435.117 32.125 432.969 32.125 430.391C32.125 428.008 33.1797 426.152 35.2891 424.824C35.5234 418.73 37.2031 413.027 40.3281 407.715C43.4922 402.363 47.7109 397.832 52.9844 394.121C58.2578 390.371 64.1953 387.852 70.7969 386.562V393.242C65.0547 394.531 60.0352 396.738 55.7383 399.863C51.4805 402.988 48.1602 406.777 45.7773 411.23C43.4336 415.645 42.2617 420.469 42.2617 425.703C42.2617 426.055 42.2617 426.406 42.2617 426.758C42.2617 427.07 42.2812 427.383 42.3203 427.695C41.2266 427.969 40.4258 428.398 39.918 428.984C39.4102 429.57 39.1562 430.039 39.1562 430.391C39.1562 432.109 40.4453 433.477 43.0234 434.492C45.6016 435.469 49.8789 436.172 55.8555 436.602C61.832 437.031 69.9375 437.246 80.1719 437.246C90.4062 437.246 98.5117 437.031 104.488 436.602C110.465 436.172 114.742 435.469 117.32 434.492C119.898 433.477 121.188 432.109 121.188 430.391C121.188 430.039 120.934 429.57 120.426 428.984C119.918 428.398 119.117 427.969 118.023 427.695C118.062 427.383 118.082 427.07 118.082 426.758C118.082 426.406 118.082 426.055 118.082 425.703C118.082 420.469 116.891 415.645 114.508 411.23C112.164 406.777 108.844 402.988 104.547 399.863C100.289 396.738 95.2891 394.531 89.5469 393.242V386.562C96.1875 387.852 102.125 390.371 107.359 394.121C112.633 397.832 116.832 402.363 119.957 407.715C123.121 413.027 124.82 418.73 125.055 424.824C127.164 426.152 128.219 428.008 128.219 430.391C128.219 432.969 127.437 435.117 125.875 436.836C124.313 438.516 121.715 439.863 118.082 440.879C114.449 441.895 109.527 442.617 103.316 443.047C97.1445 443.477 89.4297 443.691 80.1719 443.691ZM67.0469 411.23C66.5391 407.051 65.8359 403.555 64.9375 400.742C64.0391 397.891 62.9062 395.566 61.5391 393.77L66.1094 390.137C66.8906 391.113 67.5938 392.207 68.2188 393.418C68.8828 394.629 69.4688 395.957 69.9766 397.402H67.0469V390.371C67.0469 388.184 67.8086 386.328 69.332 384.805C70.8945 383.242 72.7695 382.461 74.957 382.461H85.3867C87.5742 382.461 89.4297 383.242 90.9531 384.805C92.5156 386.328 93.2969 388.184 93.2969 390.371V397.402H90.3672C90.9141 395.957 91.5 394.629 92.125 393.418C92.7891 392.207 93.4922 391.113 94.2344 390.137L98.8047 393.77C97.4375 395.566 96.3047 397.891 95.4062 400.742C94.5078 403.555 93.8047 407.051 93.2969 411.23L87.4375 410.879V390.957C87.4375 390.41 87.2227 389.941 86.793 389.551C86.4023 389.121 85.9336 388.906 85.3867 388.906H74.957C74.4102 388.906 73.9219 389.121 73.4922 389.551C73.1016 389.941 72.9062 390.41 72.9062 390.957V410.879L67.0469 411.23Z" fill="#854D0F"/>
<path d="M580 439C577.791 439 576 440.791 576 443C576 445.209 577.791 447 580 447V439ZM700.828 445.828C702.391 444.266 702.391 441.734 700.828 440.172L675.373 414.716C673.81 413.154 671.278 413.154 669.716 414.716C668.154 416.278 668.154 418.81 669.716 420.373L692.343 443L669.716 465.627C668.154 467.19 668.154 469.722 669.716 471.284C671.278 472.846 673.81 472.846 675.373 471.284L700.828 445.828ZM580 447H698V439H580V447Z" fill="#854D0F"/>
<path d="M377 447C379.209 447 381 445.209 381 443C381 440.791 379.209 439 377 439L377 447ZM256.172 440.172C254.609 441.734 254.609 444.266 256.172 445.828L281.627 471.284C283.19 472.846 285.722 472.846 287.284 471.284C288.846 469.722 288.846 467.19 287.284 465.627L264.657 443L287.284 420.373C288.846 418.81 288.846 416.278 287.284 414.716C285.722 413.154 283.19 413.154 281.627 414.716L256.172 440.172ZM377 439L259 439L259 447L377 447L377 439Z" fill="#854D0F"/>
<path d="M128.752 507.214C127.674 505.348 127.035 503.66 126.833 502.15C126.631 500.64 126.698 499.182 127.034 497.775C127.36 496.407 127.77 494.99 128.264 493.524L145.57 442.862C143.829 441.284 142.31 439.37 141.011 437.121C139.105 433.819 138.165 430.423 138.19 426.931C138.24 423.426 139.139 420.148 140.886 417.097C142.672 414.057 145.191 411.597 148.445 409.719C150.071 408.78 151.87 408.028 153.842 407.464L153.823 424.174C155.36 425.232 157.035 425.812 158.848 425.914C160.685 426.002 162.405 425.583 164.007 424.658C164.151 424.575 164.283 424.499 164.402 424.43C164.546 424.347 164.67 424.259 164.776 424.166L164.532 408.66C167.032 408.238 169.365 408.853 171.531 410.505C173.734 412.168 175.617 414.35 177.177 417.054C179.097 420.379 180.024 423.863 179.958 427.506C179.892 431.149 178.958 434.559 177.156 437.736C175.379 440.9 172.839 443.435 169.537 445.341C166.93 446.846 164.197 447.722 161.341 447.968L149.483 500.939C148.919 503.498 148.138 505.543 147.141 507.076C146.182 508.619 144.876 509.867 143.226 510.82C141.551 511.787 139.766 512.259 137.871 512.236C135.99 512.238 134.237 511.799 132.613 510.918C130.964 510.052 129.677 508.817 128.752 507.214ZM132.34 505.143C133.155 506.554 134.448 507.467 136.217 507.88C137.977 508.331 139.623 508.115 141.154 507.231C142.278 506.582 143.155 505.725 143.784 504.66C144.427 503.619 144.972 502.076 145.419 500.032L158.028 443.804C161.353 444.149 164.499 443.465 167.465 441.752C170.121 440.219 172.157 438.166 173.575 435.593C175.006 433.045 175.711 430.261 175.691 427.242C175.685 424.248 174.846 421.303 173.175 418.408C172.871 417.882 172.307 417.154 171.484 416.226C170.685 415.284 169.805 414.644 168.844 414.305L168.932 425.977C168.155 426.841 167.204 427.597 166.079 428.246C163.448 429.766 160.598 430.326 157.529 429.929C154.498 429.542 151.89 428.256 149.705 426.073L149.676 413.841C147.295 415.407 145.468 417.354 144.197 419.683C142.94 422.036 142.317 424.549 142.329 427.221C142.379 429.904 143.136 432.513 144.6 435.049C145.415 436.461 146.26 437.648 147.134 438.61C148.033 439.558 149.135 440.501 150.441 441.437L132.207 494.884C131.713 496.35 131.349 497.597 131.114 498.626C130.854 499.669 130.804 500.686 130.963 501.679C131.121 502.672 131.581 503.827 132.34 505.143ZM134.919 501.405C135.43 502.29 136.176 502.864 137.157 503.127C138.139 503.39 139.072 503.266 139.957 502.755C140.842 502.244 141.416 501.497 141.679 500.516C141.942 499.535 141.818 498.602 141.307 497.717C140.796 496.832 140.05 496.258 139.069 495.995C138.087 495.732 137.154 495.856 136.269 496.367C135.384 496.878 134.81 497.624 134.547 498.605C134.284 499.586 134.408 500.52 134.919 501.405Z" fill="#854D0F"/>
<path d="M434.223 505.508C431.332 505.508 429.164 504.629 427.719 502.871C426.312 501.113 425.609 498.926 425.609 496.309V423.301C425.609 420.684 426.312 418.496 427.719 416.738C429.164 414.98 431.332 414.102 434.223 414.102H520.121C523.012 414.102 525.16 414.98 526.566 416.738C528.012 418.496 528.734 420.684 528.734 423.301V496.309C528.734 498.926 528.012 501.113 526.566 502.871C525.16 504.629 523.012 505.508 520.121 505.508H434.223ZM423.09 489.395C420.16 489.395 417.895 488.73 416.293 487.402C414.691 486.113 413.891 484.297 413.891 481.953V437.832C413.891 435.488 414.691 433.672 416.293 432.383C417.895 431.055 420.16 430.391 423.09 430.391H429.125V436.836H423.09C422.23 436.836 421.547 437.09 421.039 437.598C420.57 438.066 420.336 438.73 420.336 439.59V480.195C420.336 481.055 420.57 481.738 421.039 482.246C421.547 482.715 422.23 482.949 423.09 482.949H429.125V489.395H423.09ZM457.25 486.641V473.164H461.938V486.641H457.25ZM466.039 486.641V473.164H470.727V486.641H466.039ZM457.191 489.277C454.496 489.277 452.23 488.379 450.395 486.582C448.598 484.785 447.699 482.559 447.699 479.902C447.699 477.207 448.598 474.98 450.395 473.223C452.191 471.426 454.457 470.527 457.191 470.527H497.152C499.887 470.527 502.152 471.426 503.949 473.223C505.746 474.98 506.645 477.207 506.645 479.902C506.645 482.559 505.727 484.785 503.891 486.582C502.094 488.379 499.848 489.277 497.152 489.277H457.191ZM457.191 484.004H497.152C498.168 484.004 499.027 483.613 499.73 482.832C500.434 482.012 500.785 481.035 500.785 479.902C500.785 478.77 500.434 477.812 499.73 477.031C499.027 476.211 498.168 475.801 497.152 475.801H457.191C456.176 475.801 455.316 476.211 454.613 477.031C453.91 477.812 453.559 478.77 453.559 479.902C453.559 481.035 453.91 482.012 454.613 482.832C455.355 483.613 456.215 484.004 457.191 484.004ZM474.828 486.641V473.164H479.516V486.641H474.828ZM483.617 486.641V473.164H488.305V486.641H483.617ZM456.195 460.801C453.578 460.801 451.176 460.156 448.988 458.867C446.84 457.578 445.121 455.859 443.832 453.711C442.543 451.523 441.898 449.121 441.898 446.504C441.898 443.887 442.543 441.504 443.832 439.355C445.121 437.207 446.84 435.488 448.988 434.199C451.176 432.91 453.578 432.266 456.195 432.266C458.812 432.266 461.195 432.91 463.344 434.199C465.531 435.488 467.27 437.207 468.559 439.355C469.848 441.504 470.492 443.887 470.492 446.504C470.492 449.121 469.848 451.523 468.559 453.711C467.27 455.859 465.551 457.578 463.402 458.867C461.254 460.156 458.852 460.801 456.195 460.801ZM456.195 454.941C458.539 454.941 460.531 454.121 462.172 452.48C463.812 450.84 464.633 448.848 464.633 446.504C464.633 444.199 463.793 442.227 462.113 440.586C460.473 438.945 458.5 438.125 456.195 438.125C453.891 438.125 451.898 438.945 450.219 440.586C448.578 442.227 447.758 444.199 447.758 446.504C447.758 448.848 448.578 450.84 450.219 452.48C451.859 454.121 453.852 454.941 456.195 454.941ZM492.406 486.641V473.164H497.094V486.641H492.406ZM435.395 499.062H518.949C519.809 499.062 520.473 498.809 520.941 498.301C521.449 497.832 521.703 497.168 521.703 496.309V423.301C521.703 422.441 521.449 421.777 520.941 421.309C520.473 420.801 519.809 420.547 518.949 420.547H435.395C434.535 420.547 433.852 420.801 433.344 421.309C432.875 421.777 432.641 422.441 432.641 423.301V496.309C432.641 497.168 432.875 497.832 433.344 498.301C433.852 498.809 434.535 499.062 435.395 499.062ZM469.203 467.188C468.812 467.188 468.539 467.031 468.383 466.719C468.266 466.367 468.285 466.035 468.441 465.723L476.059 452.305C476.371 451.758 476.742 451.484 477.172 451.484C477.641 451.484 478.012 451.758 478.285 452.305L485.902 465.723C486.098 466.035 486.117 466.367 485.961 466.719C485.805 467.031 485.531 467.188 485.141 467.188H469.203ZM498.148 460.801C495.531 460.801 493.129 460.156 490.941 458.867C488.793 457.578 487.074 455.859 485.785 453.711C484.496 451.523 483.852 449.121 483.852 446.504C483.852 443.887 484.496 441.504 485.785 439.355C487.074 437.207 488.793 435.488 490.941 434.199C493.129 432.91 495.531 432.266 498.148 432.266C500.766 432.266 503.148 432.91 505.297 434.199C507.484 435.488 509.223 437.207 510.512 439.355C511.801 441.504 512.445 443.887 512.445 446.504C512.445 449.121 511.801 451.523 510.512 453.711C509.223 455.859 507.504 457.578 505.355 458.867C503.207 460.156 500.805 460.801 498.148 460.801ZM498.148 454.941C500.492 454.941 502.484 454.121 504.125 452.48C505.766 450.84 506.586 448.848 506.586 446.504C506.586 444.199 505.746 442.227 504.066 440.586C502.426 438.945 500.453 438.125 498.148 438.125C495.844 438.125 493.852 438.945 492.172 440.586C490.531 442.227 489.711 444.199 489.711 446.504C489.711 448.848 490.531 450.84 492.172 452.48C493.812 454.121 495.805 454.941 498.148 454.941ZM473.656 417.324V407.305H480.688V417.324H473.656ZM525.219 489.395V482.949H531.254C532.113 482.949 532.777 482.715 533.246 482.246C533.754 481.738 534.008 481.055 534.008 480.195V439.59C534.008 438.73 533.754 438.066 533.246 437.598C532.777 437.09 532.113 436.836 531.254 436.836H525.219V430.391H531.254C534.184 430.391 536.449 431.055 538.051 432.383C539.652 433.672 540.453 435.488 540.453 437.832V481.953C540.453 484.297 539.652 486.113 538.051 487.402C536.449 488.73 534.184 489.395 531.254 489.395H525.219ZM477.172 410.234C474.633 410.234 472.309 409.609 470.199 408.359C468.09 407.109 466.41 405.43 465.16 403.32C463.91 401.211 463.285 398.887 463.285 396.348C463.285 393.77 463.91 391.445 465.16 389.375C466.41 387.266 468.09 385.586 470.199 384.336C472.309 383.086 474.633 382.461 477.172 382.461C479.75 382.461 482.074 383.086 484.145 384.336C486.254 385.586 487.934 387.266 489.184 389.375C490.434 391.445 491.059 393.75 491.059 396.289C491.059 398.867 490.434 401.211 489.184 403.32C487.934 405.43 486.254 407.109 484.145 408.359C482.035 409.609 479.711 410.234 477.172 410.234ZM477.172 404.375C479.398 404.375 481.293 403.594 482.855 402.031C484.418 400.469 485.199 398.574 485.199 396.348C485.199 394.121 484.418 392.227 482.855 390.664C481.293 389.102 479.398 388.32 477.172 388.32C474.945 388.32 473.051 389.102 471.488 390.664C469.926 392.227 469.145 394.121 469.145 396.348C469.145 398.574 469.926 400.469 471.488 402.031C473.051 403.594 474.945 404.375 477.172 404.375ZM477.172 399.688C478.07 399.688 478.852 399.355 479.516 398.691C480.18 398.027 480.512 397.246 480.512 396.348C480.512 395.449 480.18 394.668 479.516 394.004C478.852 393.34 478.07 393.008 477.172 393.008C476.273 393.008 475.492 393.34 474.828 394.004C474.164 394.668 473.832 395.449 473.832 396.348C473.832 397.246 474.164 398.027 474.828 398.691C475.492 399.355 476.273 399.688 477.172 399.688Z" fill="#854D0F"/>
</svg>
