<svg width="1132" height="445" viewBox="0 0 1132 445" fill="none" xmlns="http://www.w3.org/2000/svg">
<path d="M677 70.5C859.5 70.5 974.14 127.735 977 270.5" stroke="#172554" stroke-width="8" stroke-linecap="round"/>
<path d="M453 70C270.5 70 155.86 127.235 153 270" stroke="#172554" stroke-width="8" stroke-linecap="round"/>
<path d="M584.094 94.4805C578.234 94.4805 572.727 93.3867 567.57 91.1992C562.414 88.9727 557.883 85.9258 553.977 82.0586C550.109 78.1523 547.062 73.6211 544.836 68.4648C542.648 63.3086 541.555 57.8008 541.555 51.9414C541.555 46.082 542.648 40.5937 544.836 35.4766C547.062 30.3203 550.109 25.7891 553.977 21.8828C557.883 17.9766 562.414 14.9297 567.57 12.7422C572.727 10.5547 578.234 9.46094 584.094 9.46094C589.953 9.46094 595.441 10.5742 600.559 12.8008C605.715 14.9883 610.227 18.0352 614.094 21.9414C618 25.8086 621.047 30.3203 623.234 35.4766C625.461 40.5937 626.574 46.082 626.574 51.9414C626.574 57.8398 625.48 63.3672 623.293 68.5234C621.105 73.6406 618.059 78.1523 614.152 82.0586C610.246 85.9258 605.715 88.9727 600.559 91.1992C595.441 93.3867 589.953 94.4805 584.094 94.4805ZM608.527 67.4102C607.941 68.3477 607.18 68.8164 606.242 68.8164C605.539 68.8164 604.836 68.543 604.133 67.9961C603.43 67.4492 603.078 66.7461 603.078 65.8867C603.078 65.2227 603.273 64.6172 603.664 64.0703C604.875 62.3516 605.754 60.457 606.301 58.3867C606.848 56.3164 607.121 54.168 607.121 51.9414C607.121 48.543 606.418 45.3203 605.012 42.2734C603.605 39.2266 601.633 36.6289 599.094 34.4805C598.312 33.8164 597.922 33.0352 597.922 32.1367C597.922 31.3555 598.215 30.6523 598.801 30.0273C599.426 29.4023 600.109 29.0898 600.852 29.0898C601.555 29.0898 602.18 29.3437 602.727 29.8516C605.852 32.6641 608.332 35.9844 610.168 39.8125C612.043 43.6016 612.98 47.6445 612.98 51.9414C612.98 54.6758 612.59 57.3711 611.809 60.0273C611.066 62.6445 609.973 65.1055 608.527 67.4102ZM584.094 87.4492C589.016 87.4492 593.605 86.5312 597.863 84.6953C602.16 82.8594 605.93 80.3203 609.172 77.0781C612.414 73.7969 614.953 70.0273 616.789 65.7695C618.625 61.4727 619.543 56.8633 619.543 51.9414C619.543 47.0586 618.625 42.4687 616.789 38.1719C614.953 33.875 612.414 30.1055 609.172 26.8633C605.93 23.6211 602.16 21.082 597.863 19.2461C593.566 17.4102 588.977 16.4922 584.094 16.4922C579.172 16.4922 574.562 17.4102 570.266 19.2461C566.008 21.082 562.238 23.6211 558.957 26.8633C555.715 30.1055 553.176 33.875 551.34 38.1719C549.504 42.4687 548.586 47.0586 548.586 51.9414C548.586 56.8633 549.504 61.4727 551.34 65.7695C553.176 70.0273 555.715 73.7969 558.957 77.0781C562.238 80.3203 566.008 82.8594 570.266 84.6953C574.562 86.5312 579.172 87.4492 584.094 87.4492ZM550.93 91.9609L542.258 83.1719L551.398 74.207L560.07 83.1133L550.93 91.9609ZM515.07 132.508C512.883 132.508 510.773 131.844 508.742 130.516C506.711 129.227 505.031 127.566 503.703 125.535C502.414 123.504 501.77 121.395 501.77 119.207C501.77 116.16 502.961 113.445 505.344 111.062L532.707 83.6992C535.09 81.3164 537.785 80.125 540.793 80.125C543.02 80.125 545.148 80.7695 547.18 82.0586C549.211 83.3477 550.871 85.0078 552.16 87.0391C553.449 89.0312 554.094 91.1211 554.094 93.3086C554.094 96.3945 552.902 99.1289 550.52 101.512L523.273 128.816C520.812 131.277 518.078 132.508 515.07 132.508ZM515.07 125.477C516.203 125.477 517.297 124.949 518.352 123.895L545.48 96.5898C546.535 95.5352 547.062 94.4414 547.062 93.3086C547.062 92.4102 546.73 91.4922 546.066 90.5547C545.402 89.6172 544.582 88.8164 543.605 88.1523C542.629 87.4883 541.691 87.1562 540.793 87.1562C539.66 87.1562 538.605 87.6445 537.629 88.6211L510.383 115.984C509.328 117.039 508.801 118.113 508.801 119.207C508.801 120.105 509.133 121.043 509.797 122.02C510.461 122.996 511.281 123.816 512.258 124.48C513.234 125.145 514.172 125.477 515.07 125.477ZM593.527 29.5C592.863 29.5 592.219 29.3242 591.594 28.9727C591.281 28.7773 590.93 28.6016 590.539 28.4453C590.188 28.25 589.836 28.0742 589.484 27.918C588.078 27.332 587.375 26.4141 587.375 25.1641C587.375 24.2266 587.668 23.5039 588.254 22.9961C588.84 22.4883 589.523 22.2344 590.305 22.2344C590.578 22.2344 590.988 22.3125 591.535 22.4688C592.16 22.625 592.727 22.8594 593.234 23.1719C593.781 23.4453 594.289 23.7383 594.758 24.0508C595.812 24.7148 596.34 25.5742 596.34 26.6289C596.34 27.332 596.086 27.9961 595.578 28.6211C595.07 29.207 594.387 29.5 593.527 29.5Z" fill="#172554"/>
<path d="M902.938 436.508C884.266 436.508 870.457 433.559 861.512 427.66C852.566 421.762 848.094 412.641 848.094 400.297C848.094 393.539 849.344 387.191 851.844 381.254C854.344 375.316 857.898 369.984 862.508 365.258C867.117 360.492 872.605 356.508 878.973 353.305C885.379 350.102 892.488 347.855 900.301 346.566C900.301 344.652 901.258 343.148 903.172 342.055C905.125 340.961 907.742 340.414 911.023 340.414C913.484 340.414 916.043 340.746 918.699 341.41C921.355 342.035 923.816 342.934 926.082 344.105C928.348 345.277 930.184 346.664 931.59 348.266C932.996 349.828 933.699 351.547 933.699 353.422C933.699 354.125 933.504 354.809 933.113 355.473C936.277 358.441 938.816 362.191 940.73 366.723C942.684 371.215 943.855 376.156 944.246 381.547C948.855 385.102 952.332 389.086 954.676 393.5C957.059 397.914 958.25 402.484 958.25 407.211C958.25 413.5 956.102 418.812 951.805 423.148C947.547 427.523 941.297 430.844 933.055 433.109C924.852 435.375 914.812 436.508 902.938 436.508ZM892.566 422.094L885.828 420.16C886.375 418.402 886.961 416.566 887.586 414.652C888.211 412.699 888.934 410.512 889.754 408.09L896.434 410.199C895.848 411.762 895.242 413.5 894.617 415.414C894.031 417.289 893.348 419.516 892.566 422.094ZM899.305 414.594C895.594 414.594 892.215 413.852 889.168 412.367C886.16 410.883 883.777 408.891 882.02 406.391C880.262 403.852 879.383 401.02 879.383 397.895H887.586C887.586 400.668 888.738 402.973 891.043 404.809C893.348 406.645 896.043 407.562 899.129 407.562C901.512 407.562 903.348 407.016 904.637 405.922C905.926 404.789 906.57 403.324 906.57 401.527C906.57 399.887 905.945 398.344 904.695 396.898C903.445 395.414 901.414 393.832 898.602 392.152L897.254 391.332C893.152 388.832 890.359 386.605 888.875 384.652C887.391 382.699 886.648 380.531 886.648 378.148C886.648 374.32 888.035 371.293 890.809 369.066C893.582 366.801 897.215 365.668 901.707 365.668C905.066 365.668 908.133 366.293 910.906 367.543C913.719 368.754 916.023 370.414 917.82 372.523C919.656 374.633 920.77 377.035 921.16 379.73L913.074 381.137L912.781 379.848C912.273 377.66 911.043 375.922 909.09 374.633C907.176 373.344 904.832 372.699 902.059 372.699C899.91 372.699 898.113 373.129 896.668 373.988C895.262 374.809 894.559 376.059 894.559 377.738C894.559 378.91 895.066 380.102 896.082 381.312C897.098 382.523 899.031 384.027 901.883 385.824L905.516 388.109C908.797 390.18 911.102 392.289 912.43 394.438C913.797 396.586 914.48 398.949 914.48 401.527C914.48 405.473 913.133 408.637 910.438 411.02C907.742 413.402 904.031 414.594 899.305 414.594ZM902.938 429.77C913.133 429.77 921.824 428.891 929.012 427.133C936.238 425.375 941.746 422.816 945.535 419.457C949.363 416.098 951.277 412.016 951.277 407.211C951.277 403.695 950.32 400.16 948.406 396.605C946.492 393.051 943.836 389.848 940.438 386.996C937.039 384.105 933.113 381.977 928.66 380.609L930.301 374.867C931.512 375.258 932.664 375.668 933.758 376.098C934.852 376.527 935.887 376.996 936.863 377.504C935.262 369.34 931.863 363.168 926.668 358.988C921.512 354.809 914.695 352.719 906.219 352.719C901.688 352.719 897.195 353.363 892.742 354.652C888.328 355.941 883.973 357.738 879.676 360.043C874.676 362.738 870.34 366.215 866.668 370.473C862.996 374.691 860.145 379.379 858.113 384.535C856.121 389.652 855.125 394.906 855.125 400.297C855.125 410.492 859.031 417.953 866.844 422.68C874.695 427.406 886.727 429.77 902.938 429.77ZM910.848 371.234L903.875 369.066C904.305 367.699 904.793 366.254 905.34 364.73C905.926 363.207 906.648 361.43 907.508 359.398L914.246 361.742C913.699 363.07 913.152 364.477 912.605 365.961C912.098 367.445 911.512 369.203 910.848 371.234ZM902.117 345.16C901.141 342.973 900.32 340.727 899.656 338.422C899.031 336.078 898.719 333.695 898.719 331.273C898.719 327.445 899.715 324.086 901.707 321.195C903.738 318.266 906.844 316.801 911.023 316.801C913.211 316.801 915.242 317.328 917.117 318.383C918.992 319.438 920.652 320.766 922.098 322.367L916.941 326.586C915.848 325.414 914.812 324.574 913.836 324.066C912.859 323.52 911.883 323.246 910.906 323.246C909.344 323.246 908.074 324.027 907.098 325.59C906.121 327.113 905.633 329.008 905.633 331.273C905.633 333.227 905.926 335.141 906.512 337.016C907.137 338.891 907.82 340.707 908.562 342.465L902.117 345.16ZM929.598 354.066L928.367 347.621C933.25 346.723 937.156 345.531 940.086 344.047C943.016 342.562 944.48 340.824 944.48 338.832C944.48 337.465 943.934 336.156 942.84 334.906C941.746 333.656 940.652 332.895 939.559 332.621C939.91 331.723 940.184 330.746 940.379 329.691C940.613 328.637 940.73 327.621 940.73 326.645C940.73 324.809 940.066 323.227 938.738 321.898C937.449 320.57 935.633 319.906 933.289 319.906C931.102 319.906 929.109 320.473 927.312 321.605C925.516 322.738 923.934 324.418 922.566 326.645C921.199 328.871 920.047 331.605 919.109 334.848L913.191 332.973C914.129 329.027 915.496 325.59 917.293 322.66C919.129 319.73 921.375 317.465 924.031 315.863C926.688 314.262 929.715 313.461 933.113 313.461C936.941 313.461 940.262 314.477 943.074 316.508C945.887 318.539 947.293 321.352 947.293 324.945C947.293 325.805 947.215 326.703 947.059 327.641C946.902 328.539 946.668 329.242 946.355 329.75C947.957 330.844 949.188 332.289 950.047 334.086C950.906 335.844 951.336 337.582 951.336 339.301C951.336 342.973 949.441 346.039 945.652 348.5C941.863 350.922 936.512 352.777 929.598 354.066ZM1015.44 390.805C1010.59 390.805 1006.69 389.301 1003.72 386.293C1000.75 383.285 999.266 379.184 999.266 373.988C999.266 370.941 999.754 368.07 1000.73 365.375C1001.71 362.68 1002.8 360.414 1004.01 358.578C1004.6 357.68 1005.09 356.586 1005.48 355.297C1005.87 353.969 1006.12 352.562 1006.24 351.078C1006.43 349.008 1006.79 346.898 1007.29 344.75C1007.84 342.562 1008.84 340.668 1010.28 339.066C1011.45 337.738 1012.45 336.781 1013.27 336.195C1014.13 335.57 1014.91 335.004 1015.61 334.496C1016.36 333.988 1017.12 333.188 1017.9 332.094C1018.52 331.234 1019.21 330.004 1019.95 328.402C1020.69 326.762 1021.71 325.043 1023 323.246C1024.29 321.41 1026.08 319.77 1028.39 318.324C1031.12 316.605 1033.72 315.395 1036.18 314.691C1038.64 313.988 1041.26 313.637 1044.03 313.637C1046.73 313.637 1048.82 313.812 1050.3 314.164C1051.82 314.477 1053.07 314.789 1054.05 315.102C1055.03 315.414 1056.1 315.57 1057.27 315.57C1058.6 315.57 1060.11 315.219 1061.79 314.516C1063.46 313.812 1065.79 313.461 1068.76 313.461C1072.08 313.461 1075.22 314.125 1078.19 315.453C1081.2 316.781 1083.97 318.812 1086.51 321.547C1088.27 323.422 1089.64 325.219 1090.61 326.938C1091.59 328.617 1092.53 330.18 1093.43 331.625C1094.32 333.07 1095.54 334.398 1097.06 335.609C1099.52 337.523 1101.28 339.418 1102.33 341.293C1103.43 343.129 1103.97 345.258 1103.97 347.68C1103.97 350.414 1104.32 352.602 1105.03 354.242C1105.73 355.883 1106.51 357.387 1107.37 358.754C1108.43 360.395 1109.42 362.348 1110.36 364.613C1111.3 366.879 1111.77 370.258 1111.77 374.75C1111.77 379.164 1110.28 382.621 1107.31 385.121C1104.34 387.621 1100.38 388.871 1095.42 388.871C1084.91 388.871 1079.66 383.754 1079.66 373.52C1079.66 371.801 1079.85 370.141 1080.24 368.539C1080.63 366.938 1080.83 365.102 1080.83 363.031C1080.83 358.07 1079.68 355.102 1077.37 354.125C1072.37 352.055 1069.07 348.559 1067.47 343.637C1064.27 345.863 1060.5 346.977 1056.16 346.977C1054.83 346.977 1053.6 346.918 1052.47 346.801C1051.38 346.645 1050.38 346.566 1049.48 346.566C1048.46 346.566 1047.72 346.723 1047.25 347.035C1046.79 347.348 1046.41 347.973 1046.14 348.91C1045.44 351.371 1044.03 353.637 1041.92 355.707C1039.85 357.777 1037.53 359.457 1034.95 360.746C1033.19 361.605 1032 362.816 1031.38 364.379C1030.79 365.902 1030.5 367.895 1030.5 370.355C1030.5 371.02 1030.54 372.016 1030.61 373.344C1030.73 374.672 1030.79 375.785 1030.79 376.684C1030.79 381.098 1029.42 384.555 1026.69 387.055C1023.99 389.555 1020.24 390.805 1015.44 390.805ZM1056.51 436.508C1043.07 436.508 1033.09 434.711 1026.57 431.117C1020.05 427.523 1016.45 422.484 1015.79 416C1015.48 412.875 1015.22 409.887 1015.03 407.035C1014.83 404.145 1014.68 401.098 1014.56 397.895C1014.44 394.691 1014.36 391.02 1014.32 386.879H1021.36C1021.43 393.051 1021.57 398.246 1021.77 402.465C1021.96 406.684 1022.31 411 1022.82 415.414C1023.13 418.148 1024.44 420.57 1026.75 422.68C1029.05 424.789 1032.62 426.449 1037.47 427.66C1042.31 428.871 1048.66 429.477 1056.51 429.477C1064.05 429.477 1070.48 428.852 1075.79 427.602C1081.14 426.352 1085.22 424.672 1088.04 422.562C1090.89 420.453 1092.31 418.148 1092.31 415.648C1092.31 414.75 1092.16 413.832 1091.84 412.895C1091.57 411.918 1091.18 410.922 1090.67 409.906C1090.05 408.656 1089.5 407.309 1089.03 405.863C1088.6 404.418 1088.39 402.855 1088.39 401.176C1088.39 398.676 1088.52 396.156 1088.8 393.617C1089.07 391.078 1089.4 388.5 1089.79 385.883H1096.82C1096.43 388.5 1096.1 391.078 1095.83 393.617C1095.55 396.156 1095.42 398.676 1095.42 401.176C1095.42 402.934 1095.63 404.457 1096.06 405.746C1096.49 406.996 1096.98 408.188 1097.53 409.32C1098.04 410.297 1098.46 411.293 1098.82 412.309C1099.17 413.285 1099.34 414.398 1099.34 415.648C1099.34 419.828 1097.62 423.48 1094.19 426.605C1090.79 429.73 1085.89 432.152 1079.48 433.871C1073.11 435.629 1065.46 436.508 1056.51 436.508ZM1032.14 392.211C1032.14 389.477 1032.68 387.152 1033.78 385.238C1034.87 383.324 1036.38 381.703 1038.29 380.375L1040.46 383.129C1038.89 384.184 1037.7 385.414 1036.88 386.82C1036.06 388.227 1035.65 390.023 1035.65 392.211H1032.14ZM1055.57 396.254C1052.49 396.254 1049.6 395.707 1046.9 394.613C1044.25 393.48 1041.84 391.781 1039.7 389.516L1043.8 385.883C1045.48 387.562 1047.27 388.793 1049.19 389.574C1051.1 390.316 1053.23 390.688 1055.57 390.688C1057.92 390.688 1060.05 390.316 1061.96 389.574C1063.88 388.793 1065.67 387.562 1067.35 385.883L1071.45 389.516C1069.3 391.781 1066.88 393.48 1064.19 394.613C1061.53 395.707 1058.66 396.254 1055.57 396.254ZM1039.7 378.207C1038.05 378.207 1036.69 377.602 1035.59 376.391C1034.54 375.141 1034.01 373.676 1034.01 371.996C1034.01 370.277 1034.54 368.812 1035.59 367.602C1036.69 366.391 1038.05 365.785 1039.7 365.785C1041.34 365.785 1042.68 366.391 1043.74 367.602C1044.83 368.812 1045.38 370.277 1045.38 371.996C1045.38 373.676 1044.83 375.141 1043.74 376.391C1042.68 377.602 1041.34 378.207 1039.7 378.207ZM1075.5 392.211C1075.5 390.023 1075.09 388.227 1074.27 386.82C1073.45 385.414 1072.25 384.184 1070.69 383.129L1072.86 380.375C1074.81 381.703 1076.32 383.324 1077.37 385.238C1078.46 387.152 1079.01 389.477 1079.01 392.211H1075.5ZM1070.69 378.207C1069.05 378.207 1067.68 377.602 1066.59 376.391C1065.54 375.141 1065.01 373.676 1065.01 371.996C1065.01 370.277 1065.54 368.812 1066.59 367.602C1067.68 366.391 1069.05 365.785 1070.69 365.785C1072.33 365.785 1073.68 366.391 1074.73 367.602C1075.83 368.812 1076.38 370.277 1076.38 371.996C1076.38 373.676 1075.83 375.141 1074.73 376.391C1073.68 377.602 1072.33 378.207 1070.69 378.207ZM1015.44 384.359C1021.38 384.359 1024.34 381.801 1024.34 376.684C1024.34 375.785 1024.29 374.77 1024.17 373.637C1024.09 372.504 1024.05 371.41 1024.05 370.355C1024.05 362.855 1026.73 357.719 1032.08 354.945C1036.38 352.719 1038.99 350.062 1039.93 346.977C1040.63 344.711 1041.71 343.012 1043.15 341.879C1044.64 340.707 1046.75 340.121 1049.48 340.121C1050.38 340.121 1051.53 340.199 1052.94 340.355C1054.34 340.473 1055.42 340.531 1056.16 340.531C1058.27 340.531 1060.46 340.082 1062.72 339.184C1064.99 338.285 1067.78 336.723 1071.1 334.496C1071.77 337.934 1072.84 340.863 1074.32 343.285C1075.85 345.668 1077.68 347.289 1079.83 348.148C1082.25 349.125 1084.11 350.922 1085.4 353.539C1086.69 356.156 1087.33 359.32 1087.33 363.031C1087.33 365.18 1087.14 367.211 1086.75 369.125C1086.36 371.039 1086.16 372.504 1086.16 373.52C1086.16 376.723 1086.84 379.008 1088.21 380.375C1089.62 381.703 1092.02 382.367 1095.42 382.367C1102.02 382.367 1105.32 379.828 1105.32 374.75C1105.32 371.859 1104.97 369.516 1104.27 367.719C1103.56 365.922 1102.7 364.262 1101.69 362.738C1100.55 360.98 1099.58 359.008 1098.76 356.82C1097.94 354.633 1097.53 351.586 1097.53 347.68C1097.53 346.312 1097.2 345.141 1096.53 344.164C1095.91 343.148 1094.75 341.977 1093.07 340.648C1091.24 339.164 1089.71 337.543 1088.5 335.785C1087.29 334.027 1086.18 332.289 1085.16 330.57C1084.19 328.852 1083.07 327.328 1081.82 326C1079.87 323.891 1077.82 322.348 1075.67 321.371C1073.56 320.395 1071.26 319.906 1068.76 319.906C1066.96 319.906 1065.48 320.082 1064.3 320.434C1063.17 320.785 1062.08 321.156 1061.02 321.547C1060.01 321.898 1058.76 322.074 1057.27 322.074C1055.79 322.074 1054.44 321.918 1053.23 321.605C1052.06 321.254 1050.77 320.922 1049.36 320.609C1047.96 320.258 1046.18 320.082 1044.03 320.082C1041.77 320.082 1039.71 320.355 1037.88 320.902C1036.04 321.41 1033.93 322.426 1031.55 323.949C1029.91 325.004 1028.66 326.215 1027.8 327.582C1026.94 328.91 1026.18 330.297 1025.52 331.742C1024.89 333.148 1024.07 334.535 1023.05 335.902C1022.08 337.191 1021.12 338.227 1020.18 339.008C1019.25 339.789 1018.33 340.512 1017.43 341.176C1016.53 341.84 1015.67 342.66 1014.85 343.637C1014.07 344.574 1013.5 345.922 1013.15 347.68C1012.84 349.438 1012.59 351.605 1012.39 354.184C1012.27 355.785 1011.86 357.309 1011.16 358.754C1010.5 360.16 1009.95 361.234 1009.52 361.977C1008.5 363.656 1007.61 365.531 1006.82 367.602C1006.08 369.672 1005.71 371.801 1005.71 373.988C1005.71 377.348 1006.59 379.926 1008.35 381.723C1010.11 383.48 1012.47 384.359 1015.44 384.359Z" fill="#172554"/>
<path d="M75.9375 436.508C57.2656 436.508 43.457 433.559 34.5117 427.66C25.5664 421.762 21.0938 412.641 21.0938 400.297C21.0938 393.539 22.3438 387.191 24.8438 381.254C27.3438 375.316 30.8984 369.984 35.5078 365.258C40.1172 360.492 45.6055 356.508 51.9727 353.305C58.3789 350.102 65.4883 347.855 73.3008 346.566C73.3008 344.652 74.2578 343.148 76.1719 342.055C78.125 340.961 80.7422 340.414 84.0234 340.414C86.4844 340.414 89.043 340.746 91.6992 341.41C94.3555 342.035 96.8164 342.934 99.082 344.105C101.348 345.277 103.184 346.664 104.59 348.266C105.996 349.828 106.699 351.547 106.699 353.422C106.699 354.125 106.504 354.809 106.113 355.473C109.277 358.441 111.816 362.191 113.73 366.723C115.684 371.215 116.855 376.156 117.246 381.547C121.855 385.102 125.332 389.086 127.676 393.5C130.059 397.914 131.25 402.484 131.25 407.211C131.25 413.5 129.102 418.812 124.805 423.148C120.547 427.523 114.297 430.844 106.055 433.109C97.8516 435.375 87.8125 436.508 75.9375 436.508ZM65.5664 422.094L58.8281 420.16C59.375 418.402 59.9609 416.566 60.5859 414.652C61.2109 412.699 61.9336 410.512 62.7539 408.09L69.4336 410.199C68.8477 411.762 68.2422 413.5 67.6172 415.414C67.0312 417.289 66.3477 419.516 65.5664 422.094ZM72.3047 414.594C68.5938 414.594 65.2148 413.852 62.168 412.367C59.1602 410.883 56.7773 408.891 55.0195 406.391C53.2617 403.852 52.3828 401.02 52.3828 397.895H60.5859C60.5859 400.668 61.7383 402.973 64.043 404.809C66.3477 406.645 69.043 407.562 72.1289 407.562C74.5117 407.562 76.3477 407.016 77.6367 405.922C78.9258 404.789 79.5703 403.324 79.5703 401.527C79.5703 399.887 78.9453 398.344 77.6953 396.898C76.4453 395.414 74.4141 393.832 71.6016 392.152L70.2539 391.332C66.1523 388.832 63.3594 386.605 61.875 384.652C60.3906 382.699 59.6484 380.531 59.6484 378.148C59.6484 374.32 61.0352 371.293 63.8086 369.066C66.582 366.801 70.2148 365.668 74.707 365.668C78.0664 365.668 81.1328 366.293 83.9062 367.543C86.7188 368.754 89.0234 370.414 90.8203 372.523C92.6562 374.633 93.7695 377.035 94.1602 379.73L86.0742 381.137L85.7812 379.848C85.2734 377.66 84.043 375.922 82.0898 374.633C80.1758 373.344 77.832 372.699 75.0586 372.699C72.9102 372.699 71.1133 373.129 69.668 373.988C68.2617 374.809 67.5586 376.059 67.5586 377.738C67.5586 378.91 68.0664 380.102 69.082 381.312C70.0977 382.523 72.0312 384.027 74.8828 385.824L78.5156 388.109C81.7969 390.18 84.1016 392.289 85.4297 394.438C86.7969 396.586 87.4805 398.949 87.4805 401.527C87.4805 405.473 86.1328 408.637 83.4375 411.02C80.7422 413.402 77.0312 414.594 72.3047 414.594ZM75.9375 429.77C86.1328 429.77 94.8242 428.891 102.012 427.133C109.238 425.375 114.746 422.816 118.535 419.457C122.363 416.098 124.277 412.016 124.277 407.211C124.277 403.695 123.32 400.16 121.406 396.605C119.492 393.051 116.836 389.848 113.438 386.996C110.039 384.105 106.113 381.977 101.66 380.609L103.301 374.867C104.512 375.258 105.664 375.668 106.758 376.098C107.852 376.527 108.887 376.996 109.863 377.504C108.262 369.34 104.863 363.168 99.668 358.988C94.5117 354.809 87.6953 352.719 79.2188 352.719C74.6875 352.719 70.1953 353.363 65.7422 354.652C61.3281 355.941 56.9727 357.738 52.6758 360.043C47.6758 362.738 43.3398 366.215 39.668 370.473C35.9961 374.691 33.1445 379.379 31.1133 384.535C29.1211 389.652 28.125 394.906 28.125 400.297C28.125 410.492 32.0312 417.953 39.8438 422.68C47.6953 427.406 59.7266 429.77 75.9375 429.77ZM83.8477 371.234L76.875 369.066C77.3047 367.699 77.793 366.254 78.3398 364.73C78.9258 363.207 79.6484 361.43 80.5078 359.398L87.2461 361.742C86.6992 363.07 86.1523 364.477 85.6055 365.961C85.0977 367.445 84.5117 369.203 83.8477 371.234ZM75.1172 345.16C74.1406 342.973 73.3203 340.727 72.6562 338.422C72.0312 336.078 71.7188 333.695 71.7188 331.273C71.7188 327.445 72.7148 324.086 74.707 321.195C76.7383 318.266 79.8438 316.801 84.0234 316.801C86.2109 316.801 88.2422 317.328 90.1172 318.383C91.9922 319.438 93.6523 320.766 95.0977 322.367L89.9414 326.586C88.8477 325.414 87.8125 324.574 86.8359 324.066C85.8594 323.52 84.8828 323.246 83.9062 323.246C82.3438 323.246 81.0742 324.027 80.0977 325.59C79.1211 327.113 78.6328 329.008 78.6328 331.273C78.6328 333.227 78.9258 335.141 79.5117 337.016C80.1367 338.891 80.8203 340.707 81.5625 342.465L75.1172 345.16ZM102.598 354.066L101.367 347.621C106.25 346.723 110.156 345.531 113.086 344.047C116.016 342.562 117.48 340.824 117.48 338.832C117.48 337.465 116.934 336.156 115.84 334.906C114.746 333.656 113.652 332.895 112.559 332.621C112.91 331.723 113.184 330.746 113.379 329.691C113.613 328.637 113.73 327.621 113.73 326.645C113.73 324.809 113.066 323.227 111.738 321.898C110.449 320.57 108.633 319.906 106.289 319.906C104.102 319.906 102.109 320.473 100.312 321.605C98.5156 322.738 96.9336 324.418 95.5664 326.645C94.1992 328.871 93.0469 331.605 92.1094 334.848L86.1914 332.973C87.1289 329.027 88.4961 325.59 90.293 322.66C92.1289 319.73 94.375 317.465 97.0312 315.863C99.6875 314.262 102.715 313.461 106.113 313.461C109.941 313.461 113.262 314.477 116.074 316.508C118.887 318.539 120.293 321.352 120.293 324.945C120.293 325.805 120.215 326.703 120.059 327.641C119.902 328.539 119.668 329.242 119.355 329.75C120.957 330.844 122.188 332.289 123.047 334.086C123.906 335.844 124.336 337.582 124.336 339.301C124.336 342.973 122.441 346.039 118.652 348.5C114.863 350.922 109.512 352.777 102.598 354.066ZM225.586 436.508C213.828 436.508 204.531 434.711 197.695 431.117C190.859 427.523 187.109 422.484 186.445 416C186.094 412.719 185.82 409.555 185.625 406.508C185.43 403.461 185.273 400.219 185.156 396.781C185.078 393.305 185.02 389.32 184.98 384.828C184.941 380.297 184.922 374.906 184.922 368.656H191.953C191.953 374.867 191.953 380.238 191.953 384.77C191.992 389.262 192.07 393.246 192.188 396.723C192.305 400.16 192.461 403.363 192.656 406.332C192.852 409.262 193.125 412.289 193.477 415.414C193.945 419.516 196.953 422.875 202.5 425.492C208.086 428.148 215.781 429.477 225.586 429.477C239.727 429.477 250.176 428.109 256.934 425.375C263.691 422.68 267.07 419.438 267.07 415.648C267.07 414.75 266.914 413.832 266.602 412.895C266.328 411.918 265.938 410.922 265.43 409.906C264.805 408.656 264.258 407.309 263.789 405.863C263.359 404.418 263.145 402.855 263.145 401.176C263.145 397.738 263.379 394.281 263.848 390.805C264.316 387.328 264.844 383.715 265.43 379.965C266.016 376.215 266.465 372.25 266.777 368.07H273.809C273.496 372.25 273.047 376.215 272.461 379.965C271.875 383.715 271.348 387.328 270.879 390.805C270.41 394.281 270.176 397.738 270.176 401.176C270.176 402.934 270.391 404.457 270.82 405.746C271.25 406.996 271.738 408.188 272.285 409.32C272.793 410.297 273.223 411.293 273.574 412.309C273.926 413.285 274.102 414.398 274.102 415.648C274.102 421.898 270.078 426.938 262.031 430.766C253.984 434.594 241.836 436.508 225.586 436.508ZM203.379 389.281C203.379 386.547 203.926 384.223 205.02 382.309C206.113 380.395 207.617 378.773 209.531 377.445L211.699 380.199C210.137 381.254 208.945 382.484 208.125 383.891C207.305 385.297 206.895 387.094 206.895 389.281H203.379ZM227.988 393.324C224.668 393.324 221.562 392.68 218.672 391.391C215.781 390.062 213.223 388.051 210.996 385.355L215.156 381.723C216.953 383.871 218.887 385.414 220.957 386.352C223.027 387.289 225.371 387.758 227.988 387.758C230.605 387.758 232.949 387.289 235.02 386.352C237.09 385.414 239.023 383.871 240.82 381.723L244.98 385.355C242.754 388.051 240.195 390.062 237.305 391.391C234.453 392.68 231.348 393.324 227.988 393.324ZM212.109 373.52C210.469 373.52 209.102 372.914 208.008 371.703C206.953 370.453 206.426 368.988 206.426 367.309C206.426 365.59 206.953 364.125 208.008 362.914C209.102 361.703 210.469 361.098 212.109 361.098C213.75 361.098 215.098 361.703 216.152 362.914C217.246 364.125 217.793 365.59 217.793 367.309C217.793 368.988 217.246 370.453 216.152 371.703C215.098 372.914 213.75 373.52 212.109 373.52ZM249.082 389.281C249.082 387.094 248.672 385.297 247.852 383.891C247.031 382.484 245.84 381.254 244.277 380.199L246.445 377.445C248.398 378.773 249.902 380.395 250.957 382.309C252.051 384.223 252.598 386.547 252.598 389.281H249.082ZM244.277 373.52C242.637 373.52 241.27 372.914 240.176 371.703C239.121 370.453 238.594 368.988 238.594 367.309C238.594 365.59 239.121 364.125 240.176 362.914C241.27 361.703 242.637 361.098 244.277 361.098C245.918 361.098 247.266 361.703 248.32 362.914C249.414 364.125 249.961 365.59 249.961 367.309C249.961 368.988 249.414 370.453 248.32 371.703C247.266 372.914 245.918 373.52 244.277 373.52ZM185.156 375.805C183.945 372.719 183.047 369.652 182.461 366.605C181.914 363.559 181.641 360.57 181.641 357.641C181.641 351.547 182.773 345.844 185.039 340.531C187.305 335.18 190.508 330.492 194.648 326.469C198.828 322.406 203.77 319.223 209.473 316.918C215.215 314.613 221.543 313.461 228.457 313.461C235.332 313.461 241.621 314.613 247.324 316.918C253.066 319.184 258.027 322.348 262.207 326.41C266.387 330.434 269.629 335.121 271.934 340.473C274.238 345.785 275.391 351.488 275.391 357.582C275.391 360.199 275.137 362.875 274.629 365.609C274.16 368.344 273.438 371.098 272.461 373.871H267.949C264.785 372.074 261.719 369.418 258.75 365.902C255.781 362.387 253.145 358.461 250.84 354.125C248.574 349.75 246.836 345.434 245.625 341.176C241.836 344.223 237.891 346.488 233.789 347.973C229.727 349.418 225.684 350.707 221.66 351.84C217.48 353.012 213.438 354.359 209.531 355.883C205.625 357.406 202.031 359.691 198.75 362.738C195.469 365.746 192.637 370.102 190.254 375.805H185.156ZM188.965 364.965C191.738 360.902 194.766 357.68 198.047 355.297C201.328 352.875 204.785 350.961 208.418 349.555C212.051 348.109 215.723 346.84 219.434 345.746C222.754 344.77 226.016 343.695 229.219 342.523C232.461 341.352 235.723 339.906 239.004 338.188C242.324 336.469 245.762 334.281 249.316 331.625C250.176 335.766 251.543 340.062 253.418 344.516C255.332 348.93 257.52 353.031 259.98 356.82C262.48 360.57 265 363.559 267.539 365.785C267.891 364.418 268.164 363.07 268.359 361.742C268.555 360.414 268.652 359.105 268.652 357.816C268.652 352.543 267.656 347.66 265.664 343.168C263.711 338.637 260.938 334.672 257.344 331.273C253.75 327.875 249.492 325.238 244.57 323.363C239.688 321.449 234.316 320.492 228.457 320.492C222.598 320.492 217.227 321.43 212.344 323.305C207.461 325.18 203.223 327.816 199.629 331.215C196.074 334.574 193.301 338.5 191.309 342.992C189.355 347.484 188.379 352.367 188.379 357.641C188.379 358.734 188.438 359.945 188.555 361.273C188.672 362.602 188.809 363.832 188.965 364.965Z" fill="#172554"/>
</svg>
