<svg width="918" height="443" viewBox="0 0 918 443" fill="none" xmlns="http://www.w3.org/2000/svg">
  <path d="M76.1719 266.758C67.2656 266.758 59.0234 265.215 51.4453 262.129C43.9062 259.082 37.3438 254.785 31.7578 249.238C26.1719 243.691 21.8164 237.188 18.6914 229.727C15.6055 222.227 14.0625 214.062 14.0625 205.234C14.0625 196.406 15.6055 188.262 18.6914 180.801C21.8164 173.301 26.1719 166.777 31.7578 161.23C37.3438 155.684 43.9062 151.387 51.4453 148.34C59.0234 145.254 67.2656 143.711 76.1719 143.711C85.0781 143.711 93.3008 145.254 100.84 148.34C108.418 151.387 115 155.684 120.586 161.23C126.172 166.777 130.508 173.301 133.594 180.801C136.719 188.262 138.281 196.406 138.281 205.234C138.281 214.062 136.719 222.227 133.594 229.727C130.508 237.188 126.172 243.691 120.586 249.238C115 254.785 108.418 259.082 100.84 262.129C93.3008 265.215 85.0781 266.758 76.1719 266.758ZM76.1719 243.203C82.0312 243.203 87.5 242.148 92.5781 240.039C86.9922 236.797 81.5234 235.176 76.1719 235.176C70.8203 235.176 65.3516 236.797 59.7656 240.039C64.8438 242.148 70.3125 243.203 76.1719 243.203ZM76.1719 247.305C71.0938 247.305 66.1133 246.484 61.2305 244.844C56.3867 243.203 52.0117 241.016 48.1055 238.281C44.1992 235.508 41.0742 232.461 38.7305 229.141C36.4258 225.82 35.2734 222.48 35.2734 219.121C35.2734 217.051 35.7422 215.605 36.6797 214.785C37.6172 213.926 38.8672 213.496 40.4297 213.496C41.4062 213.496 42.6367 213.613 44.1211 213.848C45.6445 214.082 47.3828 214.395 49.3359 214.785C52.8125 215.449 56.8555 216.094 61.4648 216.719C66.0742 217.305 70.9766 217.598 76.1719 217.598C81.4062 217.598 86.3281 217.305 90.9375 216.719C95.5469 216.094 99.5703 215.449 103.008 214.785C104.961 214.395 106.68 214.082 108.164 213.848C109.688 213.613 110.938 213.496 111.914 213.496C113.477 213.496 114.727 213.926 115.664 214.785C116.602 215.605 117.07 217.051 117.07 219.121C117.07 222.48 115.898 225.82 113.555 229.141C111.25 232.461 108.145 235.508 104.238 238.281C100.332 241.016 95.9375 243.203 91.0547 244.844C86.2109 246.484 81.25 247.305 76.1719 247.305ZM76.1719 227.559C79.8438 227.559 83.7695 227.422 87.9492 227.148C92.1289 226.836 96.3086 226.367 100.488 225.742C104.668 225.078 108.574 224.258 112.207 223.281V219.121C112.207 218.535 111.973 218.164 111.504 218.008C111.035 217.812 110.547 217.773 110.039 217.891C106.719 218.672 103.047 219.355 99.0234 219.941C95.0391 220.488 91.0547 220.918 87.0703 221.23C83.125 221.543 79.4922 221.699 76.1719 221.699C72.8906 221.699 69.2578 221.543 65.2734 221.23C61.2891 220.918 57.3047 220.488 53.3203 219.941C49.3359 219.355 45.6641 218.672 42.3047 217.891C41.7969 217.773 41.3086 217.812 40.8398 218.008C40.3711 218.164 40.1367 218.535 40.1367 219.121V223.281C43.7695 224.258 47.6758 225.078 51.8555 225.742C56.0352 226.367 60.2148 226.836 64.3945 227.148C68.6133 227.422 72.5391 227.559 76.1719 227.559ZM55.5469 202.012C53.3203 202.012 51.4062 201.074 49.8047 199.199C48.2422 197.285 47.4609 195 47.4609 192.344C47.4609 189.688 48.2422 187.422 49.8047 185.547C51.4062 183.633 53.3203 182.676 55.5469 182.676C57.7344 182.676 59.6289 183.633 61.2305 185.547C62.832 187.422 63.6328 189.688 63.6328 192.344C63.6328 194.961 62.832 197.227 61.2305 199.141C59.668 201.055 57.7734 202.012 55.5469 202.012ZM76.1719 260.312C84.1016 260.312 91.4062 258.926 98.0859 256.152C104.805 253.418 110.625 249.59 115.547 244.668C120.508 239.707 124.355 233.867 127.09 227.148C129.863 220.43 131.25 213.125 131.25 205.234C131.25 197.305 129.863 190 127.09 183.32C124.355 176.602 120.508 170.781 115.547 165.859C110.625 160.898 104.805 157.051 98.0859 154.316C91.4062 151.543 84.1016 150.156 76.1719 150.156C68.2812 150.156 60.9766 151.543 54.2578 154.316C47.5781 157.051 41.7578 160.898 36.7969 165.859C31.8359 170.781 27.9688 176.602 25.1953 183.32C22.4609 190 21.0938 197.305 21.0938 205.234C21.0938 213.125 22.4609 220.43 25.1953 227.148C27.9688 233.867 31.8164 239.707 36.7383 244.668C41.6992 249.59 47.5391 253.418 54.2578 256.152C60.9766 258.926 68.2812 260.312 76.1719 260.312ZM96.7969 202.012C94.5703 202.012 92.6562 201.074 91.0547 199.199C89.4922 197.285 88.7109 195 88.7109 192.344C88.7109 189.688 89.4922 187.422 91.0547 185.547C92.6562 183.633 94.5703 182.676 96.7969 182.676C98.9844 182.676 100.879 183.633 102.48 185.547C104.082 187.422 104.883 189.688 104.883 192.344C104.883 194.961 104.082 197.227 102.48 199.141C100.918 201.055 99.0234 202.012 96.7969 202.012Z" fill="#854D0F"/>
  <path d="M23.7891 433.758C20.9766 433.758 18.5547 432.742 16.5234 430.711C14.4922 428.719 13.4766 426.336 13.4766 423.562V320.965C13.4766 318.152 14.4727 315.75 16.4648 313.758C18.4961 311.727 20.918 310.711 23.7305 310.711H128.613C131.426 310.711 133.828 311.727 135.82 313.758C137.852 315.75 138.867 318.152 138.867 320.965V423.504C138.867 426.316 137.852 428.719 135.82 430.711C133.828 432.742 131.426 433.758 128.613 433.758H23.7891ZM29.3555 433.113L13.7109 418.582L18.0469 413.895L33.6914 428.426L29.3555 433.113ZM51.2109 432.586L15.0586 398.895L19.3945 394.207L55.5469 427.898L51.2109 432.586ZM71.8359 432.527L14.8828 379.5L19.2188 374.812L76.1719 427.84L71.8359 432.527ZM92.3438 432.41L14.8242 360.223L19.1602 355.535L96.6797 427.723L92.3438 432.41ZM112.91 432.527L14.7656 340.945L19.2188 336.258L117.363 427.84L112.91 432.527ZM24.9609 427.312H127.441C128.613 427.312 129.629 426.863 130.488 425.965C131.387 425.105 131.836 424.09 131.836 422.918V321.551C131.836 320.379 131.387 319.363 130.488 318.504C129.629 317.605 128.613 317.156 127.441 317.156H24.9023C23.7305 317.156 22.6953 317.605 21.7969 318.504C20.9375 319.363 20.5078 320.379 20.5078 321.551V422.977C20.5078 424.148 20.9375 425.164 21.7969 426.023C22.6953 426.883 23.75 427.312 24.9609 427.312ZM132.188 428.719L15.5859 319.91L20.0391 315.223L136.641 424.031L132.188 428.719ZM133.125 408.211L35.2148 316.863L39.668 312.176L137.578 403.523L133.125 408.211ZM133.125 388.875L55.5469 316.629L59.8828 311.941L137.461 384.188L133.125 388.875ZM133.066 369.715L76.1133 316.629L80.5664 311.941L137.52 365.027L133.066 369.715ZM133.242 350.555L96.6797 316.57L101.016 311.883L137.578 345.867L133.242 350.555ZM134.297 330.574L118.652 316.043L122.988 311.355L138.633 325.887L134.297 330.574Z" fill="#854D0F"/>
  <path d="M229.172 266.758C220.266 266.758 212.023 265.215 204.445 262.129C196.906 259.082 190.344 254.785 184.758 249.238C179.172 243.691 174.816 237.188 171.691 229.727C168.605 222.227 167.062 214.062 167.062 205.234C167.062 196.406 168.605 188.262 171.691 180.801C174.816 173.301 179.172 166.777 184.758 161.23C190.344 155.684 196.906 151.387 204.445 148.34C212.023 145.254 220.266 143.711 229.172 143.711C238.078 143.711 246.301 145.254 253.84 148.34C261.418 151.387 268 155.684 273.586 161.23C279.172 166.777 283.508 173.301 286.594 180.801C289.719 188.262 291.281 196.406 291.281 205.234C291.281 214.062 289.719 222.227 286.594 229.727C283.508 237.188 279.172 243.691 273.586 249.238C268 254.785 261.418 259.082 253.84 262.129C246.301 265.215 238.078 266.758 229.172 266.758ZM229.172 236.465C219.875 236.465 210.832 233.535 202.043 227.676L205.676 222.344C213.254 227.461 221.086 230.02 229.172 230.02C237.258 230.02 245.09 227.461 252.668 222.344L256.301 227.676C247.512 233.535 238.469 236.465 229.172 236.465ZM207.961 201.426C205.734 201.426 203.82 200.547 202.219 198.789C200.656 197.031 199.875 194.688 199.875 191.758C199.875 188.828 200.656 186.484 202.219 184.727C203.82 182.969 205.734 182.09 207.961 182.09C210.188 182.09 212.082 182.969 213.645 184.727C215.246 186.484 216.047 188.828 216.047 191.758C216.047 194.688 215.246 197.031 213.645 198.789C212.082 200.547 210.188 201.426 207.961 201.426ZM229.23 260.312C237.121 260.312 244.406 258.926 251.086 256.152C257.805 253.418 263.625 249.59 268.547 244.668C273.508 239.707 277.355 233.867 280.09 227.148C282.863 220.43 284.25 213.105 284.25 205.176C284.25 197.285 282.863 190 280.09 183.32C277.355 176.602 273.508 170.781 268.547 165.859C263.625 160.898 257.805 157.051 251.086 154.316C244.406 151.543 237.121 150.156 229.23 150.156C221.301 150.156 213.977 151.543 207.258 154.316C200.578 157.051 194.758 160.898 189.797 165.859C184.836 170.781 180.969 176.602 178.195 183.32C175.461 190 174.094 197.285 174.094 205.176C174.094 213.105 175.461 220.43 178.195 227.148C180.969 233.867 184.816 239.707 189.738 244.668C194.699 249.59 200.539 253.418 207.258 256.152C213.977 258.926 221.301 260.312 229.23 260.312ZM250.383 201.426C248.156 201.426 246.242 200.547 244.641 198.789C243.078 197.031 242.297 194.688 242.297 191.758C242.297 188.828 243.078 186.484 244.641 184.727C246.242 182.969 248.156 182.09 250.383 182.09C252.609 182.09 254.504 182.969 256.066 184.727C257.668 186.484 258.469 188.828 258.469 191.758C258.469 194.688 257.668 197.031 256.066 198.789C254.504 200.547 252.609 201.426 250.383 201.426Z" fill="#854D0F"/>
  <path d="M176.789 433.758C173.977 433.758 171.555 432.742 169.523 430.711C167.492 428.719 166.477 426.336 166.477 423.562V320.965C166.477 318.152 167.473 315.75 169.465 313.758C171.496 311.727 173.918 310.711 176.73 310.711H281.613C284.426 310.711 286.828 311.727 288.82 313.758C290.852 315.75 291.867 318.152 291.867 320.965V423.504C291.867 426.316 290.852 428.719 288.82 430.711C286.828 432.742 284.426 433.758 281.613 433.758H176.789ZM186.398 430.066V314.227H193.43V430.066H186.398ZM206.027 430.066V314.227H213.059V430.066H206.027ZM177.961 427.312H280.441C281.613 427.312 282.629 426.863 283.488 425.965C284.387 425.105 284.836 424.09 284.836 422.918V321.551C284.836 320.379 284.387 319.363 283.488 318.504C282.629 317.605 281.613 317.156 280.441 317.156H177.902C176.73 317.156 175.695 317.605 174.797 318.504C173.938 319.363 173.508 320.379 173.508 321.551V422.977C173.508 424.148 173.938 425.164 174.797 426.023C175.695 426.883 176.75 427.312 177.961 427.312ZM225.656 430.066V314.227H232.688V430.066H225.656ZM245.285 430.066V314.227H252.316V430.066H245.285ZM264.914 430.066V314.227H271.945V430.066H264.914Z" fill="#854D0F"/>
  <path d="M382.172 266.758C373.266 266.758 365.023 265.215 357.445 262.129C349.906 259.082 343.344 254.785 337.758 249.238C332.172 243.691 327.816 237.188 324.691 229.727C321.605 222.227 320.062 214.062 320.062 205.234C320.062 196.406 321.605 188.262 324.691 180.801C327.816 173.301 332.172 166.777 337.758 161.23C343.344 155.684 349.906 151.387 357.445 148.34C365.023 145.254 373.266 143.711 382.172 143.711C391.078 143.711 399.301 145.254 406.84 148.34C414.418 151.387 421 155.684 426.586 161.23C432.172 166.777 436.508 173.301 439.594 180.801C442.719 188.262 444.281 196.406 444.281 205.234C444.281 214.062 442.719 222.227 439.594 229.727C436.508 237.188 432.172 243.691 426.586 249.238C421 254.785 414.418 259.082 406.84 262.129C399.301 265.215 391.078 266.758 382.172 266.758ZM359.027 237.051L354.34 232.656C363.949 222.227 375.512 217.012 389.027 217.012C392.621 217.012 396.098 217.422 399.457 218.242C402.855 219.062 406.43 220.352 410.18 222.109L407.484 227.969C404.047 226.367 400.902 225.215 398.051 224.512C395.199 223.809 392.191 223.457 389.027 223.457C377.387 223.457 367.387 227.988 359.027 237.051ZM361.547 201.426C359.359 201.426 357.465 200.469 355.863 198.555C354.262 196.641 353.461 194.375 353.461 191.758C353.461 189.102 354.262 186.836 355.863 184.961C357.465 183.047 359.359 182.09 361.547 182.09C363.734 182.09 365.629 183.047 367.23 184.961C368.832 186.836 369.633 189.102 369.633 191.758C369.633 194.375 368.832 196.641 367.23 198.555C365.629 200.469 363.734 201.426 361.547 201.426ZM382.23 260.312C390.121 260.312 397.406 258.926 404.086 256.152C410.805 253.418 416.625 249.59 421.547 244.668C426.508 239.707 430.355 233.867 433.09 227.148C435.863 220.43 437.25 213.105 437.25 205.176C437.25 197.285 435.863 190 433.09 183.32C430.355 176.602 426.508 170.781 421.547 165.859C416.625 160.898 410.805 157.051 404.086 154.316C397.406 151.543 390.121 150.156 382.23 150.156C374.301 150.156 366.977 151.543 360.258 154.316C353.578 157.051 347.758 160.898 342.797 165.859C337.836 170.781 333.969 176.602 331.195 183.32C328.461 190 327.094 197.285 327.094 205.176C327.094 213.105 328.461 220.43 331.195 227.148C333.969 233.867 337.816 239.707 342.738 244.668C347.699 249.59 353.539 253.418 360.258 256.152C366.977 258.926 374.301 260.312 382.23 260.312ZM402.797 201.426C400.609 201.426 398.715 200.469 397.113 198.555C395.512 196.641 394.711 194.375 394.711 191.758C394.711 189.102 395.512 186.836 397.113 184.961C398.715 183.047 400.609 182.09 402.797 182.09C404.984 182.09 406.879 183.047 408.48 184.961C410.082 186.836 410.883 189.102 410.883 191.758C410.883 194.375 410.082 196.641 408.48 198.555C406.879 200.469 404.984 201.426 402.797 201.426Z" fill="#854D0F"/>
  <path d="M329.789 433.758C326.977 433.758 324.555 432.742 322.523 430.711C320.492 428.719 319.477 426.336 319.477 423.562V320.965C319.477 318.152 320.473 315.75 322.465 313.758C324.496 311.727 326.918 310.711 329.73 310.711H434.613C437.426 310.711 439.828 311.727 441.82 313.758C443.852 315.75 444.867 318.152 444.867 320.965V423.504C444.867 426.316 443.852 428.719 441.82 430.711C439.828 432.742 437.426 433.758 434.613 433.758H329.789ZM322.992 417.234V410.203H441.293V417.234H322.992ZM322.992 400.652V393.621H441.293V400.652H322.992ZM322.992 384.07V377.039H441.293V384.07H322.992ZM330.961 427.312H433.441C434.613 427.312 435.629 426.863 436.488 425.965C437.387 425.105 437.836 424.09 437.836 422.918V321.551C437.836 320.379 437.387 319.363 436.488 318.504C435.629 317.605 434.613 317.156 433.441 317.156H330.902C329.73 317.156 328.695 317.605 327.797 318.504C326.938 319.363 326.508 320.379 326.508 321.551V422.977C326.508 424.148 326.938 425.164 327.797 426.023C328.695 426.883 329.75 427.312 330.961 427.312ZM322.992 367.488V360.457H441.293V367.488H322.992ZM322.992 350.906V343.875H441.293V350.906H322.992ZM322.992 334.324V327.293H441.293V334.324H322.992Z" fill="#854D0F"/>
  <path d="M534.234 256.27C530.445 256.27 527.301 255.508 524.801 253.984C522.301 252.5 521.051 250.625 521.051 248.359C521.051 246.172 521.656 244.16 522.867 242.324C524.078 240.488 525.68 239.023 527.672 237.93C529.664 236.797 531.852 236.23 534.234 236.23C536.578 236.23 538.746 236.797 540.738 237.93C542.77 239.023 544.391 240.488 545.602 242.324C546.812 244.16 547.418 246.172 547.418 248.359C547.418 250.625 546.168 252.5 543.668 253.984C541.207 255.508 538.062 256.27 534.234 256.27ZM484.781 203.242C482.672 203.242 480.855 202.539 479.332 201.133C477.848 199.688 477.105 197.969 477.105 195.977C477.105 193.984 477.848 192.285 479.332 190.879C480.855 189.473 482.672 188.77 484.781 188.77C486.891 188.77 488.688 189.473 490.172 190.879C491.695 192.285 492.457 193.984 492.457 195.977C492.457 197.969 491.695 199.688 490.172 201.133C488.688 202.539 486.891 203.242 484.781 203.242ZM484.781 199.141C485.797 199.141 486.637 198.828 487.301 198.203C488.004 197.578 488.355 196.836 488.355 195.977C488.355 195.117 488.004 194.395 487.301 193.809C486.637 193.184 485.797 192.871 484.781 192.871C483.805 192.871 482.965 193.184 482.262 193.809C481.559 194.395 481.207 195.117 481.207 195.977C481.207 196.836 481.559 197.578 482.262 198.203C482.965 198.828 483.805 199.141 484.781 199.141ZM510.27 236.699C506.949 236.699 503.902 235.898 501.129 234.297C498.395 232.656 496.207 230.469 494.566 227.734C492.965 224.961 492.164 221.914 492.164 218.594C492.164 215.234 492.965 212.188 494.566 209.453C496.207 206.719 498.395 204.551 501.129 202.949C503.902 201.309 506.949 200.488 510.27 200.488C513.629 200.488 516.676 201.309 519.41 202.949C522.145 204.551 524.312 206.719 525.914 209.453C527.555 212.188 528.375 215.234 528.375 218.594C528.375 221.914 527.555 224.961 525.914 227.734C524.312 230.469 522.145 232.656 519.41 234.297C516.676 235.898 513.629 236.699 510.27 236.699ZM510.27 232.012C512.77 232.012 515.016 231.406 517.008 230.195C519.039 228.984 520.66 227.363 521.871 225.332C523.082 223.301 523.688 221.055 523.688 218.594C523.688 216.094 523.082 213.848 521.871 211.855C520.66 209.824 519.039 208.203 517.008 206.992C515.016 205.781 512.77 205.176 510.27 205.176C507.809 205.176 505.562 205.781 503.531 206.992C501.5 208.203 499.879 209.824 498.668 211.855C497.457 213.848 496.852 216.094 496.852 218.594C496.852 221.055 497.457 223.301 498.668 225.332C499.879 227.363 501.5 228.984 503.531 230.195C505.562 231.406 507.809 232.012 510.27 232.012ZM510.27 225.098C508.473 225.098 506.93 224.473 505.641 223.223C504.391 221.934 503.766 220.391 503.766 218.594C503.766 216.797 504.391 215.273 505.641 214.023C506.93 212.734 508.473 212.09 510.27 212.09C512.066 212.09 513.59 212.734 514.84 214.023C516.129 215.273 516.773 216.797 516.773 218.594C516.773 220.391 516.129 221.934 514.84 223.223C513.59 224.473 512.066 225.098 510.27 225.098ZM518.062 206.523V197.441H522.75V206.523H518.062ZM527.203 212.734V206.641C527.203 205.977 527.418 205.41 527.848 204.941C528.316 204.473 528.883 204.238 529.547 204.238C530.211 204.238 530.758 204.473 531.188 204.941C531.656 205.41 531.891 205.977 531.891 206.641V212.734H527.203ZM525.855 216.191L522.457 209.746H546.188L542.965 216.191H525.855ZM483.668 166.328C481.559 166.328 479.742 165.625 478.219 164.219C476.734 162.773 475.992 161.055 475.992 159.062C475.992 157.07 476.734 155.371 478.219 153.965C479.742 152.559 481.559 151.855 483.668 151.855C485.777 151.855 487.574 152.559 489.059 153.965C490.582 155.371 491.344 157.07 491.344 159.062C491.344 161.055 490.582 162.773 489.059 164.219C487.574 165.625 485.777 166.328 483.668 166.328ZM483.668 162.227C484.684 162.227 485.523 161.914 486.188 161.289C486.891 160.664 487.242 159.922 487.242 159.062C487.242 158.203 486.891 157.48 486.188 156.895C485.523 156.27 484.684 155.957 483.668 155.957C482.691 155.957 481.852 156.27 481.148 156.895C480.445 157.48 480.094 158.203 480.094 159.062C480.094 159.922 480.445 160.664 481.148 161.289C481.852 161.914 482.691 162.227 483.668 162.227ZM534.234 211.562V205.469C534.234 204.805 534.449 204.238 534.879 203.77C535.348 203.301 535.914 203.066 536.578 203.066C537.242 203.066 537.789 203.301 538.219 203.77C538.688 204.238 538.922 204.805 538.922 205.469V211.562H534.234ZM558.199 236.699C554.879 236.699 551.832 235.898 549.059 234.297C546.324 232.656 544.137 230.469 542.496 227.734C540.895 224.961 540.094 221.914 540.094 218.594C540.094 215.234 540.895 212.188 542.496 209.453C544.137 206.719 546.324 204.551 549.059 202.949C551.832 201.309 554.879 200.488 558.199 200.488C561.559 200.488 564.605 201.309 567.34 202.949C570.074 204.551 572.242 206.719 573.844 209.453C575.484 212.188 576.305 215.234 576.305 218.594C576.305 221.914 575.484 224.961 573.844 227.734C572.242 230.469 570.074 232.656 567.34 234.297C564.605 235.898 561.559 236.699 558.199 236.699ZM558.199 232.012C560.699 232.012 562.945 231.406 564.938 230.195C566.969 228.984 568.59 227.363 569.801 225.332C571.012 223.301 571.617 221.055 571.617 218.594C571.617 216.094 571.012 213.848 569.801 211.855C568.59 209.824 566.969 208.203 564.938 206.992C562.945 205.781 560.699 205.176 558.199 205.176C555.738 205.176 553.492 205.781 551.461 206.992C549.43 208.203 547.809 209.824 546.598 211.855C545.387 213.848 544.781 216.094 544.781 218.594C544.781 221.055 545.387 223.301 546.598 225.332C547.809 227.363 549.43 228.984 551.461 230.195C553.492 231.406 555.738 232.012 558.199 232.012ZM558.199 225.098C556.402 225.098 554.859 224.473 553.57 223.223C552.32 221.934 551.695 220.391 551.695 218.594C551.695 216.797 552.32 215.273 553.57 214.023C554.859 212.734 556.402 212.09 558.199 212.09C559.996 212.09 561.52 212.734 562.77 214.023C564.059 215.273 564.703 216.797 564.703 218.594C564.703 220.391 564.059 221.934 562.77 223.223C561.52 224.473 559.996 225.098 558.199 225.098ZM540.68 210.391V196.035H545.367V210.391H540.68ZM528.609 202.48C521.344 202.48 515.016 199.941 509.625 194.863C508.883 195.137 508.121 195.352 507.34 195.508C506.559 195.625 505.797 195.684 505.055 195.684C501.266 195.684 498.023 194.355 495.328 191.699C492.672 189.004 491.344 185.762 491.344 181.973C491.344 180.137 491.695 178.359 492.398 176.641C493.141 174.922 494.176 173.418 495.504 172.129C495.309 171.348 495.152 170.566 495.035 169.785C494.918 168.965 494.859 168.184 494.859 167.441C494.859 164.355 495.602 161.562 497.086 159.062C498.609 156.523 500.641 154.512 503.18 153.027C505.719 151.504 508.531 150.742 511.617 150.742C512.438 150.742 513.258 150.801 514.078 150.918C514.898 151.035 515.699 151.23 516.48 151.504C517.73 148.34 519.762 145.762 522.574 143.77C525.426 141.777 528.609 140.781 532.125 140.781C535.172 140.781 537.984 141.562 540.562 143.125C543.18 144.648 545.23 146.699 546.715 149.277C547.965 148.77 549.234 148.398 550.523 148.164C551.812 147.891 553.102 147.754 554.391 147.754C558.18 147.754 561.637 148.691 564.762 150.566C567.887 152.402 570.367 154.883 572.203 158.008C574.078 161.094 575.016 164.551 575.016 168.379C575.016 169.512 574.938 170.527 574.781 171.426C578.062 174.16 579.703 177.676 579.703 181.973C579.703 185.762 578.375 189.004 575.719 191.699C573.062 194.355 569.82 195.684 565.992 195.684C565.758 195.684 565.504 195.684 565.23 195.684C564.996 195.684 564.762 195.664 564.527 195.625C561.207 199.336 557.047 201.191 552.047 201.191C550.445 201.191 548.863 200.957 547.301 200.488C545.738 199.98 544.273 199.297 542.906 198.438C538.531 201.133 533.766 202.48 528.609 202.48ZM528.609 196.621C532.594 196.621 536.246 195.625 539.566 193.633C542.926 191.641 545.602 189.004 547.594 185.723C549.586 182.402 550.582 178.77 550.582 174.824H556.441C556.441 178.613 555.699 182.227 554.215 185.664C552.77 189.062 550.719 192.031 548.062 194.57C548.727 194.844 549.371 195.039 549.996 195.156C550.66 195.273 551.344 195.332 552.047 195.332C554.195 195.332 556.168 194.766 557.965 193.633C559.762 192.5 561.168 190.957 562.184 189.004C563.824 189.551 565.094 189.824 565.992 189.824C568.18 189.824 570.035 189.062 571.559 187.539C573.082 186.016 573.844 184.16 573.844 181.973C573.844 180.254 573.336 178.672 572.32 177.227C571.305 175.781 569.938 174.746 568.219 174.121C568.531 173.027 568.766 172.051 568.922 171.191C569.078 170.293 569.156 169.355 569.156 168.379C569.156 165.645 568.492 163.164 567.164 160.938C565.836 158.711 564.059 156.934 561.832 155.605C559.605 154.277 557.125 153.613 554.391 153.613C552.32 153.613 550.406 153.906 548.648 154.492C546.93 155.039 545.445 155.781 544.195 156.719C543.57 154.062 542.164 151.719 539.977 149.688C537.789 147.656 535.172 146.641 532.125 146.641C528.766 146.641 525.836 147.832 523.336 150.215C520.875 152.559 519.43 155.195 519 158.125C518.102 157.656 517.047 157.285 515.836 157.012C514.625 156.738 513.219 156.602 511.617 156.602C508.609 156.602 506.031 157.656 503.883 159.766C501.773 161.875 500.719 164.434 500.719 167.441C500.719 168.73 500.895 169.922 501.246 171.016C501.637 172.07 502.242 173.164 503.062 174.297C501.266 174.844 499.84 175.82 498.785 177.227C497.73 178.633 497.203 180.215 497.203 181.973C497.203 184.16 497.965 186.016 499.488 187.539C501.012 189.062 502.867 189.824 505.055 189.824H505.523C505.016 189.043 504.547 188.242 504.117 187.422C503.688 186.602 503.316 185.781 503.004 184.961L508.512 182.852C510.113 187.031 512.73 190.371 516.363 192.871C520.035 195.371 524.117 196.621 528.609 196.621ZM591.598 207.344C590.191 207.344 588.941 206.953 587.848 206.172C585.738 206.172 584.098 205.566 582.926 204.355C581.754 203.105 581.168 201.602 581.168 199.844C581.168 198.555 581.52 197.383 582.223 196.328C582.965 195.273 583.922 194.512 585.094 194.043C586.148 191.387 588.121 190.059 591.012 190.059C592.73 190.059 594.195 190.684 595.406 191.934C596.656 193.145 597.281 194.609 597.281 196.328C597.281 196.914 597.203 197.461 597.047 197.969C597.594 198.945 597.867 199.961 597.867 201.016C597.867 202.812 597.262 204.316 596.051 205.527C594.84 206.738 593.355 207.344 591.598 207.344ZM591.598 203.242C592.223 203.242 592.73 203.027 593.121 202.598C593.551 202.168 593.766 201.641 593.766 201.016C593.766 200.312 593.336 199.512 592.477 198.613C592.945 197.52 593.18 196.758 593.18 196.328C593.18 195.703 592.965 195.195 592.535 194.805C592.145 194.375 591.637 194.16 591.012 194.16C590.23 194.16 589.625 194.492 589.195 195.156C588.805 195.781 588.609 196.543 588.609 197.441C587.633 197.441 586.832 197.656 586.207 198.086C585.582 198.516 585.27 199.102 585.27 199.844C585.27 200.469 585.484 200.996 585.914 201.426C586.344 201.855 586.871 202.07 587.496 202.07C588.16 202.07 588.727 201.973 589.195 201.777C589.859 202.754 590.66 203.242 591.598 203.242ZM589.723 178.633C587.613 178.633 585.797 177.93 584.273 176.523C582.789 175.078 582.047 173.359 582.047 171.367C582.047 169.375 582.789 167.676 584.273 166.27C585.797 164.863 587.613 164.16 589.723 164.16C591.832 164.16 593.629 164.863 595.113 166.27C596.637 167.676 597.398 169.375 597.398 171.367C597.398 173.359 596.637 175.078 595.113 176.523C593.629 177.93 591.832 178.633 589.723 178.633ZM589.723 174.531C590.738 174.531 591.578 174.219 592.242 173.594C592.945 172.969 593.297 172.227 593.297 171.367C593.297 170.508 592.945 169.785 592.242 169.199C591.578 168.574 590.738 168.262 589.723 168.262C588.746 168.262 587.906 168.574 587.203 169.199C586.5 169.785 586.148 170.508 586.148 171.367C586.148 172.227 586.5 172.969 587.203 173.594C587.906 174.219 588.746 174.531 589.723 174.531ZM583.453 159.707C581.031 159.707 579.254 158.633 578.121 156.484C576.91 156.133 575.895 155.43 575.074 154.375C574.293 153.281 573.902 152.07 573.902 150.742C573.902 149.062 574.488 147.656 575.66 146.523C576.832 145.352 578.258 144.766 579.938 144.766C582.398 144.766 584.176 145.84 585.27 147.988C586.52 148.379 587.516 149.082 588.258 150.098C589.039 151.113 589.43 152.305 589.43 153.672C589.43 155.352 588.844 156.777 587.672 157.949C586.539 159.121 585.133 159.707 583.453 159.707ZM583.453 156.191C584.156 156.191 584.742 155.957 585.211 155.488C585.68 154.98 585.914 154.375 585.914 153.672C585.914 152.812 585.562 152.129 584.859 151.621C584.195 151.074 583.453 150.918 582.633 151.152C582.672 150.371 582.418 149.707 581.871 149.16C581.363 148.574 580.719 148.281 579.938 148.281C579.234 148.281 578.629 148.516 578.121 148.984C577.652 149.453 577.418 150.039 577.418 150.742C577.418 151.602 577.75 152.305 578.414 152.852C579.078 153.398 579.801 153.594 580.582 153.438C580.66 154.18 580.973 154.824 581.52 155.371C582.066 155.918 582.711 156.191 583.453 156.191ZM472.477 209.746H497.906L495.152 216.191H479.918C480.973 222.52 483.043 228.379 486.129 233.77C489.254 239.121 493.219 243.77 498.023 247.715C502.828 251.699 508.297 254.785 514.43 256.973C520.562 259.199 527.164 260.312 534.234 260.312C541.344 260.312 547.945 259.199 554.039 256.973C560.172 254.785 565.641 251.699 570.445 247.715C575.25 243.77 579.195 239.121 582.281 233.77C585.406 228.379 587.496 222.52 588.551 216.191H573.316L570.562 209.746H595.992C595.641 217.754 593.863 225.215 590.66 232.129C587.496 239.043 583.141 245.098 577.594 250.293C572.086 255.488 565.641 259.531 558.258 262.422C550.914 265.312 542.906 266.758 534.234 266.758C525.562 266.758 517.535 265.312 510.152 262.422C502.809 259.531 496.363 255.488 490.816 250.293C485.309 245.098 480.953 239.043 477.75 232.129C474.586 225.215 472.828 217.754 472.477 209.746Z" fill="#854D0F"/>
  <path d="M482.789 433.758C479.977 433.758 477.555 432.742 475.523 430.711C473.492 428.719 472.477 426.336 472.477 423.562V320.965C472.477 318.152 473.473 315.75 475.465 313.758C477.496 311.727 479.918 310.711 482.73 310.711H587.613C590.426 310.711 592.828 311.727 594.82 313.758C596.852 315.75 597.867 318.152 597.867 320.965V423.504C597.867 426.316 596.852 428.719 594.82 430.711C592.828 432.742 590.426 433.758 587.613 433.758H482.789ZM509.273 432.117L474.117 397.02L477.867 393.27L513.023 428.367L509.273 432.117ZM536.578 432.059L473.941 369.48L477.691 365.73L540.328 428.309L536.578 432.059ZM493.57 430.184V314.227H499.43V430.184H493.57ZM562.77 432.059L472.945 342.234L476.695 338.484L566.52 428.309L562.77 432.059ZM512.906 430.184V314.227H518.766V430.184H512.906ZM589.898 430.711L476.695 317.508L480.445 313.758L593.648 426.961L589.898 430.711ZM483.961 427.312H586.441C587.613 427.312 588.629 426.863 589.488 425.965C590.387 425.105 590.836 424.09 590.836 422.918V321.551C590.836 320.379 590.387 319.363 589.488 318.504C588.629 317.605 587.613 317.156 586.441 317.156H483.902C482.73 317.156 481.695 317.605 480.797 318.504C479.938 319.363 479.508 320.379 479.508 321.551V422.977C479.508 424.148 479.938 425.164 480.797 426.023C481.695 426.883 482.75 427.312 483.961 427.312ZM532.242 430.184V314.227H538.102V430.184H532.242ZM551.578 430.184V314.227H557.438V430.184H551.578ZM593.766 406.102L503.766 316.102L507.516 312.352L597.516 402.352L593.766 406.102ZM570.914 430.184V314.227H576.773V430.184H570.914ZM592.535 378.68L530.074 316.043L533.824 312.293L596.285 374.93L592.535 378.68ZM592.652 351.316L557.438 316.102L561.188 312.352L596.402 347.566L592.652 351.316Z" fill="#854D0F"/>
  <path d="M688.172 266.758C679.266 266.758 671.023 265.215 663.445 262.129C655.906 259.082 649.344 254.785 643.758 249.238C638.172 243.691 633.816 237.188 630.691 229.727C627.605 222.227 626.062 214.062 626.062 205.234C626.062 196.406 627.605 188.262 630.691 180.801C633.816 173.301 638.172 166.777 643.758 161.23C649.344 155.684 655.906 151.387 663.445 148.34C671.023 145.254 679.266 143.711 688.172 143.711C697.078 143.711 705.301 145.254 712.84 148.34C720.418 151.387 727 155.684 732.586 161.23C738.172 166.777 742.508 173.301 745.594 180.801C748.719 188.262 750.281 196.406 750.281 205.234C750.281 214.062 748.719 222.227 745.594 229.727C742.508 237.188 738.172 243.691 732.586 249.238C727 254.785 720.418 259.082 712.84 262.129C705.301 265.215 697.078 266.758 688.172 266.758ZM688.23 245.957C684.129 245.957 680.457 245.41 677.215 244.316C674.012 243.223 671.492 241.719 669.656 239.805C667.82 237.852 666.902 235.664 666.902 233.242C666.902 229.727 667.879 226.504 669.832 223.574C671.785 220.605 674.363 218.223 677.566 216.426C680.809 214.629 684.344 213.73 688.172 213.73C692 213.73 695.516 214.629 698.719 216.426C701.961 218.223 704.559 220.605 706.512 223.574C708.465 226.504 709.441 229.727 709.441 233.242C709.441 235.664 708.523 237.852 706.688 239.805C704.852 241.719 702.332 243.223 699.129 244.316C695.926 245.41 692.293 245.957 688.23 245.957ZM688.23 260.312C696.121 260.312 703.406 258.926 710.086 256.152C716.805 253.418 722.625 249.59 727.547 244.668C732.508 239.707 736.355 233.867 739.09 227.148C741.863 220.43 743.25 213.105 743.25 205.176C743.25 197.285 741.863 190 739.09 183.32C736.355 176.602 732.508 170.781 727.547 165.859C722.625 160.898 716.805 157.051 710.086 154.316C703.406 151.543 696.121 150.156 688.23 150.156C680.301 150.156 672.977 151.543 666.258 154.316C659.578 157.051 653.758 160.898 648.797 165.859C643.836 170.781 639.969 176.602 637.195 183.32C634.461 190 633.094 197.285 633.094 205.176C633.094 213.105 634.461 220.43 637.195 227.148C639.969 233.867 643.816 239.707 648.738 244.668C653.699 249.59 659.539 253.418 666.258 256.152C672.977 258.926 680.301 260.312 688.23 260.312ZM667.547 201.426C665.359 201.426 663.465 200.469 661.863 198.555C660.262 196.641 659.461 194.375 659.461 191.758C659.461 189.102 660.262 186.836 661.863 184.961C663.465 183.047 665.359 182.09 667.547 182.09C669.734 182.09 671.629 183.047 673.23 184.961C674.832 186.836 675.633 189.102 675.633 191.758C675.633 194.375 674.832 196.641 673.23 198.555C671.629 200.469 669.734 201.426 667.547 201.426ZM708.797 201.426C706.609 201.426 704.715 200.469 703.113 198.555C701.512 196.641 700.711 194.375 700.711 191.758C700.711 189.102 701.512 186.836 703.113 184.961C704.715 183.047 706.609 182.09 708.797 182.09C710.984 182.09 712.879 183.047 714.48 184.961C716.082 186.836 716.883 189.102 716.883 191.758C716.883 194.375 716.082 196.641 714.48 198.555C712.879 200.469 710.984 201.426 708.797 201.426Z" fill="#854D0F"/>
  <path d="M635.73 433.758C632.918 433.758 630.496 432.742 628.465 430.711C626.473 428.719 625.477 426.316 625.477 423.504V320.965C625.477 318.152 626.473 315.75 628.465 313.758C630.496 311.727 632.918 310.711 635.73 310.711H740.613C743.426 310.711 745.828 311.727 747.82 313.758C749.852 315.75 750.867 318.152 750.867 320.965V423.562C750.867 426.336 749.852 428.719 747.82 430.711C745.789 432.742 743.367 433.758 740.555 433.758H635.73ZM651.434 432.527L646.98 427.84L745.125 336.258L749.578 340.945L651.434 432.527ZM672 432.41L667.664 427.723L745.184 355.535L749.52 360.223L672 432.41ZM630.047 330.574L625.711 325.887L641.355 311.355L645.691 316.043L630.047 330.574ZM692.508 432.527L688.172 427.84L745.125 374.812L749.461 379.5L692.508 432.527ZM713.133 432.586L708.797 427.898L744.949 394.207L749.285 398.895L713.133 432.586ZM636.902 427.312H739.383C740.594 427.312 741.629 426.883 742.488 426.023C743.387 425.164 743.836 424.148 743.836 422.977V321.551C743.836 320.379 743.387 319.363 742.488 318.504C741.629 317.605 740.613 317.156 739.441 317.156H636.902C635.73 317.156 634.695 317.605 633.797 318.504C632.938 319.363 632.508 320.379 632.508 321.551V422.918C632.508 424.09 632.938 425.105 633.797 425.965C634.695 426.863 635.73 427.312 636.902 427.312ZM632.156 428.719L627.703 424.031L744.305 315.223L748.758 319.91L632.156 428.719ZM734.988 433.113L730.652 428.426L746.297 413.895L750.633 418.582L734.988 433.113ZM631.102 350.555L626.766 345.867L663.328 311.883L667.664 316.57L631.102 350.555ZM631.277 369.715L626.824 365.027L683.777 311.941L688.23 316.629L631.277 369.715ZM631.219 388.875L626.883 384.188L704.461 311.941L708.797 316.629L631.219 388.875ZM631.219 408.211L626.766 403.523L724.676 312.176L729.129 316.863L631.219 408.211Z" fill="#854D0F"/>
  <path d="M841.172 266.758C832.266 266.758 824.023 265.215 816.445 262.129C808.906 259.082 802.344 254.785 796.758 249.238C791.172 243.691 786.816 237.188 783.691 229.727C780.605 222.227 779.062 214.062 779.062 205.234C779.062 200.938 779.453 196.777 780.234 192.754C781.016 188.73 782.129 184.883 783.574 181.211L787.91 190.352C787.324 192.695 786.875 195.117 786.562 197.617C786.25 200.078 786.094 202.617 786.094 205.234C786.094 213.125 787.461 220.43 790.195 227.148C792.969 233.867 796.816 239.707 801.738 244.668C806.699 249.59 812.539 253.418 819.258 256.152C825.977 258.926 833.281 260.312 841.172 260.312C849.102 260.312 856.406 258.926 863.086 256.152C869.805 253.418 875.625 249.59 880.547 244.668C885.508 239.707 889.355 233.867 892.09 227.148C894.863 220.43 896.25 213.125 896.25 205.234C896.25 202.617 896.094 200.078 895.781 197.617C895.469 195.117 895 192.695 894.375 190.352L898.77 181.211C900.254 184.883 901.367 188.73 902.109 192.754C902.891 196.777 903.281 200.938 903.281 205.234C903.281 214.062 901.719 222.227 898.594 229.727C895.508 237.188 891.172 243.691 885.586 249.238C880 254.785 873.418 259.082 865.84 262.129C858.301 265.215 850.078 266.758 841.172 266.758ZM812.578 206.758C817.461 206.758 821.25 206.211 823.945 205.117C826.641 204.023 828.516 201.992 829.57 199.023C830.625 196.055 831.152 191.738 831.152 186.074C831.152 183.223 830.586 181.016 829.453 179.453C828.32 177.891 826.25 176.797 823.242 176.172C820.234 175.547 815.898 175.234 810.234 175.234C805.234 175.234 801.27 175.391 798.34 175.703C795.41 176.016 793.301 176.758 792.012 177.93C790.762 179.102 790.137 180.977 790.137 183.555C790.137 185.82 790.254 187.832 790.488 189.59C790.762 191.348 791.094 193.203 791.484 195.156C792.188 198.555 793.145 201.094 794.355 202.773C795.566 204.414 797.559 205.488 800.332 205.996C803.145 206.504 807.227 206.758 812.578 206.758ZM812.93 202.012C810.703 202.012 808.789 201.074 807.188 199.199C805.625 197.285 804.844 195 804.844 192.344C804.844 189.688 805.625 187.422 807.188 185.547C808.789 183.633 810.703 182.676 812.93 182.676C815.117 182.676 817.012 183.633 818.613 185.547C820.215 187.422 821.016 189.688 821.016 192.344C821.016 194.961 820.215 197.227 818.613 199.141C817.051 201.055 815.156 202.012 812.93 202.012ZM811.816 213.145C806.777 213.145 802.52 212.852 799.043 212.266C795.566 211.641 792.832 210.605 790.84 209.16C788.887 207.715 787.578 205.723 786.914 203.184L783.867 191.172C783.242 188.633 782.754 186.973 782.402 186.191C782.051 185.371 781.523 184.766 780.82 184.375L777.891 182.793V172.832C782.93 171.465 788.066 170.469 793.301 169.844C798.574 169.18 804.219 168.848 810.234 168.848C816.992 168.848 822.5 169.473 826.758 170.723C831.016 171.973 834.141 173.906 836.133 176.523C838.125 176.211 839.805 176.055 841.172 176.055C842.539 176.055 844.219 176.211 846.211 176.523C848.203 173.906 851.328 171.973 855.586 170.723C859.844 169.473 865.352 168.848 872.109 168.848C878.125 168.848 883.75 169.18 888.984 169.844C894.258 170.469 899.414 171.465 904.453 172.832V182.793L901.523 184.375C900.82 184.766 900.293 185.371 899.941 186.191C899.629 186.973 899.141 188.633 898.477 191.172L895.43 203.184C894.805 205.723 893.496 207.715 891.504 209.16C889.512 210.605 886.777 211.641 883.301 212.266C879.863 212.852 875.605 213.145 870.527 213.145C865.215 213.145 860.898 212.695 857.578 211.797C854.297 210.898 851.777 209.297 850.02 206.992C848.262 204.688 846.992 201.406 846.211 197.148L844.395 186.895C843.887 186.699 843.379 186.562 842.871 186.484C842.363 186.367 841.797 186.309 841.172 186.309C840.547 186.309 839.98 186.367 839.473 186.484C838.965 186.562 838.457 186.699 837.949 186.895L836.133 197.148C835.391 201.406 834.121 204.688 832.324 206.992C830.566 209.297 828.027 210.898 824.707 211.797C821.426 212.695 817.129 213.145 811.816 213.145ZM869.414 202.012C867.188 202.012 865.273 201.074 863.672 199.199C862.109 197.285 861.328 195 861.328 192.344C861.328 189.688 862.109 187.422 863.672 185.547C865.273 183.633 867.188 182.676 869.414 182.676C871.602 182.676 873.496 183.633 875.098 185.547C876.699 187.422 877.5 189.688 877.5 192.344C877.5 194.961 876.699 197.227 875.098 199.141C873.535 201.055 871.641 202.012 869.414 202.012ZM869.766 206.758C875.156 206.758 879.238 206.504 882.012 205.996C884.785 205.488 886.777 204.414 887.988 202.773C889.238 201.094 890.195 198.555 890.859 195.156C891.25 193.203 891.562 191.348 891.797 189.59C892.07 187.832 892.207 185.82 892.207 183.555C892.207 180.977 891.562 179.102 890.273 177.93C889.023 176.758 886.934 176.016 884.004 175.703C881.074 175.391 877.109 175.234 872.109 175.234C866.484 175.234 862.148 175.547 859.102 176.172C856.094 176.797 854.023 177.891 852.891 179.453C851.758 181.016 851.191 183.223 851.191 186.074C851.191 191.738 851.719 196.055 852.773 199.023C853.828 201.992 855.703 204.023 858.398 205.117C861.094 206.211 864.883 206.758 869.766 206.758ZM786.504 174.883C789.941 168.555 794.375 163.066 799.805 158.418C805.273 153.73 811.504 150.117 818.496 147.578C825.527 145 833.086 143.711 841.172 143.711C849.297 143.711 856.855 145 863.848 147.578C870.84 150.117 877.051 153.73 882.48 158.418C887.949 163.066 892.402 168.555 895.84 174.883L887.285 174.062C884.082 169.141 880.137 164.902 875.449 161.348C870.801 157.754 865.566 155 859.746 153.086C853.965 151.133 847.773 150.156 841.172 150.156C834.57 150.156 828.359 151.133 822.539 153.086C816.758 155 811.543 157.754 806.895 161.348C802.246 164.902 798.301 169.141 795.059 174.062L786.504 174.883ZM841.172 243.203C847.031 243.203 852.5 242.148 857.578 240.039C851.992 236.797 846.523 235.176 841.172 235.176C835.82 235.176 830.352 236.797 824.766 240.039C829.844 242.148 835.312 243.203 841.172 243.203ZM841.172 247.305C836.094 247.305 831.113 246.484 826.23 244.844C821.387 243.203 817.012 241.016 813.105 238.281C809.199 235.508 806.074 232.461 803.73 229.141C801.426 225.82 800.273 222.48 800.273 219.121C800.273 217.051 800.742 215.605 801.68 214.785C802.617 213.926 803.867 213.496 805.43 213.496C806.406 213.496 807.637 213.613 809.121 213.848C810.645 214.082 812.383 214.395 814.336 214.785C817.812 215.449 821.855 216.094 826.465 216.719C831.074 217.305 835.977 217.598 841.172 217.598C846.406 217.598 851.328 217.305 855.938 216.719C860.547 216.094 864.57 215.449 868.008 214.785C869.961 214.395 871.68 214.082 873.164 213.848C874.688 213.613 875.938 213.496 876.914 213.496C878.477 213.496 879.727 213.926 880.664 214.785C881.602 215.605 882.07 217.051 882.07 219.121C882.07 222.48 880.898 225.82 878.555 229.141C876.25 232.461 873.145 235.508 869.238 238.281C865.332 241.016 860.938 243.203 856.055 244.844C851.211 246.484 846.25 247.305 841.172 247.305ZM841.172 227.559C844.844 227.559 848.77 227.422 852.949 227.148C857.129 226.836 861.309 226.367 865.488 225.742C869.668 225.078 873.574 224.258 877.207 223.281V219.121C877.207 218.535 876.973 218.164 876.504 218.008C876.035 217.812 875.547 217.773 875.039 217.891C871.719 218.672 868.047 219.355 864.023 219.941C860.039 220.488 856.055 220.918 852.07 221.23C848.125 221.543 844.492 221.699 841.172 221.699C837.891 221.699 834.258 221.543 830.273 221.23C826.289 220.918 822.305 220.488 818.32 219.941C814.336 219.355 810.664 218.672 807.305 217.891C806.797 217.773 806.309 217.812 805.84 218.008C805.371 218.164 805.137 218.535 805.137 219.121V223.281C808.77 224.258 812.676 225.078 816.855 225.742C821.035 226.367 825.215 226.836 829.395 227.148C833.613 227.422 837.539 227.559 841.172 227.559Z" fill="#854D0F"/>
  <path d="M788.789 433.758C785.977 433.758 783.555 432.742 781.523 430.711C779.492 428.719 778.477 426.336 778.477 423.562V320.965C778.477 318.152 779.473 315.75 781.465 313.758C783.496 311.727 785.918 310.711 788.73 310.711H893.613C896.426 310.711 898.828 311.727 900.82 313.758C902.852 315.75 903.867 318.152 903.867 320.965V423.504C903.867 426.316 902.852 428.719 900.82 430.711C898.828 432.742 896.426 433.758 893.613 433.758H788.789ZM816.68 432.352L780 398.543L783.984 394.207L820.664 428.016L816.68 432.352ZM845.098 432.176L780 372.176L783.984 367.84L849.082 427.84L845.098 432.176ZM781.992 413.602V407.742H900.41V413.602H781.992ZM873.75 432.293L780.059 345.809L784.043 341.473L877.734 427.957L873.75 432.293ZM781.992 394.266V388.406H900.41V394.266H781.992ZM897.598 428.309L780.645 320.496L784.629 316.16L901.582 423.973L897.598 428.309ZM789.961 427.312H892.441C893.613 427.312 894.629 426.863 895.488 425.965C896.387 425.105 896.836 424.09 896.836 422.918V321.551C896.836 320.379 896.387 319.363 895.488 318.504C894.629 317.605 893.613 317.156 892.441 317.156H789.902C788.73 317.156 787.695 317.605 786.797 318.504C785.938 319.363 785.508 320.379 785.508 321.551V422.977C785.508 424.148 785.938 425.164 786.797 426.023C787.695 426.883 788.75 427.312 789.961 427.312ZM781.992 374.93V369.07H900.41V374.93H781.992ZM781.992 355.594V349.734H900.41V355.594H781.992ZM898.359 402.996L804.375 316.395L808.359 312.059L902.344 398.66L898.359 402.996ZM781.992 336.258V330.398H900.41V336.258H781.992ZM898.359 376.629L832.969 316.395L836.953 312.059L902.344 372.293L898.359 376.629ZM898.418 350.379L861.562 316.395L865.547 312.059L902.402 346.043L898.418 350.379Z" fill="#854D0F"/>
  <path d="M132.418 145.526C131.742 146.4 131.903 147.656 132.776 148.332C133.65 149.008 134.906 148.847 135.582 147.974L132.418 145.526ZM181 148.75C182.105 148.75 183 147.855 183 146.75V128.75C183 127.645 182.105 126.75 181 126.75C179.895 126.75 179 127.645 179 128.75V144.75H163C161.895 144.75 161 145.645 161 146.75C161 147.855 161.895 148.75 163 148.75H181ZM135.582 147.974C138.781 143.839 144.834 138.887 152.481 137.453C159.983 136.047 169.38 137.958 179.586 148.164L182.414 145.336C171.42 134.342 160.734 131.837 151.744 133.522C142.899 135.18 136.053 140.828 132.418 145.526L135.582 147.974Z" fill="#854D0F"/>
  <path d="M278.418 145.526C277.742 146.4 277.903 147.656 278.776 148.332C279.65 149.008 280.906 148.847 281.582 147.974L278.418 145.526ZM327 148.75C328.105 148.75 329 147.855 329 146.75V128.75C329 127.645 328.105 126.75 327 126.75C325.895 126.75 325 127.645 325 128.75V144.75H309C307.895 144.75 307 145.645 307 146.75C307 147.855 307.895 148.75 309 148.75H327ZM281.582 147.974C284.781 143.839 290.834 138.887 298.481 137.453C305.983 136.047 315.38 137.958 325.586 148.164L328.414 145.336C317.42 134.342 306.734 131.837 297.744 133.522C288.899 135.18 282.053 140.828 278.418 145.526L281.582 147.974Z" fill="#854D0F"/>
  <path d="M428.418 145.526C427.742 146.4 427.903 147.656 428.776 148.332C429.65 149.008 430.906 148.847 431.582 147.974L428.418 145.526ZM477 148.75C478.105 148.75 479 147.855 479 146.75V128.75C479 127.645 478.105 126.75 477 126.75C475.895 126.75 475 127.645 475 128.75V144.75H459C457.895 144.75 457 145.645 457 146.75C457 147.855 457.895 148.75 459 148.75H477ZM431.582 147.974C434.781 143.839 440.834 138.887 448.481 137.453C455.983 136.047 465.38 137.958 475.586 148.164L478.414 145.336C467.42 134.342 456.734 131.837 447.744 133.522C438.899 135.18 432.053 140.828 428.418 145.526L431.582 147.974Z" fill="#854D0F"/>
  <path d="M582.418 145.526C581.742 146.4 581.903 147.656 582.776 148.332C583.65 149.008 584.906 148.847 585.582 147.974L582.418 145.526ZM631 148.75C632.105 148.75 633 147.855 633 146.75V128.75C633 127.645 632.105 126.75 631 126.75C629.895 126.75 629 127.645 629 128.75V144.75H613C611.895 144.75 611 145.645 611 146.75C611 147.855 611.895 148.75 613 148.75H631ZM585.582 147.974C588.781 143.839 594.834 138.887 602.481 137.453C609.983 136.047 619.38 137.958 629.586 148.164L632.414 145.336C621.42 134.342 610.734 131.837 601.744 133.522C592.899 135.18 586.053 140.828 582.418 145.526L585.582 147.974Z" fill="#854D0F"/>
  <path d="M732.418 145.526C731.742 146.4 731.903 147.656 732.776 148.332C733.65 149.008 734.906 148.847 735.582 147.974L732.418 145.526ZM781 148.75C782.105 148.75 783 147.855 783 146.75V128.75C783 127.645 782.105 126.75 781 126.75C779.895 126.75 779 127.645 779 128.75V144.75H763C761.895 144.75 761 145.645 761 146.75C761 147.855 761.895 148.75 763 148.75H781ZM735.582 147.974C738.781 143.839 744.834 138.887 752.481 137.453C759.983 136.047 769.38 137.958 779.586 148.164L782.414 145.336C771.42 134.342 760.734 131.837 751.744 133.522C742.899 135.18 736.053 140.828 732.418 145.526L735.582 147.974Z" fill="#854D0F"/>
  <path d="M784.665 114.123C785.975 115.137 787.86 114.896 788.873 113.585C789.887 112.275 789.646 110.39 788.335 109.377L784.665 114.123ZM119.023 111.381C118.819 113.026 119.987 114.524 121.631 114.727L148.426 118.046C150.071 118.25 151.569 117.082 151.772 115.438C151.976 113.794 150.808 112.296 149.164 112.092L125.346 109.142L128.296 85.3236C128.5 83.6793 127.332 82.1813 125.688 81.9776C124.044 81.7739 122.545 82.9418 122.342 84.5861L119.023 111.381ZM128.518 110.52C129.838 109.518 130.095 107.636 129.093 106.316C128.091 104.997 126.209 104.739 124.89 105.741L128.518 110.52ZM134.489 98.6414C133.145 99.6098 132.84 101.485 133.808 102.829C134.777 104.173 136.652 104.478 137.996 103.51L134.489 98.6414ZM147.647 96.739C149.015 95.8044 149.367 93.9377 148.432 92.5696C147.498 91.2015 145.631 90.8501 144.263 91.7846L147.647 96.739ZM154.203 85.1731C152.812 86.0736 152.415 87.9311 153.315 89.3219C154.216 90.7126 156.073 91.11 157.464 90.2095L154.203 85.1731ZM167.439 83.9226C168.851 83.0563 169.294 81.2092 168.428 79.7968C167.561 78.3845 165.714 77.9418 164.302 78.8081L167.439 83.9226ZM174.553 72.6902C173.12 73.5221 172.632 75.3581 173.464 76.7909C174.296 78.2238 176.132 78.711 177.565 77.8791L174.553 72.6902ZM187.833 72.0812C189.285 71.2837 189.816 69.46 189.019 68.0076C188.221 66.5553 186.397 66.0244 184.945 66.8218L187.833 72.0812ZM195.476 61.201C194.005 61.9638 193.431 63.7745 194.194 65.2453C194.957 66.7161 196.768 67.29 198.239 66.5271L195.476 61.201ZM208.769 61.2206C210.258 60.4924 210.874 58.6955 210.145 57.2073C209.417 55.7191 207.62 55.1031 206.132 55.8313L208.769 61.2206ZM216.913 50.7095C215.408 51.4032 214.751 53.1853 215.444 54.69C216.138 56.1946 217.92 56.8521 219.425 56.1584L216.913 50.7095ZM230.191 51.3436C231.712 50.6845 232.41 48.9179 231.75 47.3978C231.091 45.8777 229.325 45.1796 227.805 45.8387L230.191 51.3436ZM238.807 41.216C237.272 41.8406 236.534 43.5909 237.159 45.1256C237.783 46.6602 239.533 47.398 241.068 46.7735L238.807 41.216ZM252.044 42.4498C253.592 41.8598 254.369 40.1264 253.779 38.5781C253.189 37.0299 251.455 36.2531 249.907 36.8431L252.044 42.4498ZM261.103 32.7183C259.542 33.2738 258.727 34.9896 259.282 36.5505C259.838 38.1115 261.554 38.9265 263.115 38.3709L261.103 32.7183ZM274.273 34.5369C275.846 34.0157 276.699 32.3182 276.178 30.7455C275.656 29.1728 273.959 28.3203 272.386 28.8415L274.273 34.5369ZM283.75 25.2125C282.166 25.6994 281.277 27.3779 281.764 28.9616C282.251 30.5453 283.929 31.4344 285.513 30.9475L283.75 25.2125ZM296.83 27.6013C298.424 27.1486 299.349 25.4896 298.896 23.8958C298.444 22.302 296.785 21.3769 295.191 21.8296L296.83 27.6013ZM306.698 18.6937C305.095 19.1123 304.135 20.7512 304.553 22.3543C304.972 23.9574 306.611 24.9177 308.214 24.4991L306.698 18.6937ZM319.666 21.6384C321.278 21.2538 322.272 19.6356 321.888 18.024C321.503 16.4124 319.885 15.4177 318.273 15.8022L319.666 21.6384ZM329.901 13.1567C328.282 13.5073 327.254 15.1042 327.604 16.7236C327.955 18.3429 329.552 19.3714 331.171 19.0208L329.901 13.1567ZM342.735 16.6433C344.361 16.3265 345.423 14.7514 345.106 13.1251C344.789 11.4988 343.214 10.4372 341.588 10.7539L342.735 16.6433ZM353.315 8.59595C351.682 8.87894 350.588 10.4318 350.871 12.0643C351.154 13.6968 352.707 14.7908 354.339 14.5078L353.315 8.59595ZM365.992 12.6114C367.63 12.3621 368.756 10.8321 368.506 9.19412C368.257 7.55613 366.727 6.43038 365.089 6.67968L365.992 12.6114ZM376.895 5.00643C375.252 5.22214 374.095 6.72872 374.311 8.37147C374.527 10.0142 376.033 11.1711 377.676 10.9554L376.895 5.00643ZM389.396 9.53791C391.043 9.35574 392.23 7.87306 392.048 6.22625C391.866 4.57944 390.383 3.39212 388.736 3.57428L389.396 9.53791ZM400.601 2.38368C398.951 2.53238 397.734 3.99065 397.882 5.64081C398.031 7.29098 399.489 8.50817 401.14 8.35947L400.601 2.38368ZM412.907 7.41908C414.56 7.30381 415.806 5.87047 415.691 4.21763C415.576 2.56479 414.143 1.31835 412.49 1.43362L412.907 7.41908ZM424.393 0.72409C422.739 0.805987 421.463 2.21388 421.545 3.86871C421.627 5.52354 423.035 6.79865 424.69 6.71676L424.393 0.72409ZM436.486 6.25204C438.142 6.20349 439.445 4.82156 439.397 3.16542C439.348 1.50928 437.966 0.206069 436.31 0.254622L436.486 6.25204ZM448.233 0.0250766C446.576 0.0403116 445.245 1.39575 445.26 3.05254C445.276 4.70932 446.631 6.04006 448.288 6.02482L448.233 0.0250766ZM460.093 6.03493C461.749 6.05299 463.107 4.72458 463.125 3.06782C463.143 1.41107 461.815 0.0533516 460.158 0.0352826L460.093 6.03493ZM472.081 0.285169C470.424 0.233802 469.04 1.53466 468.989 3.19072C468.938 4.84678 470.238 6.23092 471.895 6.28228L472.081 0.285169ZM483.689 6.76691C485.344 6.85159 486.754 5.57884 486.839 3.92415C486.923 2.26946 485.651 0.859426 483.996 0.774754L483.689 6.76691ZM495.899 1.50406C494.246 1.38607 492.811 2.63016 492.693 4.28281C492.575 5.93545 493.819 7.37084 495.471 7.48883L495.899 1.50406ZM507.237 8.44827C508.887 8.5996 510.347 7.38475 510.499 5.73482C510.65 4.08489 509.435 2.62468 507.785 2.47335L507.237 8.44827ZM519.648 3.68259C518.002 3.49788 516.517 4.68293 516.333 6.32945C516.148 7.97598 517.333 9.46048 518.979 9.64519L519.648 3.68259ZM530.697 11.0803C532.34 11.2984 533.848 10.1438 534.066 8.50133C534.284 6.8589 533.129 5.35062 531.487 5.1325L530.697 11.0803ZM543.291 6.82268C541.653 6.57109 540.121 7.69472 539.87 9.33236C539.618 10.97 540.742 12.5015 542.38 12.7531L543.291 6.82268ZM554.029 14.6651C555.661 14.9503 557.216 13.8583 557.501 12.2261C557.786 10.594 556.694 9.03975 555.062 8.75465L554.029 14.6651ZM566.787 10.9275C565.161 10.6088 563.585 11.6685 563.266 13.2944C562.947 14.9203 564.007 16.4967 565.633 16.8154L566.787 10.9275ZM577.193 19.2059C578.812 19.5582 580.41 18.5314 580.762 16.9125C581.115 15.2935 580.088 13.6954 578.469 13.3431L577.193 19.2059ZM590.095 16.0006C588.484 15.6145 586.864 16.6077 586.478 18.219C586.092 19.8302 587.086 21.4494 588.697 21.8354L590.095 16.0006ZM600.146 24.706C601.748 25.1258 603.388 24.1669 603.808 22.5641C604.228 20.9613 603.269 19.3217 601.666 18.9018L600.146 24.706ZM613.171 22.0461C611.578 21.5924 609.918 22.5164 609.465 24.1099C609.011 25.7035 609.935 27.3631 611.528 27.8168L613.171 22.0461ZM622.843 31.1693C624.427 31.657 626.106 30.7686 626.594 29.1852C627.081 27.6017 626.193 25.9227 624.609 25.4351L622.843 31.1693ZM635.972 29.0686C634.399 28.5469 632.701 29.3989 632.18 30.9714C631.658 32.544 632.51 34.2418 634.083 34.7634L635.972 29.0686ZM645.241 38.5997C646.802 39.1554 648.518 38.3406 649.073 36.7797C649.629 35.2188 648.814 33.503 647.253 32.9472L645.241 38.5997ZM658.449 37.0719C656.9 36.4821 655.167 37.2591 654.577 38.8074C653.987 40.3557 654.764 42.089 656.313 42.6788L658.449 37.0719ZM667.29 47.0003C668.825 47.6243 670.575 46.8859 671.199 45.3511C671.823 43.8162 671.084 42.0661 669.55 41.4421L667.29 47.0003ZM680.553 46.0596C679.032 45.4013 677.266 46.1004 676.608 47.6209C675.95 49.1414 676.649 50.9076 678.169 51.5658L680.553 46.0596ZM688.94 56.3735C690.445 57.0659 692.227 56.407 692.919 54.9018C693.612 53.3965 692.953 51.615 691.448 50.9226L688.94 56.3735ZM702.232 56.0336C700.743 55.307 698.947 55.925 698.221 57.414C697.494 58.903 698.112 60.6991 699.601 61.4258L702.232 56.0336ZM710.14 66.72C711.611 67.4808 713.421 66.9044 714.182 65.4326C714.943 63.9608 714.367 62.1508 712.895 61.39L710.14 66.72ZM723.433 66.9942C721.979 66.1992 720.156 66.7332 719.362 68.1868C718.567 69.6405 719.1 71.4634 720.554 72.2584L723.433 66.9942ZM730.834 78.0384C732.268 78.8675 734.103 78.3767 734.932 76.9422C735.761 75.5076 735.27 73.6727 733.836 72.8436L730.834 78.0384ZM744.098 78.9388C742.684 78.0758 740.838 78.5227 739.975 79.937C739.112 81.3514 739.559 83.1975 740.973 84.0606L744.098 78.9388ZM750.964 90.3236C752.358 91.2205 754.214 90.8182 755.111 89.4251C756.008 88.0319 755.605 86.1755 754.212 85.2787L750.964 90.3236ZM764.17 91.8617C762.799 90.9311 760.933 91.2881 760.003 92.659C759.072 94.0299 759.429 95.8955 760.8 96.826L764.17 91.8617ZM770.474 103.567C771.821 104.531 773.695 104.22 774.659 102.872C775.623 101.525 775.312 99.651 773.964 98.687L770.474 103.567ZM783.588 105.753C782.264 104.755 780.383 105.02 779.386 106.343C778.389 107.666 778.654 109.547 779.977 110.544L783.588 105.753ZM123.844 114.116C125.395 112.907 126.953 111.708 128.518 110.52L124.89 105.741C123.304 106.945 121.726 108.16 120.156 109.384L123.844 114.116ZM137.996 103.51C141.185 101.212 144.403 98.9554 147.647 96.739L144.263 91.7846C140.977 94.029 137.719 96.3146 134.489 98.6414L137.996 103.51ZM157.464 90.2095C160.763 88.0733 164.089 85.9777 167.439 83.9226L164.302 78.8081C160.91 80.8885 157.543 83.0102 154.203 85.1731L157.464 90.2095ZM177.565 77.8791C180.964 75.9059 184.387 73.9732 187.833 72.0812L184.945 66.8218C181.457 68.7367 177.993 70.6929 174.553 72.6902L177.565 77.8791ZM198.239 66.5271C201.727 64.7178 205.238 62.9489 208.769 61.2206L206.132 55.8313C202.558 57.5801 199.006 59.37 195.476 61.201L198.239 66.5271ZM219.425 56.1584C222.994 54.513 226.583 52.9081 230.191 51.3436L227.805 45.8387C224.155 47.4213 220.524 49.0449 216.913 50.7095L219.425 56.1584ZM241.068 46.7735C244.709 45.2919 248.368 43.8507 252.044 42.4498L249.907 36.8431C246.189 38.2598 242.489 39.7175 238.807 41.216L241.068 46.7735ZM263.115 38.3709C266.818 37.0527 270.538 35.7747 274.273 34.5369L272.386 28.8415C268.61 30.093 264.848 31.3853 261.103 32.7183L263.115 38.3709ZM285.513 30.9475C289.272 29.792 293.044 28.6766 296.83 27.6013L295.191 21.8296C291.364 22.9166 287.55 24.0442 283.75 25.2125L285.513 30.9475ZM308.214 24.4991C312.019 23.5055 315.837 22.5519 319.666 21.6384L318.273 15.8022C314.404 16.7256 310.545 17.6894 306.698 18.6937L308.214 24.4991ZM331.171 19.0208C335.016 18.1884 338.871 17.3959 342.735 16.6433L341.588 10.7539C337.683 11.5145 333.787 12.3154 329.901 13.1567L331.171 19.0208ZM354.339 14.5078C358.216 13.8359 362.1 13.2037 365.992 12.6114L365.089 6.67968C361.157 7.27821 357.231 7.91696 353.315 8.59595L354.339 14.5078ZM377.676 10.9554C381.577 10.4432 385.484 9.97069 389.396 9.53791L388.736 3.57428C384.783 4.01154 380.836 4.48893 376.895 5.00643L377.676 10.9554ZM401.14 8.35947C405.058 8.00638 408.981 7.69292 412.907 7.41908L412.49 1.43362C408.523 1.71027 404.56 2.02695 400.601 2.38368L401.14 8.35947ZM424.69 6.71676C428.62 6.52228 432.552 6.36737 436.486 6.25204L436.31 0.254622C432.336 0.371128 428.363 0.527617 424.393 0.72409L424.69 6.71676ZM448.288 6.02482C452.222 5.98864 456.158 5.99201 460.093 6.03493L460.158 0.0352826C456.183 -0.00807166 452.208 -0.0114737 448.233 0.0250766L448.288 6.02482ZM471.895 6.28228C475.828 6.40428 479.76 6.56583 483.689 6.76691L483.996 0.774754C480.026 0.57161 476.054 0.408415 472.081 0.285169L471.895 6.28228ZM495.471 7.48883C499.397 7.76908 503.319 8.08889 507.237 8.44827L507.785 2.47335C503.827 2.11028 499.864 1.78718 495.899 1.50406L495.471 7.48883ZM518.979 9.64519C522.891 10.0839 526.797 10.5623 530.697 11.0803L531.487 5.1325C527.546 4.60917 523.6 4.12587 519.648 3.68259L518.979 9.64519ZM542.38 12.7531C546.27 13.3508 550.154 13.9881 554.029 14.6651L555.062 8.75465C551.146 8.07056 547.222 7.42657 543.291 6.82268L542.38 12.7531ZM565.633 16.8154C569.495 17.5725 573.349 18.3693 577.193 19.2059L578.469 13.3431C574.584 12.4977 570.69 11.6925 566.787 10.9275L565.633 16.8154ZM588.697 21.8354C592.524 22.7524 596.341 23.7093 600.146 24.706L601.666 18.9018C597.82 17.8944 593.963 16.9274 590.095 16.0006L588.697 21.8354ZM611.528 27.8168C615.313 28.8944 619.085 30.0119 622.843 31.1693L624.609 25.4351C620.81 24.2651 616.997 23.1354 613.171 22.0461L611.528 27.8168ZM634.083 34.7634C637.817 36.0022 641.537 37.2809 645.241 38.5997L647.253 32.9472C643.508 31.6138 639.747 30.321 635.972 29.0686L634.083 34.7634ZM656.313 42.6788C659.989 44.0792 663.648 45.5197 667.29 47.0003L669.55 41.4421C665.867 39.9448 662.166 38.488 658.449 37.0719L656.313 42.6788ZM678.169 51.5658C681.779 53.1282 685.369 54.7308 688.94 56.3735L691.448 50.9226C687.835 49.2609 684.203 47.6399 680.553 46.0596L678.169 51.5658ZM699.601 61.4258C703.135 63.1503 706.648 64.915 710.14 66.72L712.895 61.39C709.362 59.5637 705.807 57.7783 702.232 56.0336L699.601 61.4258ZM720.554 72.2584C724.004 74.1448 727.43 76.0715 730.834 78.0384L733.836 72.8436C730.392 70.853 726.924 68.9032 723.433 66.9942L720.554 72.2584ZM740.973 84.0606C744.328 86.108 747.659 88.1957 750.964 90.3236L754.212 85.2787C750.866 83.1245 747.495 81.0113 744.098 78.9388L740.973 84.0606ZM760.8 96.826C764.051 99.0329 767.276 101.28 770.474 103.567L773.964 98.687C770.727 96.3711 767.461 94.096 764.17 91.8617L760.8 96.826ZM779.977 110.544C781.547 111.727 783.109 112.92 784.665 114.123L788.335 109.377C786.76 108.159 785.177 106.951 783.588 105.753L779.977 110.544Z" fill="#854D0F"/>
</svg>
