<svg width="1370" height="747" viewBox="0 0 1370 747" fill="none" xmlns="http://www.w3.org/2000/svg">
<path d="M377.68 124.602C376.742 123.352 376.059 122.004 375.629 120.559C375.199 119.074 374.984 117.355 374.984 115.402C374.984 112.707 374.301 110.109 372.934 107.609C371.566 105.109 369.984 102.473 368.188 99.6992C366.391 96.8867 364.809 93.7031 363.441 90.1484C362.074 86.5547 361.391 82.3359 361.391 77.4922C361.391 72.2969 362.445 67.4727 364.555 63.0195C366.703 58.5273 369.633 54.6016 373.344 51.2422C377.094 47.8438 381.43 45.207 386.352 43.332C391.273 41.418 396.547 40.4609 402.172 40.4609C407.797 40.4609 413.07 41.418 417.992 43.332C422.914 45.207 427.23 47.8438 430.941 51.2422C434.691 54.6016 437.621 58.5273 439.73 63.0195C441.879 67.4727 442.953 72.2969 442.953 77.4922C442.953 82.3359 442.27 86.5547 440.902 90.1484C439.535 93.7031 437.953 96.8867 436.156 99.6992C434.359 102.473 432.777 105.109 431.41 107.609C430.043 110.109 429.359 112.707 429.359 115.402C429.359 117.355 429.145 119.074 428.715 120.559C428.285 122.004 427.602 123.352 426.664 124.602L418.285 123.547C419.809 122.18 420.863 121.008 421.449 120.031C422.035 119.016 422.328 117.473 422.328 115.402C422.328 111.809 423.012 108.547 424.379 105.617C425.746 102.648 427.328 99.7578 429.125 96.9453C430.922 94.0938 432.504 91.125 433.871 88.0391C435.238 84.9141 435.922 81.3984 435.922 77.4922C435.922 73.2734 435.043 69.3477 433.285 65.7148C431.527 62.082 429.105 58.8984 426.02 56.1641C422.934 53.4297 419.34 51.3008 415.238 49.7773C411.176 48.2539 406.82 47.4922 402.172 47.4922C397.523 47.4922 393.148 48.2539 389.047 49.7773C384.984 51.3008 381.41 53.4297 378.324 56.1641C375.238 58.8984 372.816 62.082 371.059 65.7148C369.301 69.3477 368.422 73.2734 368.422 77.4922C368.422 81.4375 369.105 84.9727 370.473 88.0977C371.84 91.2227 373.422 94.1914 375.219 97.0039C377.016 99.8164 378.598 102.707 379.965 105.676C381.332 108.605 382.016 111.848 382.016 115.402C382.016 117.473 382.309 119.016 382.895 120.031C383.48 121.008 384.535 122.18 386.059 123.547L377.68 124.602ZM402.172 163.508C398.148 163.508 395.082 162.531 392.973 160.578C390.863 158.625 389.809 156.105 389.809 153.02C391.762 154.465 394.301 155.422 397.426 155.891C400.59 156.398 403.734 156.398 406.859 155.891C410.023 155.422 412.582 154.465 414.535 153.02C414.535 156.105 413.48 158.625 411.371 160.578C409.301 162.531 406.234 163.508 402.172 163.508ZM402.172 154.191V149.504L417.113 147.16V151.848L402.172 154.191ZM387.289 147.453V142.766L422.152 137.258V141.945L387.289 147.453ZM402.172 158.879C397.914 158.879 394.008 158.234 390.453 156.945C386.938 155.656 384.77 153.801 383.949 151.379L380.844 137.023C379.516 135.422 378.578 133.859 378.031 132.336C377.484 130.773 377.211 128.84 377.211 126.535H384.242C384.242 128.332 384.418 129.641 384.77 130.461C385.16 131.242 386 132.316 387.289 133.684L390.688 150.383C391.117 150.891 392.504 151.457 394.848 152.082C397.191 152.707 399.633 153.02 402.172 153.02C404.711 153.02 407.152 152.707 409.496 152.082C411.84 151.457 413.227 150.891 413.656 150.383L417.055 133.684C418.344 132.316 419.164 131.242 419.516 130.461C419.906 129.641 420.102 128.332 420.102 126.535H427.133C427.133 128.84 426.859 130.773 426.312 132.336C425.805 133.859 424.867 135.422 423.5 137.023L420.395 151.379C419.574 153.801 417.406 155.656 413.891 156.945C410.375 158.234 406.469 158.879 402.172 158.879ZM387.289 138.371V133.684L422.152 128.176V132.863L387.289 138.371ZM402.172 131.633C396.391 131.633 391.332 131.164 386.996 130.227C382.699 129.289 379.281 127.98 376.742 126.301C376.312 125.988 375.883 125.52 375.453 124.895C375.023 124.27 374.809 123.41 374.809 122.316C374.809 121.535 375.062 120.812 375.57 120.148C376.078 119.484 376.82 119.152 377.797 119.152C378.383 119.152 378.832 119.289 379.145 119.562C381.293 121.438 384.301 122.707 388.168 123.371C392.035 124.035 396.703 124.367 402.172 124.367C407.641 124.367 412.309 124.035 416.176 123.371C420.043 122.707 423.051 121.438 425.199 119.562C425.512 119.289 425.961 119.152 426.547 119.152C427.562 119.152 428.305 119.484 428.773 120.148C429.281 120.812 429.535 121.535 429.535 122.316C429.535 123.41 429.32 124.27 428.891 124.895C428.461 125.52 428.031 125.988 427.602 126.301C425.062 127.98 421.645 129.289 417.348 130.227C413.051 131.164 407.992 131.633 402.172 131.633ZM392.68 128.645C393.227 124.855 393.617 121.633 393.852 118.977C394.125 116.281 394.262 114.074 394.262 112.355C394.262 110.559 394.184 109.426 394.027 108.957C393.91 108.449 393.559 108 392.973 107.609C391.176 106.359 389.613 105.148 388.285 103.977C386.957 102.805 386.293 101.496 386.293 100.051C386.293 99.0742 386.43 97.9805 386.703 96.7695C387.016 95.5586 387.426 94.1328 387.934 92.4922L389.047 88.7422C388.07 86.2422 387.152 83.5859 386.293 80.7734C385.434 77.9219 385.004 75.207 385.004 72.6289C385.004 70.793 385.453 69.3281 386.352 68.2344C387.25 67.1406 388.48 66.5938 390.043 66.5938C393.324 66.5938 394.965 69.2891 394.965 74.6797C394.965 76.8281 394.75 78.9961 394.32 81.1836C393.93 83.332 393.402 85.7344 392.738 88.3906C393.402 90.0312 394.203 91.5156 395.141 92.8438C396.078 94.1328 396.742 94.7773 397.133 94.7773C397.406 94.7773 397.816 94.3867 398.363 93.6055C398.949 92.7852 399.496 91.75 400.004 90.5C399.145 88.4297 398.383 85.9102 397.719 82.9414C397.055 79.9727 396.723 77.3555 396.723 75.0898C396.723 69.4648 398.539 66.6523 402.172 66.6523C404.242 66.6523 405.668 67.4727 406.449 69.1133C407.23 70.7539 407.621 72.7461 407.621 75.0898C407.621 77.3555 407.289 79.9727 406.625 82.9414C406 85.9102 405.238 88.4297 404.34 90.5C404.887 91.75 405.434 92.7852 405.98 93.6055C406.527 94.3867 406.938 94.7773 407.211 94.7773C407.641 94.7773 408.305 94.1328 409.203 92.8438C410.141 91.5156 410.941 90.0312 411.605 88.3906C410.98 85.7344 410.453 83.332 410.023 81.1836C409.594 78.9961 409.379 76.8281 409.379 74.6797C409.379 69.2891 411.02 66.5938 414.301 66.5938C415.863 66.5938 417.094 67.1406 417.992 68.2344C418.891 69.3281 419.34 70.793 419.34 72.6289C419.34 75.207 418.91 77.9219 418.051 80.7734C417.23 83.5859 416.312 86.2422 415.297 88.7422L416.41 92.4922C416.918 94.1328 417.309 95.5586 417.582 96.7695C417.895 97.9805 418.051 99.0742 418.051 100.051C418.051 101.496 417.387 102.805 416.059 103.977C414.73 105.148 413.168 106.359 411.371 107.609C410.785 108 410.414 108.449 410.258 108.957C410.141 109.426 410.082 110.559 410.082 112.355C410.082 114.074 410.219 116.281 410.492 118.977C410.766 121.633 411.156 124.855 411.664 128.645H407.973C407.465 125.402 407.074 122.453 406.801 119.797C406.566 117.141 406.449 114.816 406.449 112.824C406.449 110.324 406.645 108.527 407.035 107.434C407.465 106.301 408.285 105.363 409.496 104.621C411.41 103.449 412.699 102.512 413.363 101.809C414.027 101.066 414.359 100.324 414.359 99.582C414.359 98.8008 414.203 97.9414 413.891 97.0039C413.617 96.0664 413.285 94.9141 412.895 93.5469V93.4883C411.996 95.0117 411.039 96.2031 410.023 97.0625C409.047 97.8828 408.109 98.293 407.211 98.293C405.414 98.293 403.734 96.8477 402.172 93.957C400.609 96.8477 398.93 98.293 397.133 98.293C396.234 98.293 395.277 97.8828 394.262 97.0625C393.285 96.2031 392.348 95.0117 391.449 93.4883V93.5469C391.059 94.9141 390.707 96.0664 390.395 97.0039C390.121 97.9414 389.984 98.8008 389.984 99.582C389.984 100.324 390.316 101.066 390.98 101.809C391.645 102.512 392.934 103.449 394.848 104.621C396.098 105.363 396.918 106.301 397.309 107.434C397.699 108.527 397.895 110.324 397.895 112.824C397.895 116.809 397.387 122.082 396.371 128.645H392.68ZM390.043 84.7578C390.512 82.6484 390.863 80.793 391.098 79.1914C391.332 77.5898 391.449 76.125 391.449 74.7969C391.449 73.2734 391.312 72.1211 391.039 71.3398C390.805 70.5195 390.473 70.1094 390.043 70.1094C389.027 70.1094 388.52 70.9492 388.52 72.6289C388.52 74.1914 388.754 75.9883 389.223 78.0195C389.691 80.0508 390.355 82.2188 391.215 84.5234L390.043 84.7578ZM402.172 86.5742C402.719 84.7383 403.188 82.7266 403.578 80.5391C403.969 78.3125 404.164 76.457 404.164 74.9727C404.164 71.6914 403.5 70.0508 402.172 70.0508C400.844 70.0508 400.18 71.6914 400.18 74.9727C400.18 76.457 400.375 78.3125 400.766 80.5391C401.195 82.7266 401.664 84.7383 402.172 86.5742ZM414.301 84.7578L413.129 84.5234C413.988 82.2188 414.652 80.0508 415.121 78.0195C415.59 75.9883 415.824 74.1914 415.824 72.6289C415.824 70.9492 415.316 70.1094 414.301 70.1094C413.871 70.1094 413.52 70.5195 413.246 71.3398C413.012 72.1211 412.895 73.2734 412.895 74.7969C412.895 76.125 413.012 77.5898 413.246 79.1914C413.48 80.793 413.832 82.6484 414.301 84.7578Z" fill="#172554"/>
<path d="M127.617 462.859C120.273 462.859 113.867 461.707 108.398 459.402C102.93 457.098 98.5742 453.992 95.332 450.086C92.3633 450.828 89.2383 451.414 85.957 451.844C82.7148 452.234 79.5312 452.43 76.4062 452.43C69.4922 452.43 62.9492 451.551 56.7773 449.793C50.6445 448.035 44.9805 445.438 39.7852 442C34.6289 438.562 30.0586 434.324 26.0742 429.285C22.1289 424.246 18.9062 418.445 16.4062 411.883C18.5938 406.766 21.0156 402.176 23.6719 398.113C26.3672 394.012 29.2578 390.379 32.3438 387.215C35.4297 384.051 38.6719 381.336 42.0703 379.07C45.5078 376.766 49.082 374.891 52.793 373.445C56.543 371.961 60.3906 370.867 64.3359 370.164C68.2812 369.461 72.3047 369.109 76.4062 369.109C83.3984 369.109 89.9023 370.086 95.918 372.039C101.973 373.992 107.5 376.805 112.5 380.477C117.539 384.148 122.012 388.582 125.918 393.777C129.863 398.973 133.203 404.832 135.938 411.355C133.828 416.746 131.172 421.824 127.969 426.59C124.805 431.316 121.367 435.262 117.656 438.426C117.852 440.066 118.262 441.902 118.887 443.934C119.512 445.965 120.273 448.094 121.172 450.32C122.109 452.508 123.125 454.676 124.219 456.824C125.312 458.973 126.445 460.984 127.617 462.859ZM115.664 454.773C114.648 452.82 113.711 450.73 112.852 448.504C112.031 446.277 111.348 444.051 110.801 441.824C110.254 439.598 109.941 437.547 109.863 435.672C113.965 432.547 117.637 428.758 120.879 424.305C124.16 419.812 126.641 415.535 128.32 411.473C126.25 406.941 123.867 402.82 121.172 399.109C118.477 395.398 115.488 392.117 112.207 389.266C108.965 386.414 105.449 384.012 101.66 382.059C97.9102 380.105 93.9258 378.641 89.707 377.664C85.4883 376.648 81.0547 376.141 76.4062 376.141C72.1484 376.141 67.9492 376.59 63.8086 377.488C59.707 378.348 55.7422 379.695 51.9141 381.531C48.0859 383.328 44.4531 385.633 41.0156 388.445C37.6172 391.258 34.4727 394.598 31.582 398.465C28.7305 402.332 26.2109 406.766 24.0234 411.766C25.8594 416.141 28.0859 420.125 30.7031 423.719C33.3594 427.273 36.3477 430.398 39.668 433.094C42.9883 435.789 46.582 438.055 50.4492 439.891C54.3555 441.727 58.4766 443.113 62.8125 444.051C67.1875 444.949 71.7188 445.398 76.4062 445.398C80.2344 445.398 84.1016 445.086 88.0078 444.461C91.9531 443.797 95.4688 442.898 98.5547 441.766C100.742 445.359 103.164 448.152 105.82 450.145C108.516 452.137 111.797 453.68 115.664 454.773ZM76.4062 440.945C70.8594 440.945 65.8008 439.578 61.2305 436.844C56.6602 434.109 53.0078 430.457 50.2734 425.887C47.5391 421.277 46.1719 416.219 46.1719 410.711C46.1719 405.164 47.5391 400.105 50.2734 395.535C53.0078 390.965 56.6602 387.312 61.2305 384.578C65.8008 381.844 70.8594 380.477 76.4062 380.477C81.9531 380.477 87.0117 381.844 91.582 384.578C96.1523 387.312 99.8047 390.965 102.539 395.535C105.273 400.105 106.641 405.164 106.641 410.711C106.641 416.219 105.273 421.277 102.539 425.887C99.8047 430.457 96.1523 434.109 91.582 436.844C87.0117 439.578 81.9531 440.945 76.4062 440.945ZM76.4062 434.5C80.7812 434.5 84.7656 433.426 88.3594 431.277C91.9531 429.129 94.8242 426.258 96.9727 422.664C99.1211 419.031 100.195 415.047 100.195 410.711C100.195 406.336 99.1211 402.352 96.9727 398.758C94.8242 395.164 91.9531 392.293 88.3594 390.145C84.7656 387.996 80.7812 386.922 76.4062 386.922C72.0703 386.922 68.0859 387.996 64.4531 390.145C60.8594 392.293 57.9883 395.164 55.8398 398.758C53.6914 402.352 52.6172 406.336 52.6172 410.711C52.6172 415.047 53.6914 419.031 55.8398 422.664C57.9883 426.258 60.8594 429.129 64.4531 431.277C68.0859 433.426 72.0703 434.5 76.4062 434.5ZM76.4062 425.711C73.6328 425.711 71.0938 425.047 68.7891 423.719C66.4844 422.352 64.6484 420.535 63.2812 418.27C61.9531 416.004 61.2891 413.484 61.2891 410.711C61.2891 407.938 61.9531 405.418 63.2812 403.152C64.6484 400.887 66.4844 399.09 68.7891 397.762C71.0938 396.395 73.6328 395.711 76.4062 395.711C79.2188 395.711 81.7578 396.395 84.0234 397.762C86.3281 399.09 88.1445 400.887 89.4727 403.152C90.8398 405.418 91.5234 407.938 91.5234 410.711C91.5234 413.484 90.8398 416.004 89.4727 418.27C88.1445 420.535 86.3281 422.352 84.0234 423.719C81.7578 425.047 79.2188 425.711 76.4062 425.711Z" fill="#172554"/>
<path d="M1293.17 365.508C1285.09 362.812 1277.86 358.535 1271.49 352.676C1265.12 346.816 1259.71 339.551 1255.26 330.879C1250.85 322.207 1247.49 312.305 1245.18 301.172C1242.88 290 1241.73 277.793 1241.73 264.551V259.395C1254.34 258.574 1265.01 256.68 1273.72 253.711C1282.47 250.703 1288.95 246.953 1293.17 242.461C1297.39 246.953 1303.88 250.703 1312.62 253.711C1321.38 256.68 1332.04 258.574 1344.62 259.395V264.551C1344.62 277.793 1343.46 290 1341.16 301.172C1338.86 312.305 1335.48 322.207 1331.02 330.879C1326.61 339.551 1321.22 346.816 1314.85 352.676C1308.48 358.535 1301.26 362.812 1293.17 365.508ZM1293.17 358.066C1300.05 355.41 1306.2 351.367 1311.63 345.938C1317.1 340.508 1321.75 333.867 1325.57 326.016C1329.4 318.125 1332.33 309.141 1334.36 299.062C1336.43 288.984 1337.51 277.949 1337.59 265.957C1328.41 265.137 1319.97 263.496 1312.27 261.035C1304.58 258.574 1298.21 255.508 1293.17 251.836C1288.13 255.508 1281.77 258.574 1274.07 261.035C1266.41 263.496 1257.98 265.137 1248.76 265.957C1248.84 277.949 1249.89 288.984 1251.92 299.062C1253.99 309.141 1256.94 318.125 1260.77 326.016C1264.6 333.867 1269.23 340.508 1274.66 345.938C1280.12 351.367 1286.3 355.41 1293.17 358.066ZM1293.17 349.16C1286.96 346.699 1281.53 342.969 1276.88 337.969C1272.23 332.969 1268.37 327.031 1265.28 320.156C1262.23 313.281 1259.93 305.762 1258.37 297.598C1256.84 289.395 1256.08 280.879 1256.08 272.051C1264.13 271.23 1271.16 269.902 1277.18 268.066C1283.23 266.23 1288.56 263.496 1293.17 259.863C1297.82 263.496 1303.15 266.23 1309.17 268.066C1315.18 269.902 1322.21 271.23 1330.26 272.051C1330.26 280.879 1329.48 289.395 1327.92 297.598C1326.39 305.762 1324.09 313.281 1321 320.156C1317.96 327.031 1314.11 332.969 1309.46 337.969C1304.81 342.969 1299.38 346.699 1293.17 349.16ZM1293.17 342.832V267.188C1289.15 269.766 1284.62 271.855 1279.58 273.457C1274.58 275.02 1268.74 276.289 1262.06 277.266C1262.41 288.047 1263.89 297.832 1266.51 306.621C1269.13 315.41 1272.7 322.891 1277.23 329.062C1281.77 335.234 1287.08 339.824 1293.17 342.832Z" fill="#172554"/>
<path d="M333.047 738.508L330.645 722.102C329.707 715.734 328.73 710.441 327.715 706.223C326.699 702.004 325.449 698.586 323.965 695.969C322.48 693.352 320.586 691.301 318.281 689.816C316.016 688.293 313.164 687.062 309.727 686.125C306.328 685.148 302.168 684.172 297.246 683.195L287.93 681.379V672.59L297.246 670.773C302.168 669.797 306.328 668.84 309.727 667.902C313.164 666.926 316.016 665.695 318.281 664.211C320.586 662.688 322.48 660.617 323.965 658C325.449 655.383 326.699 651.965 327.715 647.746C328.73 643.527 329.707 638.234 330.645 631.867L333.047 615.461H341.953L344.355 631.867C345.293 638.234 346.27 643.527 347.285 647.746C348.301 651.965 349.551 655.383 351.035 658C352.52 660.617 354.395 662.688 356.66 664.211C358.965 665.695 361.816 666.926 365.215 667.902C368.652 668.84 372.832 669.797 377.754 670.773L387.07 672.59V681.379L377.754 683.195C372.832 684.172 368.652 685.148 365.215 686.125C361.816 687.062 358.965 688.293 356.66 689.816C354.395 691.301 352.52 693.352 351.035 695.969C349.551 698.586 348.301 702.004 347.285 706.223C346.27 710.402 345.293 715.695 344.355 722.102L341.953 738.508H333.047ZM268.418 738.508L266.25 728.723C265.391 724.855 264.629 721.906 263.965 719.875C263.301 717.883 262.344 716.418 261.094 715.48C259.844 714.504 257.93 713.664 255.352 712.961L245.273 710.148V701.125L255.352 698.312C257.93 697.57 259.844 696.73 261.094 695.793C262.344 694.855 263.301 693.391 263.965 691.398C264.629 689.367 265.391 686.418 266.25 682.551L268.418 672.766H277.676L279.844 682.551C280.703 686.418 281.465 689.367 282.129 691.398C282.793 693.391 283.75 694.855 285 695.793C286.25 696.73 288.164 697.57 290.742 698.312L300.82 701.125V710.148L290.742 712.961C288.164 713.664 286.25 714.504 285 715.48C283.75 716.418 282.793 717.883 282.129 719.875C281.465 721.906 280.703 724.855 279.844 728.723L277.676 738.508H268.418ZM273.34 726.906C273.965 723.234 274.668 720.207 275.449 717.824C276.23 715.441 277.246 713.508 278.496 712.023C279.785 710.5 281.445 709.289 283.477 708.391C285.508 707.453 288.105 706.633 291.27 705.93V705.344C288.105 704.641 285.508 703.84 283.477 702.941C281.445 702.004 279.785 700.793 278.496 699.309C277.246 697.785 276.23 695.832 275.449 693.449C274.668 691.066 273.965 688.039 273.34 684.367H272.754C272.129 688.039 271.426 691.066 270.645 693.449C269.863 695.832 268.828 697.785 267.539 699.309C266.289 700.793 264.648 702.004 262.617 702.941C260.586 703.84 257.988 704.641 254.824 705.344V705.93C257.988 706.633 260.586 707.453 262.617 708.391C264.648 709.289 266.289 710.5 267.539 712.023C268.828 713.508 269.863 715.441 270.645 717.824C271.426 720.207 272.129 723.234 272.754 726.906H273.34ZM277.852 667.492L276.27 659.699C275.684 656.652 275.059 654.328 274.395 652.727C273.77 651.125 272.734 649.914 271.289 649.094C269.883 648.234 267.676 647.473 264.668 646.809L259.219 645.578V637.375L264.668 636.145C267.676 635.441 269.883 634.68 271.289 633.859C272.734 633.039 273.77 631.828 274.395 630.227C275.059 628.586 275.684 626.262 276.27 623.254L277.852 615.461H286.641L288.223 623.254C288.848 626.262 289.473 628.586 290.098 630.227C290.723 631.828 291.758 633.039 293.203 633.859C294.648 634.68 296.855 635.441 299.824 636.145L305.273 637.375V645.578L299.824 646.809C296.855 647.473 294.648 648.234 293.203 649.094C291.758 649.914 290.723 651.125 290.098 652.727C289.473 654.328 288.848 656.652 288.223 659.699L286.641 667.492H277.852ZM282.539 658.176C283.008 655.285 283.535 652.902 284.121 651.027C284.746 649.152 285.547 647.648 286.523 646.516C287.539 645.344 288.848 644.406 290.449 643.703C292.051 643 294.102 642.355 296.602 641.77V641.184C294.102 640.598 292.051 639.953 290.449 639.25C288.848 638.547 287.539 637.629 286.523 636.496C285.547 635.324 284.746 633.801 284.121 631.926C283.535 630.051 283.008 627.668 282.539 624.777H281.953C281.484 627.668 280.938 630.051 280.312 631.926C279.727 633.801 278.926 635.324 277.91 636.496C276.934 637.629 275.645 638.547 274.043 639.25C272.441 639.953 270.391 640.598 267.891 641.184V641.77C270.391 642.355 272.441 643 274.043 643.703C275.645 644.406 276.934 645.344 277.91 646.516C278.926 647.648 279.727 649.152 280.312 651.027C280.938 652.902 281.484 655.285 281.953 658.176H282.539ZM337.793 717.941C338.535 712.98 339.316 708.664 340.137 704.992C340.996 701.281 341.992 698.078 343.125 695.383C344.258 692.688 345.605 690.402 347.168 688.527C348.73 686.613 350.586 684.992 352.734 683.664C354.922 682.297 357.48 681.125 360.41 680.148C363.379 679.133 366.797 678.176 370.664 677.277V676.691C366.797 675.793 363.379 674.855 360.41 673.879C357.48 672.863 354.922 671.691 352.734 670.363C350.586 668.996 348.73 667.375 347.168 665.5C345.605 663.586 344.258 661.281 343.125 658.586C341.992 655.891 340.996 652.707 340.137 649.035C339.316 645.324 338.535 640.988 337.793 636.027H337.207C336.465 640.988 335.664 645.324 334.805 649.035C333.984 652.707 333.008 655.891 331.875 658.586C330.742 661.281 329.395 663.586 327.832 665.5C326.27 667.375 324.395 668.996 322.207 670.363C320.059 671.691 317.5 672.863 314.531 673.879C311.602 674.855 308.203 675.793 304.336 676.691V677.277C308.203 678.176 311.602 679.133 314.531 680.148C317.5 681.125 320.059 682.297 322.207 683.664C324.395 684.992 326.27 686.613 327.832 688.527C329.395 690.402 330.742 692.688 331.875 695.383C333.008 698.078 333.984 701.281 334.805 704.992C335.664 708.664 336.465 712.98 337.207 717.941H337.793Z" fill="#172554"/>
<path d="M1063.99 675.707L1058.3 676.82L1054.67 656.84L1060.3 655.727L1063.99 675.707ZM1026.55 621.918L1025.49 627.602L1005.51 623.969L1006.57 618.227L1026.55 621.918ZM1085.08 668.5L1080.86 672.719L1062.29 654.262L1066.39 650.16L1085.08 668.5ZM1032.29 615.707L1028.13 619.867L1009.5 601.469L1013.66 597.309L1032.29 615.707ZM1039.91 613.305L1034.16 614.359L1030.53 594.379L1036.27 593.324L1039.91 613.305ZM1089.01 645.883L1087.95 651.625L1067.97 647.992L1069.14 642.25L1089.01 645.883ZM1051.62 625.434L1054.61 632.641L1068.15 619.105C1069.2 618.051 1069.73 617.016 1069.73 616C1069.77 614.945 1069.44 614.086 1068.73 613.422C1068.07 612.719 1067.21 612.387 1066.16 612.426C1065.14 612.426 1064.11 612.953 1063.05 614.008L1051.62 625.434ZM1072.37 623.09L1052.56 642.895L1044.89 623.969L1059.07 609.789C1060.86 607.953 1062.76 606.938 1064.75 606.742C1066.78 606.547 1068.64 606.938 1070.32 607.914C1072 608.852 1073.3 610.16 1074.24 611.84C1075.22 613.52 1075.61 615.355 1075.41 617.348C1075.22 619.34 1074.2 621.254 1072.37 623.09ZM1058.25 632.23L1062.58 627.953C1066.76 630.219 1071.06 631.078 1075.47 630.531C1079.93 629.945 1083.79 627.992 1087.07 624.672L1096.98 614.711C1099.71 611.977 1101.51 608.852 1102.37 605.336C1103.23 601.82 1103.17 598.305 1102.19 594.789C1101.25 591.273 1099.42 588.129 1096.68 585.355C1093.87 582.543 1090.71 580.688 1087.19 579.789C1083.68 578.852 1080.18 578.832 1076.7 579.73C1073.27 580.629 1070.18 582.445 1067.45 585.18L1057.48 595.082C1054.16 598.363 1052.23 602.23 1051.68 606.684C1051.14 611.098 1052 615.395 1054.26 619.574L1049.93 623.91C1047.7 620.355 1046.39 616.566 1046 612.543C1045.61 608.48 1046.06 604.574 1047.35 600.824C1048.64 597.035 1050.65 593.754 1053.38 590.98L1063.29 581.02C1066.68 577.582 1070.65 575.316 1075.18 574.223C1079.71 573.129 1084.24 573.168 1088.77 574.34C1093.34 575.512 1097.35 577.816 1100.79 581.254C1104.18 584.652 1106.49 588.637 1107.7 593.207C1108.91 597.777 1108.97 602.348 1107.88 606.918C1106.82 611.488 1104.59 615.473 1101.2 618.871L1091.23 628.832C1088.46 631.605 1085.18 633.637 1081.39 634.926C1077.64 636.215 1073.73 636.664 1069.67 636.273C1065.65 635.844 1061.84 634.496 1058.25 632.23ZM1068.38 622.27L1071.78 617.523C1073.11 617.68 1074.22 617.621 1075.12 617.348C1076.06 617.074 1076.98 616.488 1077.88 615.59L1087.89 605.57C1089.54 603.93 1090.34 602.113 1090.3 600.121C1090.26 598.09 1089.38 596.176 1087.66 594.379C1085.86 592.66 1083.95 591.781 1081.92 591.742C1079.93 591.703 1078.11 592.504 1076.47 594.145L1066.45 604.164C1065.55 605.062 1064.96 605.98 1064.69 606.918C1064.46 607.855 1064.42 608.969 1064.57 610.258L1059.77 613.656C1058.32 611.156 1057.99 608.637 1058.77 606.098C1059.59 603.559 1060.77 601.527 1062.29 600.004L1072.37 590.043C1075.02 587.426 1078.23 586.137 1081.98 586.176C1085.77 586.176 1089.05 587.523 1091.82 590.219C1094.55 593.031 1095.92 596.332 1095.92 600.121C1095.92 603.871 1094.61 607.074 1092 609.73L1082.09 619.75C1080.53 621.312 1078.48 622.484 1075.94 623.266C1073.44 624.047 1070.92 623.715 1068.38 622.27ZM1031.06 656.195L1042.48 644.77L1039.55 637.562L1025.96 651.098C1024.91 652.113 1024.38 653.148 1024.38 654.203C1024.38 655.219 1024.71 656.059 1025.38 656.723C1026.08 657.387 1026.94 657.719 1027.95 657.719C1029.01 657.719 1030.04 657.211 1031.06 656.195ZM1049.34 646.117L1035.16 660.297C1033.36 662.094 1031.47 663.09 1029.48 663.285C1027.48 663.48 1025.65 663.109 1023.97 662.172C1022.29 661.195 1020.96 659.867 1019.98 658.188C1019.05 656.508 1018.68 654.672 1018.87 652.68C1019.07 650.688 1020.06 648.793 1021.86 646.996L1041.72 627.133L1049.34 646.117ZM1031.94 670.082L1021.98 679.984C1020.22 681.742 1018.17 682.895 1015.82 683.441C1013.48 684.027 1011.12 684.008 1008.73 683.383C1006.39 682.797 1004.3 681.625 1002.46 679.867C1000.67 677.992 999.457 675.883 998.832 673.539C998.207 671.156 998.188 668.793 998.773 666.449C999.359 664.105 1000.53 662.055 1002.29 660.297L1012.31 650.336C1013.83 648.812 1015.86 647.641 1018.4 646.82C1020.94 646 1023.46 646.312 1025.96 647.758L1022.45 652.562C1021.23 652.406 1020.14 652.465 1019.16 652.738C1018.19 653.012 1017.25 653.598 1016.35 654.496L1006.45 664.398C1004.77 666.078 1003.95 667.934 1003.99 669.965C1004.03 671.996 1004.89 673.91 1006.57 675.707C1008.36 677.387 1010.28 678.246 1012.31 678.285C1014.38 678.363 1016.23 677.562 1017.88 675.883L1027.78 665.922C1028.68 665.023 1029.28 664.105 1029.59 663.168C1029.91 662.191 1029.98 661.078 1029.83 659.828L1034.57 656.371C1035.98 658.871 1036.27 661.41 1035.45 663.988C1034.67 666.527 1033.5 668.559 1031.94 670.082ZM1041.02 679.047L1031 689.066C1027.6 692.465 1023.64 694.711 1019.11 695.805C1014.57 696.898 1010.02 696.859 1005.45 695.688C1000.92 694.516 996.918 692.23 993.441 688.832C990.043 685.395 987.758 681.391 986.586 676.82C985.414 672.289 985.375 667.738 986.469 663.168C987.562 658.598 989.809 654.613 993.207 651.215L1003.17 641.254C1005.94 638.48 1009.2 636.469 1012.95 635.219C1016.7 633.93 1020.59 633.48 1024.61 633.871C1028.68 634.262 1032.46 635.59 1035.98 637.855L1031.7 642.133C1027.48 639.867 1023.17 639.027 1018.75 639.613C1014.38 640.16 1010.55 642.074 1007.27 645.355L997.25 655.375C994.516 658.109 992.719 661.234 991.859 664.75C991 668.227 991.059 671.723 992.035 675.238C993.012 678.754 994.887 681.898 997.66 684.672C1000.47 687.445 1003.62 689.301 1007.09 690.238C1010.57 691.215 1014.03 691.254 1017.46 690.355C1020.94 689.457 1024.05 687.641 1026.78 684.906L1036.86 674.887C1040.1 671.645 1042 667.816 1042.54 663.402C1043.13 658.988 1042.29 654.672 1040.02 650.453L1044.36 646.176C1046.66 649.73 1048.01 653.539 1048.4 657.602C1048.79 661.625 1048.34 665.531 1047.05 669.32C1045.77 673.07 1043.75 676.312 1041.02 679.047Z" fill="#172554"/>
<path d="M631.012 386.926C632.301 387.316 633.863 387.473 635.699 387.395C637.574 387.316 639.098 386.984 640.27 386.398C642.691 385.227 645.172 385.07 647.711 385.93L658.609 389.504L662.77 385.051L649.703 380.539C647.203 379.68 645.426 377.922 644.371 375.266C643.824 373.898 642.926 372.57 641.676 371.281C640.426 369.953 639.176 369.016 637.926 368.469L640.152 363.078C642.691 364.094 644.742 365.52 646.305 367.355C647.906 369.152 649.098 371.086 649.879 373.156C650.23 374.094 650.836 374.719 651.695 375.031L673.434 382.238L660.367 396.184L645.836 391.438C644.859 391.125 643.863 391.203 642.848 391.672C640.973 392.531 638.785 393.078 636.285 393.312C633.824 393.547 631.422 393.234 629.078 392.375L631.012 386.926ZM654.801 376.848L657.203 370.812L656.617 364.836L670.855 369.934L666.402 374.27L664.117 380.012L654.801 376.848ZM615.719 381.242L631.07 386.867C631.305 386.945 631.715 386.652 632.301 385.988C632.887 385.285 633.551 384.289 634.293 383C635.074 381.711 635.797 380.188 636.461 378.43C637.594 375.5 638.258 373.156 638.453 371.398C638.648 369.641 638.473 368.664 637.926 368.469L583.141 346.32L585.367 340.93L640.152 363.078C642.848 364.172 644.234 366.281 644.312 369.406C644.43 372.531 643.648 376.242 641.969 380.539C640.367 384.68 638.473 387.941 636.285 390.324C634.137 392.668 631.734 393.352 629.078 392.375L613.785 386.809L615.719 381.242ZM543.18 364.602L545.055 359.094L570.777 367.59C571.168 367.707 571.812 367.473 572.711 366.887C574.078 365.949 575.348 364.562 576.52 362.727C577.73 360.891 578.746 358.859 579.566 356.633C580.426 354.367 581.031 352.141 581.383 349.953C581.734 347.766 581.734 345.852 581.383 344.211C581.188 343.195 580.895 342.629 580.504 342.512L554.195 331.262L556.539 325.871L582.789 337.121C585.055 338.098 586.5 340.07 587.125 343.039C587.594 345.227 587.613 347.707 587.184 350.48C586.793 353.254 586.07 356.027 585.016 358.801C583.961 361.535 582.672 364.055 581.148 366.359C579.625 368.664 577.945 370.441 576.109 371.691C574.977 372.473 573.785 373.02 572.535 373.332C571.324 373.645 570.152 373.605 569.02 373.215L543.18 364.602ZM613.199 386.398L640.445 437.375L635.113 440.422L607.867 389.445L613.199 386.398ZM604.176 387.98H610.387V448.508H604.176V387.98ZM602.301 384.348L607.633 387.395L579.449 440.422L574.117 437.375L602.301 384.348ZM602.477 382.707L573.414 372.043L575.406 366.535L604.527 377.199L602.477 382.707ZM612.555 373.039C613.102 372.531 613.824 371.574 614.723 370.168C615.621 368.723 616.461 366.984 617.242 364.953L622.75 367.062C621.891 369.25 620.953 371.223 619.938 372.98C618.922 374.738 617.828 376.145 616.656 377.199L612.555 373.039ZM538.668 342.57C540.23 337.609 542.457 333.527 545.348 330.324C548.277 327.082 551.207 325.461 554.137 325.461C554.879 325.461 555.602 325.578 556.305 325.812C559.547 326.906 561.539 329.543 562.281 333.723C563.062 337.863 562.574 342.57 560.816 347.844C559.098 353 556.852 357.16 554.078 360.324C551.305 363.449 548.473 365.012 545.582 365.012C544.723 365.012 543.902 364.875 543.121 364.602C541.09 363.82 539.547 362.414 538.492 360.383C537.438 358.312 536.91 355.812 536.91 352.883C536.91 349.758 537.496 346.32 538.668 342.57ZM546.402 344.27C545.621 346.105 545.23 348.02 545.23 350.012C545.27 352.004 545.602 353.742 546.227 355.227C546.852 356.672 547.672 357.492 548.688 357.688C549.859 356.398 551.031 354.738 552.203 352.707C553.414 350.676 554.41 348.43 555.191 345.969C555.777 344.133 556.207 342.375 556.48 340.695C556.754 339.016 556.852 337.473 556.773 336.066C555.992 335.598 554.938 335.656 553.609 336.242C552.281 336.828 550.953 337.824 549.625 339.23C548.297 340.637 547.223 342.316 546.402 344.27ZM613.902 381.359C613.902 379.992 613.551 378.957 612.848 378.254C612.184 377.551 611.402 377.199 610.504 377.199C609.645 377.199 608.863 377.551 608.16 378.254C607.457 378.957 607.105 379.992 607.105 381.359C607.105 382.688 607.457 383.723 608.16 384.465C608.863 385.168 609.645 385.52 610.504 385.52C611.402 385.52 612.184 385.168 612.848 384.465C613.551 383.723 613.902 382.688 613.902 381.359ZM602.008 381.359C602.008 378.234 602.906 375.773 604.703 373.977C606.5 372.18 608.434 371.281 610.504 371.281C612.574 371.281 614.508 372.18 616.305 373.977C618.102 375.773 619 378.234 619 381.359C619 384.445 618.102 386.906 616.305 388.742C614.508 390.539 612.574 391.438 610.504 391.438C608.434 391.438 606.5 390.539 604.703 388.742C602.906 386.906 602.008 384.445 602.008 381.359ZM593.922 381.359C593.922 379.758 594.195 378.312 594.742 377.023L604.527 380.012L605.406 384.523L610.504 391.438H602.418C600.348 391.438 598.414 390.539 596.617 388.742C594.82 386.906 593.922 384.445 593.922 381.359Z" fill="#172554"/>
<path d="M870.031 112.996C873.703 110.223 877.277 106.961 880.754 103.211C884.27 99.4609 887.16 94.9102 889.426 89.5586C891.691 84.168 892.824 77.7031 892.824 70.1641C892.824 68.9531 892.57 67.9766 892.062 67.2344C891.594 66.4531 890.422 65.5156 888.547 64.4219C886.203 63.0547 883.84 61.3945 881.457 59.4414C879.074 57.4492 876.965 55.2812 875.129 52.9375C873.332 50.5938 872.082 48.1719 871.379 45.6719C874.699 45.6719 878.508 45.4766 882.805 45.0859C887.141 44.6563 891.535 44.0898 895.988 43.3867C900.48 42.6445 904.68 41.8242 908.586 40.9258C912.492 39.9883 915.676 39.0117 918.137 37.9961C917.863 43.7383 916.223 48.6797 913.215 52.8203C910.246 56.9219 905.676 60.5938 899.504 63.8359C897.707 64.7734 896.535 65.6523 895.988 66.4727C895.48 67.293 895.227 68.3867 895.227 69.7539C895.227 77.0586 896.008 83.3281 897.57 88.5625C899.172 93.7969 901.828 98.3086 905.539 102.098C909.25 105.887 914.27 109.305 920.598 112.352L870.031 112.996ZM894.172 132.508C888.312 132.508 882.824 132.293 877.707 131.863C872.59 131.434 868.195 130.848 864.523 130.105C860.852 129.363 858.234 128.523 856.672 127.586C855.852 127.078 855.246 126.551 854.855 126.004C854.504 125.457 854.328 124.812 854.328 124.07V113.582H860.832V123.543L859.484 121.434C861.594 122.645 865.754 123.621 871.965 124.363C878.176 125.105 885.578 125.477 894.172 125.477C902.766 125.477 910.168 125.105 916.379 124.363C922.59 123.621 926.75 122.645 928.859 121.434L927.512 123.543V113.582H934.016V124.07C934.016 124.812 933.82 125.457 933.43 126.004C933.078 126.551 932.492 127.078 931.672 127.586C930.148 128.523 927.531 129.363 923.82 130.105C920.148 130.848 915.754 131.434 910.637 131.863C905.52 132.293 900.031 132.508 894.172 132.508ZM894.172 120.379C888.547 120.379 883.312 120.203 878.469 119.852C873.664 119.5 869.445 119.012 865.812 118.387C862.219 117.801 859.406 117.098 857.375 116.277C855.344 115.457 854.328 114.559 854.328 113.582C854.328 112.605 855.344 111.707 857.375 110.887C859.406 110.066 862.219 109.363 865.812 108.777C869.445 108.152 873.664 107.664 878.469 107.312C883.312 106.961 888.547 106.785 894.172 106.785C899.797 106.785 905.012 106.961 909.816 107.312C914.66 107.664 918.879 108.152 922.473 108.777C926.105 109.363 928.938 110.066 930.969 110.887C933 111.707 934.016 112.605 934.016 113.582C934.016 114.559 933 115.457 930.969 116.277C928.938 117.098 926.105 117.801 922.473 118.387C918.879 119.012 914.66 119.5 909.816 119.852C905.012 120.203 899.797 120.379 894.172 120.379ZM857.961 112.176C857.961 102.137 860.129 93.6211 864.465 86.6289C868.801 79.5977 875.793 74.0898 885.441 70.1055V71.8047C875.871 67.8594 868.898 62.4297 864.523 55.5156C860.148 48.5625 857.961 40.125 857.961 30.2031H865.109C865.109 39.1484 867.082 46.7266 871.027 52.9375C874.973 59.1094 881.477 64.1289 890.539 67.9961V73.8555C881.398 77.7617 874.855 82.8594 870.91 89.1484C867.004 95.3984 865.051 103.074 865.051 112.176H857.961ZM923.293 112.176C923.293 103.074 921.32 95.3984 917.375 89.1484C913.469 82.8594 906.945 77.7617 897.805 73.8555V67.9961C906.906 64.1289 913.41 59.1094 917.316 52.9375C921.262 46.7266 923.234 39.1484 923.234 30.2031H930.383C930.383 40.125 928.195 48.5625 923.82 55.5156C919.445 62.4297 912.473 67.8594 902.902 71.8047V70.1055C912.551 74.0898 919.543 79.5977 923.879 86.6289C928.215 93.6211 930.383 102.137 930.383 112.176H923.293ZM894.172 35.7695C888.312 35.7695 882.824 35.5547 877.707 35.125C872.59 34.6953 868.195 34.1094 864.523 33.3672C860.852 32.625 858.234 31.7852 856.672 30.8477C855.852 30.3398 855.246 29.8125 854.855 29.2656C854.504 28.7188 854.328 28.0742 854.328 27.332V16.2578H860.832V26.8047L859.484 24.6953C861.594 25.9063 865.754 26.8828 871.965 27.625C878.176 28.3672 885.578 28.7383 894.172 28.7383C902.766 28.7383 910.168 28.3672 916.379 27.625C922.59 26.8828 926.75 25.9063 928.859 24.6953L927.512 26.8047V16.2578H934.016V27.332C934.016 28.0742 933.82 28.7188 933.43 29.2656C933.078 29.8125 932.492 30.3398 931.672 30.8477C930.148 31.7852 927.531 32.625 923.82 33.3672C920.148 34.1094 915.754 34.6953 910.637 35.125C905.52 35.5547 900.031 35.7695 894.172 35.7695ZM894.172 23.0547C888.547 23.0547 883.312 22.8789 878.469 22.5273C873.664 22.1758 869.445 21.707 865.812 21.1211C862.219 20.4961 859.406 19.7734 857.375 18.9531C855.344 18.1328 854.328 17.2344 854.328 16.2578C854.328 15.2812 855.344 14.3828 857.375 13.5625C859.406 12.7422 862.219 12.0391 865.812 11.4531C869.445 10.8281 873.664 10.3398 878.469 9.98828C883.312 9.63672 888.547 9.46094 894.172 9.46094C899.797 9.46094 905.012 9.63672 909.816 9.98828C914.66 10.3398 918.879 10.8281 922.473 11.4531C926.105 12.0391 928.938 12.7422 930.969 13.5625C933 14.3828 934.016 15.2812 934.016 16.2578C934.016 17.2344 933 18.1328 930.969 18.9531C928.938 19.7734 926.105 20.4961 922.473 21.1211C918.879 21.707 914.66 22.1758 909.816 22.5273C905.012 22.8789 899.797 23.0547 894.172 23.0547Z" fill="#172554"/>
<path d="M153 345L326 172" stroke="#172554" stroke-width="8" stroke-linecap="round"/>
<path d="M682 303L823 147" stroke="#172554" stroke-width="8" stroke-linecap="round"/>
<path d="M483 101L807 79" stroke="#172554" stroke-width="8" stroke-linecap="round"/>
<path d="M454 172L552 303" stroke="#172554" stroke-width="8" stroke-linecap="round"/>
<path d="M1092 567.914L1243 373" stroke="#172554" stroke-width="8" stroke-linecap="round"/>
<path d="M367 612.79L541 431" stroke="#172554" stroke-width="8" stroke-linecap="round"/>
<path d="M678 415L971 590" stroke="#172554" stroke-width="8" stroke-linecap="round"/>
<path d="M964 656L393 676" stroke="#172554" stroke-width="8" stroke-linecap="round"/>
<path d="M169 414.574L509 384" stroke="#172554" stroke-width="8" stroke-linecap="round"/>
<path d="M326 599L385 188" stroke="#172554" stroke-width="8" stroke-linecap="round"/>
<path d="M693 360.574L1202 316" stroke="#172554" stroke-width="8" stroke-linecap="round"/>
<path d="M252 618L125 486" stroke="#172554" stroke-width="8" stroke-linecap="round"/>
<path d="M964 112L1217 267" stroke="#172554" stroke-width="8" stroke-linecap="round"/>
<path d="M914 158L1022 552" stroke="#172554" stroke-width="8" stroke-linecap="round"/>
</svg>
