<svg width="1132" height="444" viewBox="0 0 1132 444" fill="none" xmlns="http://www.w3.org/2000/svg">
<path d="M129.777 289.508C120.871 289.508 112.629 287.965 105.051 284.879C97.5117 281.832 90.9492 277.535 85.3633 271.988C79.7773 266.441 75.4219 259.938 72.2969 252.477C69.2109 244.977 67.668 236.812 67.668 227.984C67.668 219.156 69.2109 211.012 72.2969 203.551C75.4219 196.051 79.7773 189.527 85.3633 183.98C90.9492 178.434 97.5117 174.137 105.051 171.09C112.629 168.004 120.871 166.461 129.777 166.461C139.152 166.461 147.766 168.16 155.617 171.559C163.469 174.918 170.227 179.645 175.891 185.738C181.555 191.793 185.754 198.863 188.488 206.949L182.453 210.992C180.188 203.414 176.535 196.773 171.496 191.07C166.457 185.367 160.383 180.914 153.273 177.711C146.164 174.508 138.332 172.906 129.777 172.906C121.887 172.906 114.582 174.293 107.863 177.066C101.184 179.801 95.3633 183.648 90.4023 188.609C85.4414 193.531 81.5742 199.352 78.8008 206.07C76.0664 212.75 74.6992 220.055 74.6992 227.984C74.6992 235.875 76.0664 243.18 78.8008 249.898C81.5742 256.617 85.4219 262.457 90.3438 267.418C95.3047 272.34 101.145 276.168 107.863 278.902C114.582 281.676 121.887 283.062 129.777 283.062C137.707 283.062 145.012 281.676 151.691 278.902C158.41 276.168 164.23 272.34 169.152 267.418C174.113 262.457 177.961 256.617 180.695 249.898C183.469 243.18 184.855 235.875 184.855 227.984C184.855 227.281 184.836 226.578 184.797 225.875C184.797 225.172 184.777 224.469 184.738 223.766L191.008 217.145C191.594 220.66 191.887 224.273 191.887 227.984C191.887 236.812 190.324 244.977 187.199 252.477C184.113 259.938 179.777 266.441 174.191 271.988C168.605 277.535 162.023 281.832 154.445 284.879C146.906 287.965 138.684 289.508 129.777 289.508ZM154.445 256.754C151.398 254.801 147.629 253.238 143.137 252.066C138.645 250.855 134.191 250.25 129.777 250.25C126.809 250.25 123.469 250.602 119.758 251.305C116.086 251.969 111.926 253.102 107.277 254.703L104.934 248.785C109.191 247.066 113.449 245.816 117.707 245.035C121.965 244.215 125.988 243.805 129.777 243.805C133.566 243.805 137.414 244.254 141.32 245.152C145.227 246.051 149.602 247.359 154.445 249.078V256.754ZM109.152 229.449C106.926 229.449 105.012 228.512 103.41 226.637C101.848 224.723 101.066 222.438 101.066 219.781C101.066 217.125 101.848 214.859 103.41 212.984C105.012 211.07 106.926 210.113 109.152 210.113C111.34 210.113 113.234 211.07 114.836 212.984C116.438 214.859 117.238 217.125 117.238 219.781C117.238 222.398 116.438 224.664 114.836 226.578C113.273 228.492 111.379 229.449 109.152 229.449ZM94.0938 210.348L89.5234 206.773C94.8359 199.898 102.453 196.461 112.375 196.461V202.32C104.484 202.32 98.3906 204.996 94.0938 210.348ZM154.035 252.359L150.402 248.609L166.047 233.141L169.738 236.656L154.035 252.359ZM150.402 229.449C148.176 229.449 146.262 228.512 144.66 226.637C143.098 224.723 142.316 222.438 142.316 219.781C142.316 217.125 143.098 214.859 144.66 212.984C146.262 211.07 148.176 210.113 150.402 210.113C152.59 210.113 154.484 211.07 156.086 212.984C157.688 214.859 158.488 217.125 158.488 219.781C158.488 222.398 157.688 224.664 156.086 226.578C154.523 228.492 152.629 229.449 150.402 229.449ZM154.445 256.754L151.164 253.473L190.422 214.215C190.93 213.707 191.184 213.102 191.184 212.398C191.184 211.734 190.93 211.129 190.422 210.582C189.914 209.996 189.211 209.703 188.312 209.703C187.375 209.703 186.535 210.074 185.793 210.816L145.656 250.895L142.375 247.613L181.926 208.121C184.113 205.934 186.379 204.84 188.723 204.84C190.793 204.84 192.512 205.543 193.879 206.949C195.285 208.316 195.988 210.055 195.988 212.164C195.988 214.195 195.324 215.875 193.996 217.203L154.445 256.754ZM173.547 234.195L170.383 230.973L172.844 228.512L176.535 232.145L173.547 234.195ZM178.176 228.102L175.012 224.879L177.473 222.418L181.164 226.051L178.176 228.102ZM165.461 210.348C161.164 204.996 155.07 202.32 147.18 202.32V196.461C157.102 196.461 164.719 199.898 170.031 206.773L165.461 210.348Z" fill="#7F1C1D"/>
<path d="M255.172 224.172C253.609 225.734 253.609 228.266 255.172 229.828L280.627 255.284C282.19 256.846 284.722 256.846 286.284 255.284C287.846 253.722 287.846 251.19 286.284 249.627L263.657 227L286.284 204.373C287.846 202.81 287.846 200.278 286.284 198.716C284.722 197.154 282.19 197.154 280.627 198.716L255.172 224.172ZM876.828 229.828C878.391 228.266 878.391 225.734 876.828 224.172L851.373 198.716C849.81 197.154 847.278 197.154 845.716 198.716C844.154 200.278 844.154 202.81 845.716 204.373L868.343 227L845.716 249.627C844.154 251.19 844.154 253.722 845.716 255.284C847.278 256.846 849.81 256.846 851.373 255.284L876.828 229.828ZM258 231H874V223H258V231Z" fill="#7F1C1D"/>
<path d="M568.328 31.6716C566.766 30.1095 564.234 30.1095 562.672 31.6716L537.216 57.1274C535.654 58.6895 535.654 61.2222 537.216 62.7843C538.778 64.3464 541.31 64.3464 542.873 62.7843L565.5 40.1569L588.127 62.7843C589.69 64.3464 592.222 64.3464 593.784 62.7843C595.346 61.2222 595.346 58.6895 593.784 57.1274L568.328 31.6716ZM562.672 422.328C564.234 423.891 566.766 423.891 568.328 422.328L593.784 396.873C595.346 395.31 595.346 392.778 593.784 391.216C592.222 389.654 589.689 389.654 588.127 391.216L565.5 413.843L542.873 391.216C541.31 389.654 538.778 389.654 537.216 391.216C535.654 392.778 535.654 395.31 537.216 396.873L562.672 422.328ZM561.5 34.5L561.5 419.5L569.5 419.5L569.5 34.5L561.5 34.5Z" fill="#7F1C1D"/>
<path d="M1000.17 289.508C991.266 289.508 983.023 287.965 975.445 284.879C967.906 281.832 961.344 277.535 955.758 271.988C950.172 266.441 945.816 259.938 942.691 252.477C939.605 244.977 938.062 236.812 938.062 227.984C938.062 219.156 939.605 211.012 942.691 203.551C945.816 196.051 950.172 189.527 955.758 183.98C961.344 178.434 967.906 174.137 975.445 171.09C983.023 168.004 991.266 166.461 1000.17 166.461C1009.08 166.461 1017.3 168.004 1024.84 171.09C1032.42 174.137 1039 178.434 1044.59 183.98C1050.17 189.527 1054.51 196.051 1057.59 203.551C1060.72 211.012 1062.28 219.156 1062.28 227.984C1062.28 236.812 1060.72 244.977 1057.59 252.477C1054.51 259.938 1050.17 266.441 1044.59 271.988C1039 277.535 1032.42 281.832 1024.84 284.879C1017.3 287.965 1009.08 289.508 1000.17 289.508ZM1000.17 265.953C1006.03 265.953 1011.5 264.898 1016.58 262.789C1010.99 259.547 1005.52 257.926 1000.17 257.926C994.82 257.926 989.352 259.547 983.766 262.789C988.844 264.898 994.312 265.953 1000.17 265.953ZM1000.17 270.055C995.094 270.055 990.113 269.234 985.23 267.594C980.387 265.953 976.012 263.766 972.105 261.031C968.199 258.258 965.074 255.211 962.73 251.891C960.426 248.57 959.273 245.23 959.273 241.871C959.273 239.801 959.742 238.355 960.68 237.535C961.617 236.676 962.867 236.246 964.43 236.246C965.406 236.246 966.637 236.363 968.121 236.598C969.645 236.832 971.383 237.145 973.336 237.535C976.812 238.199 980.855 238.844 985.465 239.469C990.074 240.055 994.977 240.348 1000.17 240.348C1005.41 240.348 1010.33 240.055 1014.94 239.469C1019.55 238.844 1023.57 238.199 1027.01 237.535C1028.96 237.145 1030.68 236.832 1032.16 236.598C1033.69 236.363 1034.94 236.246 1035.91 236.246C1037.48 236.246 1038.73 236.676 1039.66 237.535C1040.6 238.355 1041.07 239.801 1041.07 241.871C1041.07 245.23 1039.9 248.57 1037.55 251.891C1035.25 255.211 1032.14 258.258 1028.24 261.031C1024.33 263.766 1019.94 265.953 1015.05 267.594C1010.21 269.234 1005.25 270.055 1000.17 270.055ZM1000.17 250.309C1003.84 250.309 1007.77 250.172 1011.95 249.898C1016.13 249.586 1020.31 249.117 1024.49 248.492C1028.67 247.828 1032.57 247.008 1036.21 246.031V241.871C1036.21 241.285 1035.97 240.914 1035.5 240.758C1035.04 240.562 1034.55 240.523 1034.04 240.641C1030.72 241.422 1027.05 242.105 1023.02 242.691C1019.04 243.238 1015.05 243.668 1011.07 243.98C1007.12 244.293 1003.49 244.449 1000.17 244.449C996.891 244.449 993.258 244.293 989.273 243.98C985.289 243.668 981.305 243.238 977.32 242.691C973.336 242.105 969.664 241.422 966.305 240.641C965.797 240.523 965.309 240.562 964.84 240.758C964.371 240.914 964.137 241.285 964.137 241.871V246.031C967.77 247.008 971.676 247.828 975.855 248.492C980.035 249.117 984.215 249.586 988.395 249.898C992.613 250.172 996.539 250.309 1000.17 250.309ZM979.547 224.762C977.32 224.762 975.406 223.824 973.805 221.949C972.242 220.035 971.461 217.75 971.461 215.094C971.461 212.438 972.242 210.172 973.805 208.297C975.406 206.383 977.32 205.426 979.547 205.426C981.734 205.426 983.629 206.383 985.23 208.297C986.832 210.172 987.633 212.438 987.633 215.094C987.633 217.711 986.832 219.977 985.23 221.891C983.668 223.805 981.773 224.762 979.547 224.762ZM1000.17 283.062C1008.1 283.062 1015.41 281.676 1022.09 278.902C1028.8 276.168 1034.62 272.34 1039.55 267.418C1044.51 262.457 1048.36 256.617 1051.09 249.898C1053.86 243.18 1055.25 235.875 1055.25 227.984C1055.25 220.055 1053.86 212.75 1051.09 206.07C1048.36 199.352 1044.51 193.531 1039.55 188.609C1034.62 183.648 1028.8 179.801 1022.09 177.066C1015.41 174.293 1008.1 172.906 1000.17 172.906C992.281 172.906 984.977 174.293 978.258 177.066C971.578 179.801 965.758 183.648 960.797 188.609C955.836 193.531 951.969 199.352 949.195 206.07C946.461 212.75 945.094 220.055 945.094 227.984C945.094 235.875 946.461 243.18 949.195 249.898C951.969 256.617 955.816 262.457 960.738 267.418C965.699 272.34 971.539 276.168 978.258 278.902C984.977 281.676 992.281 283.062 1000.17 283.062ZM1020.8 224.762C1018.57 224.762 1016.66 223.824 1015.05 221.949C1013.49 220.035 1012.71 217.75 1012.71 215.094C1012.71 212.438 1013.49 210.172 1015.05 208.297C1016.66 206.383 1018.57 205.426 1020.8 205.426C1022.98 205.426 1024.88 206.383 1026.48 208.297C1028.08 210.172 1028.88 212.438 1028.88 215.094C1028.88 217.711 1028.08 219.977 1026.48 221.891C1024.92 223.805 1023.02 224.762 1020.8 224.762Z" fill="#7F1C1D"/>
<path d="M240.586 417.902C239.766 417.512 238.223 416.398 235.957 414.562C233.73 412.688 231.172 410.441 228.281 407.824C225.43 405.168 222.617 402.473 219.844 399.738C217.109 396.965 214.414 394.152 211.758 391.301C209.141 388.41 206.895 385.852 205.02 383.625C203.184 381.359 202.07 379.816 201.68 378.996L206.543 374.191C207.598 373.176 209.141 372.609 211.172 372.492C213.203 372.336 215.664 372.648 218.555 373.43L258.691 333.293L286.289 360.891L246.152 401.027C246.934 403.918 247.246 406.379 247.09 408.41C246.973 410.441 246.406 411.984 245.391 413.039L240.586 417.902ZM206.543 437.473C206.152 437.863 205.215 437.668 203.73 436.887C202.285 436.145 200.527 434.934 198.457 433.254C196.426 431.613 194.297 429.699 192.07 427.512C189.883 425.285 187.949 423.156 186.27 421.125C184.629 419.055 183.418 417.297 182.637 415.852C181.895 414.367 181.719 413.43 182.109 413.039L185.098 410.051C185.527 409.621 186.465 409.816 187.91 410.637C189.395 411.418 191.172 412.629 193.242 414.27C195.312 415.91 197.422 417.824 199.57 420.012C201.719 422.16 203.613 424.27 205.254 426.34C206.934 428.41 208.164 430.168 208.945 431.613C209.766 433.098 209.961 434.055 209.531 434.484L206.543 437.473ZM202.852 434.426L185.156 416.73L215.156 386.73L232.852 404.426L202.852 434.426ZM202.09 425.402L224.648 402.844L216.738 394.934L194.18 417.492L202.09 425.402ZM236.367 390.07L246.855 379.699L240 372.844L229.512 383.215C230.332 383.918 231.133 384.641 231.914 385.383C232.695 386.125 233.457 386.887 234.199 387.668C234.941 388.449 235.664 389.25 236.367 390.07ZM236.133 395.285C235.039 393.879 233.848 392.473 232.559 391.066C231.27 389.66 229.922 388.312 228.516 387.023C227.109 385.734 225.703 384.543 224.297 383.449L243.164 364.582L255 376.418L236.133 395.285ZM239.941 409.406C240.84 408.508 241.191 407.043 240.996 405.012C240.84 402.98 240.156 400.793 238.945 398.449L276.914 360.48L259.043 342.727L221.074 380.695C218.73 379.484 216.543 378.781 214.512 378.586C212.52 378.391 211.074 378.742 210.176 379.641C211.074 380.773 212.266 382.199 213.75 383.918C215.234 385.637 216.895 387.473 218.73 389.426C220.566 391.379 222.441 393.312 224.355 395.227C226.27 397.102 228.203 398.977 230.156 400.852C232.109 402.688 233.945 404.348 235.664 405.832C237.383 407.316 238.809 408.508 239.941 409.406ZM274.16 351.809L267.773 345.422L272.578 340.617C275.352 337.844 277.793 337.531 279.902 339.68C282.012 341.828 281.699 344.27 278.965 347.004L274.16 351.809ZM278.379 344.367L275.215 341.203L290.098 326.32H296.074L278.379 344.367Z" fill="#7F1C1D"/>
<path d="M421.766 443.508C417.312 443.508 413.016 442.688 408.875 441.047C404.773 439.445 401.277 437.16 398.387 434.191L340.789 375.715C336.727 371.574 333.699 367.375 331.707 363.117C329.715 358.859 328.719 354.484 328.719 349.992C328.719 344.445 330.066 339.445 332.762 334.992C335.457 330.539 339.09 327.004 343.66 324.387C348.23 321.77 353.328 320.461 358.953 320.461C363.406 320.461 367.723 321.32 371.902 323.039C376.121 324.758 379.715 327.121 382.684 330.129L441.512 389.777C445.223 393.527 448.055 397.473 450.008 401.613C451.961 405.754 452.938 409.992 452.938 414.328C452.938 419.68 451.551 424.562 448.777 428.977C446.004 433.391 442.254 436.906 437.527 439.523C432.84 442.18 427.586 443.508 421.766 443.508ZM372.43 398.508L406.766 364.406L377.996 334.992C375.652 332.609 372.781 330.754 369.383 329.426C366.023 328.059 362.547 327.375 358.953 327.375C354.578 327.375 350.633 328.371 347.117 330.363C343.602 332.355 340.828 335.051 338.797 338.449C336.766 341.848 335.75 345.695 335.75 349.992C335.75 353.664 336.551 357.238 338.152 360.715C339.793 364.191 342.254 367.609 345.535 370.969L372.43 398.508ZM440.457 419.484C441.59 419.484 442.449 418.977 443.035 417.961C443.66 416.906 443.973 415.383 443.973 413.391C443.973 407.688 440.984 401.789 435.008 395.695L417.957 378.41C417.215 377.629 416.395 377.238 415.496 377.238C414.598 377.199 413.797 377.531 413.094 378.234C412.391 378.938 412.039 379.758 412.039 380.695C412.078 381.594 412.469 382.414 413.211 383.156L430.32 400.5C432.586 402.766 434.305 404.934 435.477 407.004C436.648 409.074 437.234 411.164 437.234 413.273C437.234 413.547 437.215 413.82 437.176 414.094C437.176 414.328 437.156 414.562 437.117 414.797C436.961 416.203 437.176 417.336 437.762 418.195C438.348 419.055 439.246 419.484 440.457 419.484Z" fill="#7F1C1D"/>
<path d="M748.898 132.508C736.672 132.508 726.672 132.039 718.898 131.102C711.164 130.164 705.168 128.504 700.91 126.121C696.691 123.777 693.762 120.477 692.121 116.219C690.52 112 689.719 106.59 689.719 99.9883C689.719 93.4648 690.5 86.7266 692.062 79.7734C693.664 72.7812 695.871 65.9062 698.684 59.1484C701.535 52.3516 704.875 45.9844 708.703 40.0469C712.57 34.0703 716.789 28.7969 721.359 24.2266C725.93 19.6172 730.715 16.0039 735.715 13.3867C740.715 10.7695 745.773 9.46094 750.891 9.46094C753.117 9.46094 754.953 9.83203 756.398 10.5742C757.844 11.3164 759.074 12.5273 760.09 14.207L766.535 24.5781C767.98 26.9609 768.703 29.1094 768.703 31.0234C768.703 34.1094 767.238 36.3359 764.309 37.7031C761.418 39.0313 757.609 39.6953 752.883 39.6953C748.391 39.6953 744.934 38.9531 742.512 37.4688C740.129 35.9453 738.938 33.9141 738.938 31.375C738.938 28.9531 739.777 27.1367 741.457 25.9258C743.137 24.7148 745.344 24.1094 748.078 24.1094C748.625 24.1094 749.191 24.1484 749.777 24.2266C750.363 24.2656 751.066 24.3438 751.887 24.4609L751.184 29.6172C750.48 29.5391 749.875 29.4805 749.367 29.4414C748.898 29.4023 748.469 29.3828 748.078 29.3828C746.828 29.3828 745.871 29.5586 745.207 29.9102C744.543 30.2227 744.211 30.7109 744.211 31.375C744.211 32.1953 744.914 32.918 746.32 33.543C747.727 34.1289 749.914 34.4219 752.883 34.4219C756.32 34.4219 758.664 34.168 759.914 33.6602C761.164 33.1133 761.789 32.2344 761.789 31.0234C761.789 30.5547 761.691 30.0859 761.496 29.6172C761.34 29.1484 761.047 28.543 760.617 27.8008L754.875 18.6016C754.367 17.7812 753.762 17.1367 753.059 16.668C752.355 16.1602 751.633 15.9062 750.891 15.9062C746.359 15.9062 741.867 17.1367 737.414 19.5977C733 22.0586 728.762 25.4375 724.699 29.7344C720.676 34.0312 716.965 38.9727 713.566 44.5586C710.168 50.1055 707.199 56.0234 704.66 62.3125C702.16 68.6016 700.207 74.9688 698.801 81.4141C697.434 87.8203 696.75 94.0117 696.75 99.9883C696.75 105.535 697.414 110.027 698.742 113.465C700.07 116.902 702.551 119.539 706.184 121.375C709.816 123.211 715.07 124.441 721.945 125.066C728.82 125.73 737.805 126.062 748.898 126.062H766.887C776.223 126.062 783.82 124.949 789.68 122.723C795.578 120.535 799.914 117.469 802.688 113.523C805.5 109.617 806.906 105.105 806.906 99.9883C806.906 95.6523 806.027 91.8047 804.27 88.4453C802.512 85.0469 800.109 82.1953 797.062 79.8906C794.055 77.5469 790.637 75.7891 786.809 74.6172C782.98 73.4062 778.977 72.8008 774.797 72.8008C770.422 72.8008 766.184 73.5625 762.082 75.0859C757.98 76.5703 754.289 78.6406 751.008 81.2969C747.727 83.9531 745.07 87.0391 743.039 90.5547C741.906 90.4375 740.832 90.3398 739.816 90.2617C738.84 90.1836 737.922 90.1445 737.062 90.1445C732.805 90.1445 729.504 91.5508 727.16 94.3633C724.816 97.1367 723.645 100.301 723.645 103.855C723.645 105.105 723.723 106.414 723.879 107.781C724.035 109.148 724.309 110.77 724.699 112.645L718.957 113.816C718.527 111.785 718.215 109.988 718.02 108.426C717.863 106.824 717.785 105.301 717.785 103.855C717.785 100.105 718.586 96.707 720.188 93.6602C721.828 90.6133 724.094 88.1914 726.984 86.3945C729.914 84.5977 733.273 83.6992 737.062 83.6992C737.609 83.6992 738.137 83.6992 738.645 83.6992C739.152 83.6992 739.719 83.7383 740.344 83.8164C743.938 79.832 747.551 76.5508 751.184 73.9727C754.855 71.3945 758.645 69.4805 762.551 68.2305C766.457 66.9805 770.539 66.3555 774.797 66.3555C780.109 66.3555 785.129 67.1562 789.855 68.7578C794.582 70.3203 798.742 72.5859 802.336 75.5547C805.969 78.4844 808.801 82.0195 810.832 86.1602C812.902 90.2617 813.938 94.8711 813.938 99.9883C813.938 106.473 812.199 112.156 808.723 117.039C805.246 121.922 800.031 125.711 793.078 128.406C786.125 131.141 777.395 132.508 766.887 132.508H748.898ZM770.637 120.203C765.402 120.203 760.559 119.266 756.105 117.391C751.691 115.516 748.059 112.918 745.207 109.598C742.355 106.238 740.676 102.41 740.168 98.1133L746.613 97.293C746.926 100.457 748.176 103.328 750.363 105.906C752.551 108.484 755.402 110.535 758.918 112.059C762.473 113.582 766.379 114.344 770.637 114.344C774.035 114.344 777.141 113.875 779.953 112.938C782.766 112.039 785.148 110.809 787.102 109.246C789.094 107.645 790.52 105.828 791.379 103.797L797.414 105.965C796.398 108.699 794.562 111.141 791.906 113.289C789.289 115.438 786.145 117.117 782.473 118.328C778.801 119.578 774.855 120.203 770.637 120.203ZM722.824 92.1367C724.074 89.0508 724.934 85.9648 725.402 82.8789C725.91 79.7539 726.164 76.9414 726.164 74.4414C726.164 73.3086 726.066 71.8047 725.871 69.9297C725.754 68.875 725.656 67.7812 725.578 66.6484C725.539 65.5156 725.52 64.4023 725.52 63.3086C725.52 58.3086 726.223 53.875 727.629 50.0078C729.074 46.1016 731.066 43.1328 733.605 41.1016L738.059 45.2031C736.184 46.6875 734.699 49.0312 733.605 52.2344C732.512 55.4375 731.965 59.1289 731.965 63.3086C731.965 64.5195 731.984 65.6523 732.023 66.707C732.102 67.7227 732.199 68.7383 732.316 69.7539C732.395 70.4961 732.453 71.2578 732.492 72.0391C732.57 72.8203 732.609 73.6211 732.609 74.4414C732.609 76.7461 732.414 79.2656 732.023 82C731.633 84.6953 731.125 87.1562 730.5 89.3828L722.824 92.1367ZM746.32 48.25C740.812 48.25 736.262 47.2344 732.668 45.2031C729.074 43.1328 726.75 40.4961 725.695 37.293L730.617 35.2422C731.242 37.4297 732.902 39.168 735.598 40.457C738.293 41.7461 741.867 42.3906 746.32 42.3906C749.133 42.3906 751.223 42.2148 752.59 41.8633C753.996 41.4727 754.699 40.9063 754.699 40.1641C754.699 39.6562 754.504 39.4023 754.113 39.4023V35.0078C755.949 35.0078 757.57 35.457 758.977 36.3555C760.422 37.2539 761.145 38.5234 761.145 40.1641C761.145 42.8984 759.738 44.9297 756.926 46.2578C754.152 47.5859 750.617 48.25 746.32 48.25Z" fill="#7F1C1D"/>
<path d="M856.25 132.508C853.203 132.508 850.234 131.824 847.344 130.457C844.453 129.129 841.855 127.312 839.551 125.008C837.285 122.742 835.469 120.164 834.102 117.273C832.773 114.422 832.109 111.453 832.109 108.367C832.109 101.18 835.488 94.207 842.246 87.4492L903.125 26.5703C904.336 25.3594 905.078 24.3242 905.352 23.4648C905.664 22.5664 905.801 21.7461 905.762 21.0039C905.684 18.8945 905.918 17.0586 906.465 15.4961C907.051 13.8945 907.832 12.6055 908.809 11.6289C910.254 10.1836 912.09 9.46094 914.316 9.46094C917.676 9.46094 921.582 10.9258 926.035 13.8555C930.527 16.7852 935.02 20.5156 939.512 25.0469C944.043 29.5781 947.754 34.0703 950.645 38.5234C953.574 42.9766 955.039 46.8828 955.039 50.2422C955.039 52.5078 954.336 54.3633 952.93 55.8086C951.953 56.7852 950.684 57.5664 949.121 58.1523C947.559 58.6992 945.723 58.9336 943.613 58.8555C942.871 58.8164 942.051 58.9336 941.152 59.207C940.293 59.4805 939.258 60.2227 938.047 61.4336L877.109 122.371C870.352 129.129 863.398 132.508 856.25 132.508ZM856.426 119.559C854.668 119.559 852.91 118.992 851.152 117.859C849.395 116.727 847.93 115.281 846.758 113.523C845.625 111.766 845.059 109.969 845.059 108.133C845.059 104.656 847.168 100.809 851.387 96.5898L884.961 62.7812C890.508 61.8828 896.055 61.4336 901.602 61.4336C907.148 61.4336 912.695 61.8828 918.242 62.7812L867.969 113.23C863.75 117.449 859.902 119.559 856.426 119.559ZM876.875 93.0156C878.398 93.0156 879.688 92.4883 880.742 91.4336C881.836 90.3398 882.383 89.0117 882.383 87.4492C882.383 85.9258 881.836 84.6367 880.742 83.582C879.688 82.4883 878.398 81.9414 876.875 81.9414C875.312 81.9414 873.984 82.4883 872.891 83.582C871.836 84.6367 871.309 85.9258 871.309 87.4492C871.309 89.0117 871.836 90.3398 872.891 91.4336C873.984 92.4883 875.312 93.0156 876.875 93.0156ZM884.082 79.9492C885.215 79.9492 886.152 79.5586 886.895 78.7773C887.676 77.9961 888.066 77.0586 888.066 75.9648C888.066 74.832 887.676 73.8945 886.895 73.1523C886.152 72.3711 885.215 71.9805 884.082 71.9805C882.988 71.9805 882.051 72.3711 881.27 73.1523C880.488 73.8945 880.098 74.832 880.098 75.9648C880.098 77.0586 880.488 77.9961 881.27 78.7773C882.051 79.5586 882.988 79.9492 884.082 79.9492ZM839.141 108.25C839.141 111.062 839.98 113.777 841.66 116.395C843.34 119.051 845.488 121.219 848.105 122.898C850.723 124.578 853.457 125.418 856.309 125.418C861.504 125.418 866.777 122.742 872.129 117.391L933.652 55.8672C935.449 54.0703 937.207 52.9375 938.926 52.4688C940.645 51.9609 942.402 51.7461 944.199 51.8242C946.074 51.8633 947.344 51.5312 948.008 50.8281C948.516 50.2813 948.418 49.1094 947.715 47.3125C947.051 45.5156 945.645 43.1523 943.496 40.2227C941.387 37.293 938.398 33.8945 934.531 30.0273C930.703 26.1602 927.324 23.1719 924.395 21.0625C921.465 18.9141 919.082 17.4883 917.246 16.7852C915.41 16.082 914.238 16.0039 913.73 16.5508C913.34 16.9414 913.066 17.4297 912.91 18.0156C912.754 18.5625 912.695 19.3633 912.734 20.418C912.812 22.1758 912.617 23.9141 912.148 25.6328C911.68 27.3125 910.527 29.0703 908.691 30.9062L847.227 92.4297C841.836 97.8203 839.141 103.094 839.141 108.25ZM895.801 72.3906C896.465 72.3906 897.012 72.1758 897.441 71.7461C897.871 71.2773 898.086 70.7305 898.086 70.1055C898.086 69.4414 897.871 68.8945 897.441 68.4648C897.012 68.0352 896.465 67.8203 895.801 67.8203C895.176 67.8203 894.629 68.0352 894.16 68.4648C893.73 68.8945 893.516 69.4414 893.516 70.1055C893.516 70.7305 893.73 71.2773 894.16 71.7461C894.629 72.1758 895.176 72.3906 895.801 72.3906ZM915.898 51.5898C914.414 51.5898 913.145 51.082 912.09 50.0664C911.074 49.0117 910.566 47.7422 910.566 46.2578C910.566 44.7734 911.074 43.5234 912.09 42.5078C913.145 41.4531 914.414 40.9258 915.898 40.9258C917.383 40.9258 918.633 41.4531 919.648 42.5078C920.703 43.5234 921.23 44.7734 921.23 46.2578C921.23 47.7422 920.703 49.0117 919.648 50.0664C918.633 51.082 917.383 51.5898 915.898 51.5898ZM924.57 39.9883C920.898 36.2773 917.617 33.3672 914.727 31.2578C911.875 29.1094 909.531 27.6641 907.695 26.9219L909.395 20.418C912.402 21.5117 915.645 23.3477 919.121 25.9258C922.598 28.5039 926.074 31.5313 929.551 35.0078C933.145 38.6016 936.25 42.1953 938.867 45.7891C941.523 49.3828 943.34 52.7031 944.316 55.75L937.754 57.1562C937.012 55.3203 935.566 52.957 933.418 50.0664C931.309 47.1758 928.359 43.8164 924.57 39.9883ZM953.984 27.2148C951.562 27.2148 949.473 26.3555 947.715 24.6367C945.996 22.8789 945.137 20.7695 945.137 18.3086C945.137 15.8867 945.996 13.8164 947.715 12.0977C949.473 10.3398 951.562 9.46094 953.984 9.46094C956.445 9.46094 958.535 10.3398 960.254 12.0977C961.973 13.8164 962.832 15.8867 962.832 18.3086C962.832 20.7695 961.973 22.8789 960.254 24.6367C958.535 26.3555 956.445 27.2148 953.984 27.2148ZM971.211 26.3945C970 26.3945 968.965 25.9648 968.105 25.1055C967.246 24.2461 966.816 23.2109 966.816 22C966.816 20.7891 967.246 19.7734 968.105 18.9531C968.965 18.0937 970 17.6641 971.211 17.6641C972.422 17.6641 973.438 18.0937 974.258 18.9531C975.117 19.7734 975.547 20.7891 975.547 22C975.547 23.2109 975.117 24.2461 974.258 25.1055C973.438 25.9648 972.422 26.3945 971.211 26.3945Z" fill="#7F1C1D"/>
</svg>
