<svg width="1047" height="592" viewBox="0 0 1047 592" fill="none" xmlns="http://www.w3.org/2000/svg">
<rect x="4" y="4" width="1039" height="584" rx="60" stroke="#7F1C1D" stroke-width="8"/>
<path d="M56 56H255V536H56V56Z" stroke="#7F1C1D" stroke-width="8" stroke-linecap="round" stroke-linejoin="round" stroke-dasharray="16 16"/>
<path d="M156.168 357.508C149.02 357.508 142.164 356.453 135.602 354.344L138.824 348.543C144.332 350.223 150.113 351.062 156.168 351.062C164.098 351.062 171.402 349.676 178.082 346.902C184.801 344.168 190.621 340.34 195.543 335.418C200.504 330.457 204.352 324.617 207.086 317.898C209.859 311.18 211.246 303.875 211.246 295.984C211.246 288.055 209.859 280.75 207.086 274.07C204.352 267.352 200.504 261.531 195.543 256.609C190.621 251.648 184.801 247.801 178.082 245.066C171.402 242.293 164.098 240.906 156.168 240.906C148.277 240.906 140.973 242.293 134.254 245.066C127.574 247.801 121.754 251.648 116.793 256.609C111.832 261.531 107.965 267.352 105.191 274.07C102.457 280.75 101.09 288.055 101.09 295.984C101.09 300.359 101.52 304.5 102.379 308.406L95.5234 309.93C95.0547 307.703 94.6836 305.438 94.4102 303.133C94.1758 300.789 94.0586 298.406 94.0586 295.984C94.0586 287.156 95.6016 279.012 98.6875 271.551C101.812 264.051 106.168 257.527 111.754 251.98C117.34 246.434 123.902 242.137 131.441 239.09C139.02 236.004 147.262 234.461 156.168 234.461C165.074 234.461 173.297 236.004 180.836 239.09C188.414 242.137 194.996 246.434 200.582 251.98C206.168 257.527 210.504 264.051 213.59 271.551C216.715 279.012 218.277 287.156 218.277 295.984C218.277 304.812 216.715 312.977 213.59 320.477C210.504 327.938 206.168 334.441 200.582 339.988C194.996 345.535 188.414 349.832 180.836 352.879C173.297 355.965 165.074 357.508 156.168 357.508ZM119.488 360.438C111.559 360.438 105.641 358.309 101.734 354.051C97.8281 349.793 95.875 344.246 95.875 337.41C95.875 335.379 96.0508 333.602 96.4023 332.078C96.7539 330.555 96.9297 329.09 96.9297 327.684C96.9297 326.082 96.6758 324.617 96.168 323.289C95.6602 321.922 95.0938 320.574 94.4688 319.246C93.8438 317.957 93.2773 316.648 92.7695 315.32C92.3008 313.992 92.0664 312.566 92.0664 311.043C92.0664 308.699 92.7695 306.824 94.1758 305.418C95.6211 304.012 97.5938 303.309 100.094 303.309C102.633 303.309 105.035 304.051 107.301 305.535C109.566 306.98 111.285 308.973 112.457 311.512L112.926 312.508C113.707 314.148 114.273 315.223 114.625 315.73C115.016 316.199 115.484 316.434 116.031 316.434C116.656 316.434 117.379 316.258 118.199 315.906C119.059 315.516 120.055 315.008 121.188 314.383C122.867 313.406 124.918 312.391 127.34 311.336C129.801 310.242 132.711 309.324 136.07 308.582C139.469 307.801 143.375 307.41 147.789 307.41C151.148 307.41 153.844 308.016 155.875 309.227C157.945 310.398 158.98 312.234 158.98 314.734C158.98 316.18 158.648 317.41 157.984 318.426C157.359 319.441 156.09 320.418 154.176 321.355C152.262 322.293 149.391 323.387 145.562 324.637L143.922 325.164C141.539 325.906 139.195 326.844 136.891 327.977C134.586 329.07 132.047 330.77 129.273 333.074L125.992 329.148C129.312 326.141 132.359 323.914 135.133 322.469C137.906 321.023 140.426 320.008 142.691 319.422L143.805 319.129C147.516 318.152 149.996 317.43 151.246 316.961C152.496 316.492 153.121 315.945 153.121 315.32C153.121 314.695 152.73 314.207 151.949 313.855C151.168 313.465 149.781 313.27 147.789 313.27C142.828 313.27 138.336 313.934 134.312 315.262C130.328 316.59 126.891 317.996 124 319.48C122.203 320.379 120.543 321.102 119.02 321.648C117.535 322.195 116.227 322.469 115.094 322.469C113.375 322.469 112.008 321.883 110.992 320.711C110.016 319.539 108.902 317.625 107.652 314.969L107.184 313.973C106.48 312.449 105.562 311.258 104.43 310.398C103.336 309.5 102.184 309.051 100.973 309.051C100.152 309.051 99.4297 309.344 98.8047 309.93C98.2188 310.477 97.9258 311.238 97.9258 312.215C97.9258 312.957 98.1016 313.758 98.4531 314.617C98.8047 315.477 99.2344 316.414 99.7422 317.43C100.445 318.875 101.129 320.457 101.793 322.176C102.457 323.855 102.789 325.691 102.789 327.684C102.789 329.48 102.613 331.16 102.262 332.723C101.91 334.285 101.734 335.887 101.734 337.527C101.734 342.527 103.199 346.609 106.129 349.773C109.098 352.977 113.551 354.578 119.488 354.578C122.105 354.578 124.762 354.285 127.457 353.699C130.191 353.113 132.477 352.371 134.312 351.473C136.148 350.613 137.066 349.773 137.066 348.953C137.066 348.289 137.008 347.82 136.891 347.547C136.812 347.273 136.676 347.078 136.48 346.961L139.879 342.156C141.91 343.602 142.926 345.867 142.926 348.953C142.926 350.75 142.203 352.352 140.758 353.758C139.352 355.203 137.477 356.414 135.133 357.391C132.828 358.367 130.289 359.109 127.516 359.617C124.781 360.164 122.105 360.438 119.488 360.438ZM132.613 349.363L131.91 344.734C135.66 343.953 137.535 342.566 137.535 340.574C137.535 339.129 137.105 338.191 136.246 337.762L138.941 333.191C140.074 333.855 140.992 334.891 141.695 336.297C142.438 337.664 142.809 339.09 142.809 340.574C142.809 343.074 141.891 345.047 140.055 346.492C138.219 347.977 135.738 348.934 132.613 349.363ZM131.324 341.629L130.562 337C132.398 336.805 133.863 336.297 134.957 335.477C136.09 334.656 136.656 333.758 136.656 332.781C136.656 331.766 136.324 331.004 135.66 330.496C134.996 329.949 134.195 329.676 133.258 329.676V324.402C135.641 324.48 137.672 325.359 139.352 327.039C141.07 328.68 141.93 330.594 141.93 332.781C141.93 335.242 140.953 337.234 139 338.758C137.047 340.32 134.488 341.277 131.324 341.629ZM170.055 305.008C163.805 298.875 156.871 295.809 149.254 295.809C144.293 295.809 139 297.098 133.375 299.676L130.914 294.402C137.359 291.473 143.492 290.008 149.312 290.008C158.531 290.008 166.812 293.602 174.156 300.789L170.055 305.008ZM137.535 272.254C135.309 272.254 133.395 271.316 131.793 269.441C130.23 267.527 129.449 265.242 129.449 262.586C129.449 259.93 130.23 257.664 131.793 255.789C133.395 253.875 135.309 252.918 137.535 252.918C139.723 252.918 141.617 253.875 143.219 255.789C144.82 257.664 145.621 259.93 145.621 262.586C145.621 265.203 144.82 267.469 143.219 269.383C141.656 271.297 139.762 272.254 137.535 272.254ZM151.48 250.34C148.316 247.176 145.133 244.93 141.93 243.602C138.766 242.273 134.957 241.609 130.504 241.609V235.75C135.738 235.75 140.309 236.57 144.215 238.211C148.121 239.852 151.91 242.527 155.582 246.238L151.48 250.34ZM174.449 282.215C172.223 282.215 170.309 281.277 168.707 279.402C167.145 277.488 166.363 275.203 166.363 272.547C166.363 269.891 167.145 267.625 168.707 265.75C170.309 263.836 172.223 262.879 174.449 262.879C176.637 262.879 178.531 263.836 180.133 265.75C181.734 267.625 182.535 269.891 182.535 272.547C182.535 275.164 181.734 277.43 180.133 279.344C178.57 281.258 176.676 282.215 174.449 282.215ZM186.93 260.887C182.086 258.074 177.027 256.668 171.754 256.668C170.582 256.668 169.371 256.727 168.121 256.844C166.91 256.961 165.68 257.176 164.43 257.488L163.141 251.746C164.625 251.434 166.07 251.199 167.477 251.043C168.883 250.887 170.289 250.809 171.695 250.809C178.18 250.809 184.234 252.488 189.859 255.848L186.93 260.887Z" fill="#7F1C1D"/>
<path d="M402.828 298.828C404.391 297.266 404.391 294.734 402.828 293.172L377.373 267.716C375.81 266.154 373.278 266.154 371.716 267.716C370.154 269.278 370.154 271.81 371.716 273.373L394.343 296L371.716 318.627C370.154 320.19 370.154 322.722 371.716 324.284C373.278 325.846 375.81 325.846 377.373 324.284L402.828 298.828ZM276.172 293.172C274.609 294.734 274.609 297.266 276.172 298.828L301.627 324.284C303.19 325.846 305.722 325.846 307.284 324.284C308.846 322.722 308.846 320.19 307.284 318.627L284.657 296L307.284 273.373C308.846 271.81 308.846 269.278 307.284 267.716C305.722 266.154 303.19 266.154 301.627 267.716L276.172 293.172ZM400 292L279 292L279 300L400 300L400 292Z" fill="#7F1C1D"/>
<path d="M424 56H623V536H424V56Z" stroke="#7F1C1D" stroke-width="8" stroke-linecap="round" stroke-linejoin="round" stroke-dasharray="16 16"/>
<path d="M523.172 357.508C514.266 357.508 506.023 355.965 498.445 352.879C490.906 349.832 484.344 345.535 478.758 339.988C473.172 334.441 468.816 327.938 465.691 320.477C462.605 312.977 461.062 304.812 461.062 295.984C461.062 287.156 462.605 279.012 465.691 271.551C468.816 264.051 473.172 257.527 478.758 251.98C484.344 246.434 490.906 242.137 498.445 239.09C506.023 236.004 514.266 234.461 523.172 234.461C532.078 234.461 540.301 236.004 547.84 239.09C555.418 242.137 562 246.434 567.586 251.98C573.172 257.527 577.508 264.051 580.594 271.551C583.719 279.012 585.281 287.156 585.281 295.984C585.281 304.812 583.719 312.977 580.594 320.477C577.508 327.938 573.172 334.441 567.586 339.988C562 345.535 555.418 349.832 547.84 352.879C540.301 355.965 532.078 357.508 523.172 357.508ZM523.172 327.215C513.875 327.215 504.832 324.285 496.043 318.426L499.676 313.094C507.254 318.211 515.086 320.77 523.172 320.77C531.258 320.77 539.09 318.211 546.668 313.094L550.301 318.426C541.512 324.285 532.469 327.215 523.172 327.215ZM501.961 292.176C499.734 292.176 497.82 291.297 496.219 289.539C494.656 287.781 493.875 285.438 493.875 282.508C493.875 279.578 494.656 277.234 496.219 275.477C497.82 273.719 499.734 272.84 501.961 272.84C504.188 272.84 506.082 273.719 507.645 275.477C509.246 277.234 510.047 279.578 510.047 282.508C510.047 285.438 509.246 287.781 507.645 289.539C506.082 291.297 504.188 292.176 501.961 292.176ZM523.23 351.062C531.121 351.062 538.406 349.676 545.086 346.902C551.805 344.168 557.625 340.34 562.547 335.418C567.508 330.457 571.355 324.617 574.09 317.898C576.863 311.18 578.25 303.855 578.25 295.926C578.25 288.035 576.863 280.75 574.09 274.07C571.355 267.352 567.508 261.531 562.547 256.609C557.625 251.648 551.805 247.801 545.086 245.066C538.406 242.293 531.121 240.906 523.23 240.906C515.301 240.906 507.977 242.293 501.258 245.066C494.578 247.801 488.758 251.648 483.797 256.609C478.836 261.531 474.969 267.352 472.195 274.07C469.461 280.75 468.094 288.035 468.094 295.926C468.094 303.855 469.461 311.18 472.195 317.898C474.969 324.617 478.816 330.457 483.738 335.418C488.699 340.34 494.539 344.168 501.258 346.902C507.977 349.676 515.301 351.062 523.23 351.062ZM544.383 292.176C542.156 292.176 540.242 291.297 538.641 289.539C537.078 287.781 536.297 285.438 536.297 282.508C536.297 279.578 537.078 277.234 538.641 275.477C540.242 273.719 542.156 272.84 544.383 272.84C546.609 272.84 548.504 273.719 550.066 275.477C551.668 277.234 552.469 279.578 552.469 282.508C552.469 285.438 551.668 287.781 550.066 289.539C548.504 291.297 546.609 292.176 544.383 292.176Z" fill="#7F1C1D"/>
<path d="M770.828 298.828C772.391 297.266 772.391 294.734 770.828 293.172L745.373 267.716C743.81 266.154 741.278 266.154 739.716 267.716C738.154 269.278 738.154 271.81 739.716 273.373L762.343 296L739.716 318.627C738.154 320.19 738.154 322.722 739.716 324.284C741.278 325.846 743.81 325.846 745.373 324.284L770.828 298.828ZM644.172 293.172C642.609 294.734 642.609 297.266 644.172 298.828L669.627 324.284C671.19 325.846 673.722 325.846 675.284 324.284C676.846 322.722 676.846 320.19 675.284 318.627L652.657 296L675.284 273.373C676.846 271.81 676.846 269.278 675.284 267.716C673.722 266.154 671.19 266.154 669.627 267.716L644.172 293.172ZM768 292L647 292L647 300L768 300L768 292Z" fill="#7F1C1D"/>
<path d="M792 56H991V536H792V56Z" stroke="#7F1C1D" stroke-width="8" stroke-linecap="round" stroke-linejoin="round" stroke-dasharray="16 16"/>
<path d="M848.223 357.508C845.332 357.508 843.164 356.629 841.719 354.871C840.312 353.113 839.609 350.926 839.609 348.309V275.301C839.609 272.684 840.312 270.496 841.719 268.738C843.164 266.98 845.332 266.102 848.223 266.102H934.121C937.012 266.102 939.16 266.98 940.566 268.738C942.012 270.496 942.734 272.684 942.734 275.301V348.309C942.734 350.926 942.012 353.113 940.566 354.871C939.16 356.629 937.012 357.508 934.121 357.508H848.223ZM837.09 341.395C834.16 341.395 831.895 340.73 830.293 339.402C828.691 338.113 827.891 336.297 827.891 333.953V289.832C827.891 287.488 828.691 285.672 830.293 284.383C831.895 283.055 834.16 282.391 837.09 282.391H843.125V288.836H837.09C836.23 288.836 835.547 289.09 835.039 289.598C834.57 290.066 834.336 290.73 834.336 291.59V332.195C834.336 333.055 834.57 333.738 835.039 334.246C835.547 334.715 836.23 334.949 837.09 334.949H843.125V341.395H837.09ZM871.25 338.641V325.164H875.938V338.641H871.25ZM880.039 338.641V325.164H884.727V338.641H880.039ZM871.191 341.277C868.496 341.277 866.23 340.379 864.395 338.582C862.598 336.785 861.699 334.559 861.699 331.902C861.699 329.207 862.598 326.98 864.395 325.223C866.191 323.426 868.457 322.527 871.191 322.527H911.152C913.887 322.527 916.152 323.426 917.949 325.223C919.746 326.98 920.645 329.207 920.645 331.902C920.645 334.559 919.727 336.785 917.891 338.582C916.094 340.379 913.848 341.277 911.152 341.277H871.191ZM871.191 336.004H911.152C912.168 336.004 913.027 335.613 913.73 334.832C914.434 334.012 914.785 333.035 914.785 331.902C914.785 330.77 914.434 329.812 913.73 329.031C913.027 328.211 912.168 327.801 911.152 327.801H871.191C870.176 327.801 869.316 328.211 868.613 329.031C867.91 329.812 867.559 330.77 867.559 331.902C867.559 333.035 867.91 334.012 868.613 334.832C869.355 335.613 870.215 336.004 871.191 336.004ZM888.828 338.641V325.164H893.516V338.641H888.828ZM897.617 338.641V325.164H902.305V338.641H897.617ZM870.195 312.801C867.578 312.801 865.176 312.156 862.988 310.867C860.84 309.578 859.121 307.859 857.832 305.711C856.543 303.523 855.898 301.121 855.898 298.504C855.898 295.887 856.543 293.504 857.832 291.355C859.121 289.207 860.84 287.488 862.988 286.199C865.176 284.91 867.578 284.266 870.195 284.266C872.812 284.266 875.195 284.91 877.344 286.199C879.531 287.488 881.27 289.207 882.559 291.355C883.848 293.504 884.492 295.887 884.492 298.504C884.492 301.121 883.848 303.523 882.559 305.711C881.27 307.859 879.551 309.578 877.402 310.867C875.254 312.156 872.852 312.801 870.195 312.801ZM870.195 306.941C872.539 306.941 874.531 306.121 876.172 304.48C877.812 302.84 878.633 300.848 878.633 298.504C878.633 296.199 877.793 294.227 876.113 292.586C874.473 290.945 872.5 290.125 870.195 290.125C867.891 290.125 865.898 290.945 864.219 292.586C862.578 294.227 861.758 296.199 861.758 298.504C861.758 300.848 862.578 302.84 864.219 304.48C865.859 306.121 867.852 306.941 870.195 306.941ZM906.406 338.641V325.164H911.094V338.641H906.406ZM849.395 351.062H932.949C933.809 351.062 934.473 350.809 934.941 350.301C935.449 349.832 935.703 349.168 935.703 348.309V275.301C935.703 274.441 935.449 273.777 934.941 273.309C934.473 272.801 933.809 272.547 932.949 272.547H849.395C848.535 272.547 847.852 272.801 847.344 273.309C846.875 273.777 846.641 274.441 846.641 275.301V348.309C846.641 349.168 846.875 349.832 847.344 350.301C847.852 350.809 848.535 351.062 849.395 351.062ZM883.203 319.188C882.812 319.188 882.539 319.031 882.383 318.719C882.266 318.367 882.285 318.035 882.441 317.723L890.059 304.305C890.371 303.758 890.742 303.484 891.172 303.484C891.641 303.484 892.012 303.758 892.285 304.305L899.902 317.723C900.098 318.035 900.117 318.367 899.961 318.719C899.805 319.031 899.531 319.188 899.141 319.188H883.203ZM912.148 312.801C909.531 312.801 907.129 312.156 904.941 310.867C902.793 309.578 901.074 307.859 899.785 305.711C898.496 303.523 897.852 301.121 897.852 298.504C897.852 295.887 898.496 293.504 899.785 291.355C901.074 289.207 902.793 287.488 904.941 286.199C907.129 284.91 909.531 284.266 912.148 284.266C914.766 284.266 917.148 284.91 919.297 286.199C921.484 287.488 923.223 289.207 924.512 291.355C925.801 293.504 926.445 295.887 926.445 298.504C926.445 301.121 925.801 303.523 924.512 305.711C923.223 307.859 921.504 309.578 919.355 310.867C917.207 312.156 914.805 312.801 912.148 312.801ZM912.148 306.941C914.492 306.941 916.484 306.121 918.125 304.48C919.766 302.84 920.586 300.848 920.586 298.504C920.586 296.199 919.746 294.227 918.066 292.586C916.426 290.945 914.453 290.125 912.148 290.125C909.844 290.125 907.852 290.945 906.172 292.586C904.531 294.227 903.711 296.199 903.711 298.504C903.711 300.848 904.531 302.84 906.172 304.48C907.812 306.121 909.805 306.941 912.148 306.941ZM887.656 269.324V259.305H894.688V269.324H887.656ZM939.219 341.395V334.949H945.254C946.113 334.949 946.777 334.715 947.246 334.246C947.754 333.738 948.008 333.055 948.008 332.195V291.59C948.008 290.73 947.754 290.066 947.246 289.598C946.777 289.09 946.113 288.836 945.254 288.836H939.219V282.391H945.254C948.184 282.391 950.449 283.055 952.051 284.383C953.652 285.672 954.453 287.488 954.453 289.832V333.953C954.453 336.297 953.652 338.113 952.051 339.402C950.449 340.73 948.184 341.395 945.254 341.395H939.219ZM891.172 262.234C888.633 262.234 886.309 261.609 884.199 260.359C882.09 259.109 880.41 257.43 879.16 255.32C877.91 253.211 877.285 250.887 877.285 248.348C877.285 245.77 877.91 243.445 879.16 241.375C880.41 239.266 882.09 237.586 884.199 236.336C886.309 235.086 888.633 234.461 891.172 234.461C893.75 234.461 896.074 235.086 898.145 236.336C900.254 237.586 901.934 239.266 903.184 241.375C904.434 243.445 905.059 245.75 905.059 248.289C905.059 250.867 904.434 253.211 903.184 255.32C901.934 257.43 900.254 259.109 898.145 260.359C896.035 261.609 893.711 262.234 891.172 262.234ZM891.172 256.375C893.398 256.375 895.293 255.594 896.855 254.031C898.418 252.469 899.199 250.574 899.199 248.348C899.199 246.121 898.418 244.227 896.855 242.664C895.293 241.102 893.398 240.32 891.172 240.32C888.945 240.32 887.051 241.102 885.488 242.664C883.926 244.227 883.145 246.121 883.145 248.348C883.145 250.574 883.926 252.469 885.488 254.031C887.051 255.594 888.945 256.375 891.172 256.375ZM891.172 251.688C892.07 251.688 892.852 251.355 893.516 250.691C894.18 250.027 894.512 249.246 894.512 248.348C894.512 247.449 894.18 246.668 893.516 246.004C892.852 245.34 892.07 245.008 891.172 245.008C890.273 245.008 889.492 245.34 888.828 246.004C888.164 246.668 887.832 247.449 887.832 248.348C887.832 249.246 888.164 250.027 888.828 250.691C889.492 251.355 890.273 251.688 891.172 251.688Z" fill="#7F1C1D"/>
</svg>
