<svg width="975" height="207" viewBox="0 0 975 207" fill="none" xmlns="http://www.w3.org/2000/svg">
<rect x="4.5" y="4.5" width="339" height="198" rx="28.5" stroke="#166434" stroke-width="9"/>
<rect x="631.5" y="4.5" width="339" height="198" rx="28.5" stroke="#166434" stroke-width="9"/>
<path d="M380.172 97.1716C378.609 98.7337 378.609 101.266 380.172 102.828L405.627 128.284C407.19 129.846 409.722 129.846 411.284 128.284C412.846 126.722 412.846 124.19 411.284 122.627L388.657 100L411.284 77.3726C412.846 75.8105 412.846 73.2778 411.284 71.7157C409.722 70.1536 407.19 70.1536 405.627 71.7157L380.172 97.1716ZM595.828 102.828C597.391 101.266 597.391 98.7337 595.828 97.1716L570.373 71.7157C568.81 70.1536 566.278 70.1536 564.716 71.7157C563.154 73.2778 563.154 75.8105 564.716 77.3726L587.343 100L564.716 122.627C563.154 124.19 563.154 126.722 564.716 128.284C566.278 129.846 568.81 129.846 570.373 128.284L595.828 102.828ZM383 104H593V96H383V104Z" fill="#166434"/>
<path d="M44.6719 113.461V47.25H149.672V113.461H44.6719ZM50.5312 113.461H143.812V53.1094H50.5312V113.461ZM57.5625 106.43V60.1406H136.781V106.43H57.5625ZM58.8516 135.492H65.8242L66.6445 132.797H59.8477L58.8516 135.492ZM64.9453 131.449H71.8008L72.9727 128.754H66L64.9453 131.449ZM62.8359 127.523H69.8672L70.9219 124.77H63.9492L62.8359 127.523ZM61.1953 123.363H68.1094L68.9883 121.02H61.957L61.1953 123.363ZM71.3906 123.363H78.3633L79.3008 121.02H72.5039L71.3906 123.363ZM156.938 140.941H163.09V152.719H31.2539V140.941H37.4062V147.445H156.938V140.941ZM74.9648 127.523H81.8789L82.6992 124.77H76.0781L74.9648 127.523ZM77.8945 131.449H84.8672L85.3945 128.754H78.8906L77.8945 131.449ZM81.6445 123.363H88.4414L89.3203 121.02H82.6992L81.6445 123.363ZM85.6875 127.523H92.6016L93.1289 124.77H86.3906L85.6875 127.523ZM90.1992 131.449H97.1719L96.9961 128.754H90.7852L90.1992 131.449ZM73.6758 135.492H120.492L119.379 132.797H74.7305L73.6758 135.492ZM91.6055 123.363H98.7539L98.0508 121.02H92.3672L91.6055 123.363ZM95.707 127.523H102.562L101.742 124.77H95.9414L95.707 127.523ZM103.324 131.449H110.062L109.184 128.754H102.621L103.324 131.449ZM102.094 123.363H108.891L107.836 121.02H101.273L102.094 123.363ZM105.492 127.523H112.289L111.059 124.77H104.73L105.492 127.523ZM114.105 131.449H121.137L119.906 128.754H112.992L114.105 131.449ZM112.465 123.363H119.379L118.09 121.02H111.117L112.465 123.363ZM116.566 127.523H123.422L122.309 124.77H115.336L116.566 127.523ZM128.754 135.492H135.668L134.262 132.797H127.465L128.754 135.492ZM122.602 123.363H129.691L128.344 121.02H121.43L122.602 123.363ZM126.938 127.523H133.793L132.387 124.77H125.531L126.938 127.523ZM125.766 131.449H150.023L148.559 128.754H124.594L125.766 131.449ZM141.645 135.492H152.309L150.785 132.797H140.297L141.645 135.492ZM132.914 123.363H145.512L144.223 121.02H131.742L132.914 123.363ZM138.188 127.523H147.855L146.332 124.77H136.84L138.188 127.523ZM31.2539 142.758V137.484L44.6719 113.461H149.672L163.09 137.484V142.758H31.2539ZM38.2266 137.484H156.117L145.629 118.734H48.7148L38.2266 137.484ZM42.0352 135.492H52.6992L53.4609 132.797H43.5586L42.0352 135.492ZM44.3203 131.449H61.3125L62.4258 128.754H45.7852L44.3203 131.449ZM46.4883 127.523H59.1445L60.2578 124.77H48.0117L46.4883 127.523ZM48.832 123.363H57.1523L58.0312 121.02H50.1211L48.832 123.363Z" fill="#166434"/>
<path d="M689.719 161.508C690.031 159.594 690.266 157.621 690.422 155.59C690.617 153.559 690.715 150.648 690.715 146.859C690.715 145.258 690.422 143.715 689.836 142.23C689.289 140.746 688.273 139.027 686.789 137.074C685.305 135.121 683.215 132.699 680.52 129.809C676.145 125.043 672.59 120.414 669.855 115.922C667.16 111.43 665.188 106.82 663.938 102.094C662.688 97.3281 662.062 92.2305 662.062 86.8008C662.062 77.2305 663.801 68.832 667.277 61.6055C670.793 54.3398 676.125 48.6758 683.273 44.6133C690.461 40.5117 699.543 38.4609 710.52 38.4609C719.621 38.4609 727.453 39.8867 734.016 42.7383C740.617 45.5508 745.695 49.5938 749.25 54.8672C752.805 60.1016 754.582 66.332 754.582 73.5586C754.582 75.8242 754.406 77.9141 754.055 79.8281C753.742 81.7031 753.586 83.2656 753.586 84.5156C753.586 86.0391 754.035 87.3477 754.934 88.4414C755.832 89.4961 756.867 90.4922 758.039 91.4297C759.25 92.3672 760.305 93.3828 761.203 94.4766C762.102 95.5703 762.551 96.9375 762.551 98.5781C762.551 100.023 762.219 101.117 761.555 101.859C760.891 102.562 760.227 103.109 759.562 103.5C758.898 103.891 758.566 104.34 758.566 104.848C758.566 105.238 758.762 105.785 759.152 106.488C759.582 107.191 759.797 107.973 759.797 108.832C759.797 110.16 759.23 111.312 758.098 112.289C756.965 113.227 755.715 114.066 754.348 114.809C755.559 114.926 756.711 115.395 757.805 116.215C758.938 117.035 759.504 118.09 759.504 119.379C759.504 120.746 759.074 122.035 758.215 123.246C757.395 124.418 756.984 125.16 756.984 125.473C756.984 125.863 757.18 126.547 757.57 127.523C757.961 128.461 758.156 129.691 758.156 131.215C758.156 134.105 756.984 136.586 754.641 138.656C752.297 140.688 749.035 141.918 744.855 142.348C743.215 142.504 741.711 142.66 740.344 142.816C739.016 143.012 737.59 143.266 736.066 143.578C735.91 145.18 735.754 147.211 735.598 149.672C735.48 152.172 735.422 154.555 735.422 156.82C735.422 157.68 735.422 158.5 735.422 159.281C735.461 160.102 735.5 160.844 735.539 161.508H689.719ZM697.395 155.062H728.391C728.391 152.68 728.469 150.277 728.625 147.855C728.781 145.434 728.977 143.324 729.211 141.527C729.445 139.73 729.68 138.578 729.914 138.07C733.039 137.523 735.559 137.113 737.473 136.84C739.387 136.566 741.652 136.312 744.27 136.078C746.457 135.883 748.137 135.336 749.309 134.438C750.52 133.539 751.125 132.465 751.125 131.215C751.125 130.434 750.93 129.535 750.539 128.52C750.148 127.465 749.953 126.449 749.953 125.473C749.953 124.691 750.246 123.91 750.832 123.129C751.418 122.309 751.711 121.703 751.711 121.312C751.711 121.156 751.555 121.059 751.242 121.02C750.969 120.941 750.324 120.902 749.309 120.902C748.137 120.902 746.789 120.512 745.266 119.73C743.781 118.91 742.551 116.996 741.574 113.988L750.246 110.531C751.184 110.141 751.828 109.828 752.18 109.594C752.57 109.359 752.766 109.008 752.766 108.539C752.766 108.07 752.551 107.484 752.121 106.781C751.73 106.078 751.535 105.434 751.535 104.848C751.535 103.793 751.867 102.934 752.531 102.27C753.195 101.566 753.859 100.941 754.523 100.395C755.188 99.8086 755.52 99.2227 755.52 98.6367C755.52 97.9727 755.07 97.2695 754.172 96.5273C753.273 95.7461 752.219 94.8281 751.008 93.7734C749.836 92.7188 748.801 91.4492 747.902 89.9648C747.004 88.4414 746.555 86.625 746.555 84.5156C746.555 82.4453 746.73 80.5508 747.082 78.832C747.473 77.1133 747.668 75.3555 747.668 73.5586C747.668 67.3867 746.184 62.1719 743.215 57.9141C740.246 53.6562 735.988 50.4336 730.441 48.2461C724.895 46.0195 718.254 44.9062 710.52 44.9062C700.793 44.9062 692.883 46.625 686.789 50.0625C680.695 53.4609 676.223 58.3047 673.371 64.5938C670.52 70.8438 669.094 78.2461 669.094 86.8008C669.094 91.7617 669.641 96.3711 670.734 100.629C671.867 104.848 673.664 108.988 676.125 113.051C678.586 117.074 681.828 121.273 685.852 125.648C690.344 130.492 693.449 134.457 695.168 137.543C696.887 140.59 697.746 143.676 697.746 146.801C697.746 148.48 697.707 150.043 697.629 151.488C697.551 152.973 697.473 154.164 697.395 155.062ZM778.781 134.906L765.832 124.887C764.816 124.066 764.602 123.129 765.188 122.074C765.734 121.059 766.633 120.805 767.883 121.312L783.059 127.465C783.84 127.738 784.328 128.227 784.523 128.93C784.758 129.633 784.68 130.336 784.289 131.039L782.531 134.203C782.141 134.867 781.574 135.277 780.832 135.434C780.129 135.59 779.445 135.414 778.781 134.906ZM783.41 118.09L767.18 115.863C765.852 115.668 765.188 114.984 765.188 113.812C765.188 112.641 765.852 111.957 767.18 111.762L783.41 109.535C784.191 109.418 784.855 109.613 785.402 110.121C785.988 110.59 786.281 111.215 786.281 111.996V115.629C786.281 116.41 785.988 117.055 785.402 117.562C784.855 118.031 784.191 118.207 783.41 118.09ZM767.883 107.133C766.633 107.641 765.734 107.387 765.188 106.371C764.602 105.316 764.816 104.379 765.832 103.559L778.781 93.5391C779.445 93.0312 780.129 92.8555 780.832 93.0117C781.574 93.168 782.141 93.5781 782.531 94.2422L784.289 97.4062C784.68 98.1094 784.758 98.8125 784.523 99.5156C784.328 100.18 783.84 100.668 783.059 100.98L767.883 107.133Z" fill="#166434"/>
<path d="M186.012 161.508V38.4609H283.102V55.043L276.07 62.3086V45.4922H193.043V154.477H276.07V115.57L283.102 109.535V161.508H186.012ZM232.535 146.098C229.488 146.098 227.164 145.746 225.562 145.043C223.961 144.379 222.359 144.047 220.758 144.047C219.781 144.047 218.824 144.301 217.887 144.809C216.988 145.316 215.777 145.57 214.254 145.57C213.316 145.57 212.125 145.316 210.68 144.809C209.273 144.34 208.121 144.105 207.223 144.105C206.168 144.105 205.094 144.398 204 144.984L202.359 141.82C204 141 205.621 140.59 207.223 140.59C208.277 140.59 209.527 140.824 210.973 141.293C212.418 141.801 213.512 142.055 214.254 142.055C215.074 142.055 216.031 141.801 217.125 141.293C218.219 140.785 219.43 140.531 220.758 140.531C222.711 140.531 224.547 140.863 226.266 141.527C228.023 142.23 230.113 142.582 232.535 142.582C233.551 142.582 234.859 142.387 236.461 141.996C238.062 141.645 239.469 141.254 240.68 140.824L241.617 144.223C240.211 144.73 238.629 145.16 236.871 145.512C235.152 145.902 233.707 146.098 232.535 146.098ZM216.48 126.352C214.996 126.352 213.492 126.117 211.969 125.648C210.445 125.18 209.234 124.945 208.336 124.945C207.203 124.945 206.07 125.238 204.938 125.824L203.297 122.66C204.898 121.84 206.578 121.43 208.336 121.43C209.469 121.43 210.797 121.664 212.32 122.133C213.883 122.602 215.27 122.836 216.48 122.836C217.73 122.836 219.391 122.504 221.461 121.84C223.531 121.137 225.406 120.785 227.086 120.785V124.301C226.188 124.301 225.074 124.477 223.746 124.828C222.418 125.141 221.09 125.473 219.762 125.824C218.473 126.176 217.379 126.352 216.48 126.352ZM243.727 143.461L237.047 138.891L240.562 121.605C241.188 126.254 242.281 129.633 243.844 131.742C245.406 133.852 247.672 134.906 250.641 134.906C251.734 134.906 253.023 134.867 254.508 134.789C256.031 134.672 257.848 134.516 259.957 134.32L243.727 143.461ZM204.703 111.938L203.062 108.773C204.703 107.953 206.324 107.543 207.926 107.543C208.824 107.543 209.742 107.66 210.68 107.895C211.617 108.09 212.379 108.188 212.965 108.188C213.863 108.188 214.977 107.875 216.305 107.25C217.633 106.625 218.961 106.312 220.289 106.312C222.086 106.312 223.883 106.488 225.68 106.84C227.516 107.152 229.703 107.309 232.242 107.309C234.43 107.309 236.852 107.191 239.508 106.957C242.203 106.723 244.547 106.41 246.539 106.02L247.242 109.418C245.133 109.809 242.672 110.141 239.859 110.414C237.086 110.688 234.547 110.824 232.242 110.824C229.391 110.824 227.047 110.668 225.211 110.355C223.414 110.004 221.773 109.828 220.289 109.828C219.312 109.828 218.199 110.141 216.949 110.766C215.738 111.391 214.41 111.703 212.965 111.703C212.027 111.703 211.168 111.605 210.387 111.41C209.605 111.176 208.785 111.059 207.926 111.059C206.871 111.059 205.797 111.352 204.703 111.938ZM214.43 97.2305C212.477 97.2305 211.168 96.918 210.504 96.293C209.879 95.668 209.156 95.3555 208.336 95.3555C207.203 95.3555 206.07 95.6484 204.938 96.2344L203.297 93.0703C204.898 92.25 206.578 91.8398 208.336 91.8398C209.625 91.8398 210.68 92.1523 211.5 92.7773C212.359 93.4023 213.336 93.7148 214.43 93.7148C215.211 93.7148 216.266 93.4609 217.594 92.9531C218.961 92.4453 220.27 92.1914 221.52 92.1914C223.277 92.1914 225.035 92.6797 226.793 93.6562L225.035 96.7031C223.824 96.0391 222.652 95.707 221.52 95.707C220.504 95.707 219.41 95.9609 218.238 96.4688C217.105 96.9766 215.836 97.2305 214.43 97.2305ZM241.617 144.516C240.133 144.516 238.805 144.008 237.633 142.992C236.5 142.016 235.934 140.766 235.934 139.242C235.934 138.891 235.973 138.52 236.051 138.129L240.445 115.219C240.641 114.086 240.934 113.012 241.324 111.996C241.715 110.98 242.105 110.18 242.496 109.594L247.066 112.582C246.793 113.09 246.539 113.656 246.305 114.281C246.109 114.867 245.934 115.531 245.777 116.273L242.203 135.141L245.191 137.25L263.238 127.348C264.137 126.879 264.859 126.41 265.406 125.941C265.992 125.473 266.383 125.121 266.578 124.887L270.445 128.754C269.742 129.77 268.219 130.922 265.875 132.211L244.254 143.871C243.434 144.301 242.555 144.516 241.617 144.516ZM214.43 82.8164C212.477 82.8164 211.168 82.5039 210.504 81.8789C209.879 81.2539 209.156 80.9414 208.336 80.9414C207.203 80.9414 206.07 81.2344 204.938 81.8203L203.297 78.6562C204.898 77.8359 206.578 77.4258 208.336 77.4258C209.625 77.4258 210.68 77.7383 211.5 78.3633C212.359 78.9883 213.336 79.3008 214.43 79.3008C215.328 79.3008 216.5 79.0469 217.945 78.5391C219.43 78.0312 220.816 77.7773 222.105 77.7773C223.746 77.7773 225.074 77.9922 226.09 78.4219C227.145 78.8125 228.316 79.0078 229.605 79.0078C231.949 79.0078 234.078 78.6367 235.992 77.8945L237.281 81.1758C235.016 82.0742 232.457 82.5234 229.605 82.5234C227.613 82.5234 226.188 82.3281 225.328 81.9375C224.508 81.5078 223.434 81.293 222.105 81.293C221.051 81.293 219.84 81.5469 218.473 82.0547C217.145 82.5625 215.797 82.8164 214.43 82.8164ZM249.234 97.2305C247.281 97.2305 245.973 96.918 245.309 96.293C244.684 95.668 243.961 95.3555 243.141 95.3555C242.008 95.3555 240.875 95.6484 239.742 96.2344L238.102 93.0703C239.703 92.25 241.383 91.8398 243.141 91.8398C244.43 91.8398 245.484 92.1523 246.305 92.7773C247.164 93.4023 248.141 93.7148 249.234 93.7148C250.016 93.7148 251.07 93.4609 252.398 92.9531C253.766 92.4453 255.074 92.1914 256.324 92.1914V95.707C255.309 95.707 254.215 95.9609 253.043 96.4688C251.91 96.9766 250.641 97.2305 249.234 97.2305ZM227.027 64.4766C225.113 64.4766 223.551 64.125 222.34 63.4219C221.129 62.6797 219.879 62.3086 218.59 62.3086C217.574 62.3086 216.676 62.5234 215.895 62.9531C215.152 63.3828 214 63.5977 212.438 63.5977C211.461 63.5977 210.602 63.4805 209.859 63.2461C209.156 62.9727 208.375 62.8359 207.516 62.8359C206.461 62.8359 205.387 63.1289 204.293 63.7148L202.652 60.5508C204.293 59.7305 205.914 59.3203 207.516 59.3203C208.453 59.3203 209.41 59.457 210.387 59.7305C211.363 59.9648 212.047 60.082 212.438 60.082C213.219 60.082 214.117 59.8672 215.133 59.4375C216.148 59.0078 217.301 58.793 218.59 58.793C220.191 58.793 221.715 59.1641 223.16 59.9062C224.605 60.6094 225.895 60.9609 227.027 60.9609C228.316 60.9609 229.762 60.5117 231.363 59.6133C232.965 58.6758 234.977 58.207 237.398 58.207C239.547 58.207 241.871 58.4609 244.371 58.9688C246.871 59.4766 249.039 59.4961 250.875 59.0273L251.695 62.4258C249.312 63.0508 246.949 63.0898 244.605 62.543C242.262 61.9961 239.859 61.7227 237.398 61.7227C235.992 61.7227 234.781 61.957 233.766 62.4258C232.75 62.8555 231.734 63.3047 230.719 63.7734C229.703 64.2422 228.473 64.4766 227.027 64.4766ZM265.582 130.043C264.098 130.043 262.809 129.691 261.715 128.988C260.66 128.246 259.859 127.348 259.312 126.293C258.883 126.371 258.453 126.449 258.023 126.527C257.633 126.566 257.242 126.586 256.852 126.586C255.133 126.586 253.531 126.098 252.047 125.121C250.055 123.832 248.883 121.918 248.531 119.379C246.383 119.301 244.703 118.715 243.492 117.621C242.32 116.527 241.734 115.082 241.734 113.285C241.734 112.113 241.988 110.883 242.496 109.594L270.035 71.0977L274.488 74.2617L247.418 112.113C247.379 112.23 247.359 112.387 247.359 112.582C247.359 113.012 247.516 113.383 247.828 113.695C248.18 113.969 248.59 114.105 249.059 114.105C249.488 114.105 249.84 114.008 250.113 113.812L275.953 77.6016L280.348 80.7656L253.805 117.914C253.883 119.008 254.176 119.809 254.684 120.316C255.23 120.824 255.953 121.078 256.852 121.078C257.125 121.078 257.418 121.059 257.73 121.02C258.043 120.941 258.375 120.863 258.727 120.785L285.328 83.5195L289.781 86.6836L264.469 122.191C264.352 122.426 264.293 122.699 264.293 123.012C264.293 123.441 264.449 123.812 264.762 124.125C265.113 124.398 265.523 124.535 265.992 124.535C266.422 124.535 266.773 124.438 267.047 124.242L294.293 86.0391L298.746 89.1445L270.445 128.754C268.727 129.613 267.105 130.043 265.582 130.043ZM299.684 91.0781C296.48 91 293.492 90.4922 290.719 89.5547C287.945 88.5781 284.781 86.9375 281.227 84.6328C277.711 82.3281 274.977 80.1211 273.023 78.0117C271.109 75.8633 269.527 73.3047 268.277 70.3359L278.121 57.1523L282.926 57.6211L282.047 63.1289L280.758 62.8945L274.605 70.9805C275.582 72.582 276.793 74.0664 278.238 75.4336C279.684 76.8008 281.695 78.3438 284.273 80.0625C286.891 81.7812 289.156 83.0508 291.07 83.8711C293.023 84.6914 295.035 85.2188 297.105 85.4531L303.141 77.4258C303.102 77.3086 303.023 77.1719 302.906 77.0156C302.828 76.8594 302.711 76.6836 302.555 76.4883L307.359 73.6758L309.41 78.0117L299.684 91.0781ZM303.551 80.4727C301.09 80.082 298.707 79.3984 296.402 78.4219C294.098 77.4453 291.617 76.0586 288.961 74.2617C286.031 72.2695 283.668 70.4141 281.871 68.6953C280.113 66.9375 278.668 65.0625 277.535 63.0703L281.227 58.207C282.125 60.3555 283.355 62.2695 284.918 63.9492C286.48 65.6289 288.844 67.543 292.008 69.6914C295.016 71.7227 297.633 73.1484 299.859 73.9688C302.086 74.7891 304.566 75.2383 307.301 75.3164L303.551 80.4727ZM304.957 80.7656L300.621 77.4844L307.828 67.875C308.453 67.0938 308.766 66.2734 308.766 65.4141C308.766 63.6172 306.949 61.5469 303.316 59.2031L298.512 56.1562C295.973 54.5547 293.824 53.7539 292.066 53.7539C290.543 53.7539 289.332 54.3594 288.434 55.5703L281.109 65.5312L276.656 62.3086L284.039 52.3477C286.031 49.6523 288.688 48.3047 292.008 48.3047C294.938 48.3047 298.082 49.3984 301.441 51.5859L306.188 54.6914C311.617 58.2461 314.332 61.8984 314.332 65.6484C314.332 67.5625 313.648 69.3984 312.281 71.1562L304.957 80.7656ZM310.348 69.6328C308.082 69.2031 305.855 68.5 303.668 67.5234C301.48 66.5469 299.098 65.1992 296.52 63.4805C294.137 61.8789 292.145 60.375 290.543 58.9688C288.941 57.5234 287.574 56.0391 286.441 54.5156L290.074 50.0039C291.012 51.5664 292.203 53.0312 293.648 54.3984C295.094 55.7656 297.066 57.2891 299.566 58.9688C302.105 60.6484 304.312 61.8984 306.188 62.7188C308.102 63.5 310.055 64.0469 312.047 64.3594L310.348 69.6328Z" fill="#166434"/>
<path d="M815.648 161.508V38.4609H938.695V161.508H815.648ZM833.93 159.809V90.0234H852.152V159.809H833.93ZM817.348 141.586V138.07H936.996V141.586H817.348ZM868.09 159.809V109.359H886.312V159.809H868.09ZM817.348 121.664V118.148H936.996V121.664H817.348ZM819.164 157.992H935.18V41.9766H819.164V157.992ZM817.348 101.742V98.2266H936.996V101.742H817.348ZM817.348 81.8203V78.3047H936.996V81.8203H817.348ZM902.191 159.809V59.6133H920.414V159.809H902.191ZM817.406 61.8984V58.3828H937.055V61.8984H817.406Z" fill="#166434"/>
</svg>
